<?xml version="1.0" encoding="UTF-8" standalone="no"?>
<!-- Created with Inkscape (http://www.inkscape.org/) -->

<svg
   xmlns:dc="http://purl.org/dc/elements/1.1/"
   xmlns:cc="http://creativecommons.org/ns#"
   xmlns:rdf="http://www.w3.org/1999/02/22-rdf-syntax-ns#"
   xmlns:svg="http://www.w3.org/2000/svg"
   xmlns="http://www.w3.org/2000/svg"
   xmlns:sodipodi="http://sodipodi.sourceforge.net/DTD/sodipodi-0.dtd"
   xmlns:inkscape="http://www.inkscape.org/namespaces/inkscape"
   width="194.60452"
   height="83.421333"
   viewBox="0 0 51.489111 22.071895"
   version="1.1"
   id="svg70985"
   inkscape:version="0.92.0 r15299"
   sodipodi:docname="aia group.svg">
  <defs
     id="defs70979">
    <clipPath
       id="clipPath70878"
       clipPathUnits="userSpaceOnUse">
      <path
         inkscape:connector-curvature="0"
         id="path70876"
         d="M 0,0 H 595.276 V 841.89 H 0 Z" />
    </clipPath>
  </defs>
  <sodipodi:namedview
     id="base"
     pagecolor="#ffffff"
     bordercolor="#666666"
     borderopacity="1.0"
     inkscape:pageopacity="0.0"
     inkscape:pageshadow="2"
     inkscape:zoom="4.1639727"
     inkscape:cx="96.302265"
     inkscape:cy="40.710666"
     inkscape:document-units="mm"
     inkscape:current-layer="layer1"
     showgrid="false"
     fit-margin-top="0"
     fit-margin-left="0"
     fit-margin-right="0"
     fit-margin-bottom="0"
     units="px"
     inkscape:window-width="1280"
     inkscape:window-height="744"
     inkscape:window-x="-4"
     inkscape:window-y="-4"
     inkscape:window-maximized="1" />
  <metadata
     id="metadata70982">
    <rdf:RDF>
      <cc:Work
         rdf:about="">
        <dc:format>image/svg+xml</dc:format>
        <dc:type
           rdf:resource="http://purl.org/dc/dcmitype/StillImage" />
        <dc:title></dc:title>
      </cc:Work>
    </rdf:RDF>
  </metadata>
  <g
     inkscape:label="Layer 1"
     inkscape:groupmode="layer"
     id="layer1"
     transform="translate(-42.55574,-175.33042)">
    <g
       id="g70872"
       transform="matrix(0.35277777,0,0,-0.35277777,-83.58789,461.34486)"
       style="fill:#d31145;fill-opacity:1">
      <g
         id="g70874"
         clip-path="url(#clipPath70878)"
         style="fill:#d31145;fill-opacity:1">
        <g
           id="g70880"
           transform="translate(386.8415,806.8356)"
           style="fill:#d31145;fill-opacity:1">
          <path
             d="m 0,0 c 14.137,0 25.725,-10.723 26.842,-24.356 -0.436,-0.576 -1.054,-0.882 -1.739,-1.034 -2.398,-0.507 -3.135,1.576 -5.13,2.895 -2,1.32 -3.836,1.825 -5.688,3.669 -0.744,0.744 -0.934,2.013 -1.674,2.791 -0.986,1.05 -1.586,1.336 -2.924,1.861 -2.348,0.912 -4.364,1.589 -6.316,3.198 -0.33,0.269 -1.106,0.626 -1.83,0.761 -0.31,0.067 -0.447,0.017 -0.552,-0.101 -0.291,-0.374 -0.557,-0.828 -0.816,-1.253 -0.071,-0.117 -0.311,-0.457 -0.507,-0.642 -0.376,-0.34 -0.848,-0.778 -1.209,-0.98 -1.963,-1.202 -4.55,-2.218 -5.667,-4.231 -0.208,-0.37 -2.349,-1.37 -2.843,-1.757 -0.779,-0.642 -1.542,-1.269 -2.342,-1.861 -0.749,-0.559 -1.784,-1.421 -2.565,-1.997 -0.412,0.152 -0.835,0.286 -1.224,0.354 -0.92,0.188 -1.693,0.898 -2.484,1.37 -1.013,0.643 -0.937,0.71 -1.257,0.899 -0.28,0.151 -0.418,0.252 -0.526,0.302 -0.754,0.442 -0.799,0 -1.869,-0.659 -0.892,-0.542 -1.92,-1.454 -2.687,-2.181 -0.611,-0.576 -1.233,-1.185 -1.872,-1.811 C -25.963,-10.925 -14.283,0 0,0 m -21.797,-42.119 c -2.073,2.807 -3.601,6.022 -4.435,9.523 0.241,-0.051 0.532,-0.135 1.011,-0.286 1.585,-0.509 4.574,-1.488 6.726,-0.509 1.368,0.644 3.75,1.169 4.665,1.522 0.865,0.357 2.692,-0.437 0.535,0.983 h -0.011 c -0.028,0.016 -0.061,0.034 -0.11,0.051 -0.072,0.033 -0.142,0.05 -0.222,0.067 -0.211,0.05 -1.941,-0.286 -2.324,-0.236 -0.12,0.033 -0.234,0.068 -0.349,0.134 -0.938,0.509 3.066,3.636 3.198,4.417 -1.149,-0.121 -2.098,-0.848 -3.126,-1.303 -1.208,-0.525 -2.535,-0.542 -3.829,-0.558 -1.482,0 -2.633,-1.152 -3.935,-1.677 -0.681,-0.287 -1.798,-0.541 -2.552,-1.03 -0.055,0.32 -0.104,0.643 -0.146,0.963 0.024,0.559 0.084,1.236 0.222,2.013 0.297,1.693 0.983,3.012 2.512,5.042 0,0 1.49,1.791 2.358,2.367 0.338,0.238 0.703,0.557 1.062,0.339 0.38,-0.238 -0.104,-1.709 0.912,-1.962 0.614,-0.135 0.073,-1.151 0.284,-1.743 0.225,-0.627 -2.529,-3.044 -1.802,-3.333 0.404,-0.168 2.229,0.761 3.197,1.067 0.854,0.269 1.763,0.286 2.699,1.168 0.964,0.896 1.919,1.404 1.919,1.404 0.783,0.659 1.544,1.336 2.318,1.996 0.754,0.66 1.476,1.336 2.206,2.013 0.458,0.437 2.526,1.589 2.709,1.979 0.963,2.08 3.476,3.299 5.344,4.618 0.343,0.236 0.715,0.744 0.926,1.03 0.212,0.289 0.435,0.727 0.558,0.865 0.237,0.27 0.297,0.472 0.563,0.606 0.106,0.054 0.528,0.054 0.71,-0.152 0.609,-0.643 1.438,-1.201 1.468,-1.877 0.051,-1.048 2.985,-1.963 3.653,-2.775 0.276,-0.336 0.437,-0.659 0.551,-0.979 -0.512,0.203 -1.016,0.455 -1.463,0.777 -0.296,0.22 -0.987,0.169 -1.341,0.22 -1.013,0.188 -0.778,-0.287 -0.218,-0.862 0.574,-0.609 1.241,-1.117 1.765,-1.778 0.606,-0.744 0.55,-1.353 0.713,-2.248 0.179,-0.949 0.747,-1.778 1.212,-2.622 0.473,-0.845 0.44,-1.744 0.702,-2.656 0.283,-0.912 1.059,-1.676 1.703,-2.353 0.549,-0.572 1.798,-1.979 2.481,-1.673 0.725,0.303 1.626,-0.575 1.897,-0.323 0.275,0.239 -0.726,1.407 -0.343,1.76 0.385,0.358 2.052,-0.202 2.394,-1.268 0.389,-1.253 0.349,-1.354 0.287,-2.249 -0.042,-0.592 -0.274,-1.067 -0.672,-1.488 -0.495,-0.491 -1.641,-1.319 -1.415,-2.15 1.051,0.558 2.195,0.608 3.369,0.575 1.137,-0.034 1.976,0.441 2.738,1.252 0.337,0.357 1.305,1.488 1.855,0.912 0.334,-0.336 -0.643,-1.723 0.429,-1.437 0.714,0.188 1.351,0.744 1.998,1.101 0.173,0.101 0.332,0.202 0.47,0.303 -0.845,-3.552 -2.408,-6.833 -4.533,-9.675 l 0.781,-0.642 c 3.776,4.837 6.044,10.926 6.044,17.54 0,15.751 -12.774,28.52 -28.521,28.52 -15.751,0 -28.519,-12.769 -28.519,-28.52 0,-6.563 2.219,-12.585 5.941,-17.406 z m 11.587,-0.033 c -0.044,-0.303 -0.468,-2.926 -0.931,-5.82 -0.848,0.188 -1.694,0.508 -2.64,1.033 -0.944,0.525 -1.659,1.063 -2.26,1.69 2.211,1.929 4.207,3.672 4.454,3.875 0.596,0.507 0.888,0.625 1.165,0.474 0.273,-0.152 0.33,-0.474 0.212,-1.252 m 1.644,4.244 c 0,0 -0.069,0.051 -0.149,0.088 -0.076,0.033 -0.133,0.067 -0.14,0.084 0.004,-0.017 0.007,-0.017 0.007,-0.017 -1.341,0.744 -2.667,0.71 -4.191,-0.407 -2.105,-1.522 -12.24,-10.098 -12.24,-10.098 l 2.925,-2.488 c 0,0 1.625,1.42 3.616,3.147 0.978,-0.861 2.075,-1.643 3.311,-2.335 1.226,-0.677 2.479,-1.199 3.721,-1.555 -0.422,-2.623 -0.765,-4.754 -0.765,-4.754 l 3.65,-1.168 c 0,0 1.935,13.144 2.118,15.733 0.14,1.878 -0.533,3.027 -1.863,3.77 m 6.553,-19.994 H 1.76 v 18.725 h -3.773 z m 15.394,10.946 c -0.949,-0.525 -1.794,-0.828 -2.635,-1.016 -0.457,2.894 -0.866,5.517 -0.922,5.82 -0.112,0.778 -0.057,1.084 0.22,1.252 0.27,0.151 0.567,0.033 1.155,-0.474 0.254,-0.22 2.248,-1.963 4.448,-3.892 -0.603,-0.61 -1.317,-1.165 -2.266,-1.69 m -4.902,9.22 c -0.006,-0.017 -0.067,-0.051 -0.148,-0.084 -0.077,-0.037 -0.133,-0.071 -0.133,-0.071 -1.334,-0.744 -2.018,-1.892 -1.884,-3.77 0.188,-2.606 2.098,-15.75 2.098,-15.75 l 3.655,1.168 c 0,0 -0.338,2.131 -0.754,4.736 1.244,0.374 2.494,0.896 3.731,1.573 1.225,0.676 2.329,1.474 3.298,2.335 1.991,-1.743 3.621,-3.181 3.621,-3.181 l 2.925,2.487 c 0,0 -10.12,8.611 -12.221,10.133 -1.518,1.117 -2.849,1.151 -4.188,0.424 m 0.787,5.362 c -0.66,1.286 -2.982,0.286 -4.159,1.37 -0.324,0.286 -1.013,0.912 -1.364,1.98 -0.334,1.012 -0.841,1.824 -1.692,2.483 -1.511,1.185 -5.091,2.979 -4.844,5.4 0.112,1.08 1.415,1.302 1.947,2.096 0.324,0.455 0.369,1.081 0.751,1.505 0.429,0.492 -0.173,0.492 -0.594,0.525 -0.901,0.034 -1.573,-0.949 -2.321,-1.353 -1.226,-0.643 -2.328,-1.558 -3.709,-1.861 -0.406,-0.085 -2.47,-0.728 -1.123,-1.068 0.921,-0.235 1.954,-0.168 2.717,-0.828 0.982,-0.844 1.78,-1.928 2.765,-2.773 0.5,-0.425 0.986,-0.828 1.392,-1.353 0.469,-0.61 0.408,-1.303 0.755,-1.929 0.336,-0.609 0.996,-0.067 1.408,-0.407 1.347,-1.114 -0.527,-1.656 -1.011,-2.181 -0.632,-0.694 -0.754,-1.135 -1.913,-1.606 -0.512,-0.205 -3.833,-0.609 -4.238,-0.916 -0.41,-0.303 -0.194,-0.404 -0.089,-0.522 0.108,-0.121 0.677,-0.306 0.931,-0.322 1.395,-0.135 5.688,-0.947 6.568,0.151 0.601,0.761 1.492,0.848 2.482,0.575 0.695,-0.185 2.074,-0.05 3.271,0.441 0.692,0.287 2.607,0.304 2.07,0.593"
             style="fill:#d31145;fill-opacity:1;fill-rule:nonzero;stroke:none"
             id="path70882"
             inkscape:connector-curvature="0" />
        </g>
        <g
           id="g70884"
           transform="translate(428.1129,797.1344)"
           style="fill:#d31145;fill-opacity:1">
          <path
             d="m 0,0 c -0.234,0 -0.438,-0.201 -0.438,-0.449 v -0.738 c 0,-0.25 0.204,-0.459 0.438,-0.459 h 1.784 v -9.018 c 0,-0.231 0.203,-0.439 0.454,-0.439 h 1.016 c 0.253,0 0.457,0.208 0.457,0.439 v 9.018 h 1.786 c 0.234,0 0.436,0.209 0.436,0.459 v 0.738 C 5.933,-0.201 5.731,0 5.497,0 Z m 8.607,-4.508 v 0 4.069 C 8.607,-0.201 8.402,0 8.152,0 H 7.135 C 6.885,0 6.683,-0.201 6.683,-0.439 v -10.225 c 0,-0.231 0.202,-0.439 0.452,-0.439 h 1.017 c 0.25,0 0.455,0.208 0.455,0.439 v 4.508 h 2.632 v -4.508 c 0,-0.231 0.199,-0.439 0.453,-0.439 h 1.018 c 0.249,0 0.452,0.208 0.452,0.439 V -0.439 C 13.162,-0.201 12.959,0 12.71,0 h -1.018 c -0.254,0 -0.453,-0.201 -0.453,-0.439 v -4.069 z m 10.94,-6.595 c 0.233,0 0.435,0.208 0.435,0.459 v 0.748 c 0,0.248 -0.202,0.459 -0.435,0.459 h -3.429 v 3.362 h 2.881 c 0.235,0 0.439,0.209 0.439,0.46 v 0.737 c 0,0.239 -0.204,0.449 -0.439,0.449 h -2.881 v 2.774 h 3.35 c 0.234,0 0.439,0.198 0.439,0.448 v 0.758 C 19.907,-0.201 19.702,0 19.468,0 h -4.822 c -0.251,0 -0.454,-0.201 -0.454,-0.439 v -10.225 c 0,-0.231 0.203,-0.439 0.454,-0.439 z m 8.137,7.393 c 0,-0.63 -0.405,-1.028 -1.032,-1.028 h -1.533 v 3.142 h 1.533 c 0.627,0 1.032,-0.409 1.032,-1.019 z m -1.032,-2.624 c 0.627,0 1.078,-0.409 1.078,-1.038 v -3.292 c 0,-0.231 0.205,-0.439 0.456,-0.439 h 1.019 c 0.248,0 0.454,0.208 0.454,0.439 v 2.972 c 0,1.058 -0.299,2.056 -1.552,2.186 1.017,0.109 1.346,0.907 1.346,1.905 v 1.567 C 29.453,-0.948 28.673,0 27.466,0 h -3.818 c -0.253,0 -0.455,-0.201 -0.455,-0.439 v -10.225 c 0,-0.231 0.202,-0.439 0.455,-0.439 h 1.017 c 0.25,0 0.454,0.208 0.454,0.439 v 4.33 z m 9.216,-4.769 c 0.238,0 0.442,0.208 0.442,0.459 v 0.748 c 0,0.248 -0.204,0.459 -0.442,0.459 h -3.426 v 3.362 h 2.882 c 0.235,0 0.438,0.209 0.438,0.46 v 0.737 c 0,0.239 -0.203,0.449 -0.438,0.449 h -2.882 v 2.774 h 3.351 c 0.232,0 0.438,0.198 0.438,0.448 v 0.758 C 36.231,-0.201 36.025,0 35.793,0 H 30.97 c -0.247,0 -0.451,-0.201 -0.451,-0.439 v -10.225 c 0,-0.231 0.204,-0.439 0.451,-0.439 z m 14.55,1.227 c 0,0.228 -0.206,0.439 -0.454,0.439 H 47.05 v 8.998 C 47.05,-0.201 46.846,0 46.598,0 H 45.58 c -0.25,0 -0.454,-0.201 -0.454,-0.439 v -10.225 c 0,-0.231 0.204,-0.439 0.454,-0.439 h 4.384 c 0.248,0 0.454,0.208 0.454,0.439 z m 8.342,0 c 0,0.228 -0.204,0.439 -0.454,0.439 h -2.912 v 8.998 C 55.394,-0.201 55.191,0 54.942,0 h -1.017 c -0.254,0 -0.457,-0.201 -0.457,-0.439 v -10.225 c 0,-0.231 0.203,-0.439 0.457,-0.439 h 4.381 c 0.25,0 0.454,0.208 0.454,0.439 z m 0.74,-0.788 c 0,-0.231 0.202,-0.439 0.455,-0.439 h 1.016 c 0.251,0 0.454,0.208 0.454,0.439 V -0.439 C 61.425,-0.201 61.222,0 60.971,0 H 59.955 C 59.702,0 59.5,-0.201 59.5,-0.439 Z m 4.865,4.589 v 0 h 2.881 c 0.233,0 0.437,0.209 0.437,0.46 v 0.737 c 0,0.239 -0.204,0.449 -0.437,0.449 h -2.881 v 2.774 h 3.349 c 0.239,0 0.441,0.198 0.441,0.448 v 0.758 C 68.155,-0.201 67.953,0 67.714,0 h -4.819 c -0.253,0 -0.457,-0.201 -0.457,-0.439 v -10.225 c 0,-0.231 0.204,-0.439 0.457,-0.439 h 1.032 c 0.235,0 0.438,0.208 0.438,0.459 z m 9.857,-5.028 c 0.237,0 0.441,0.208 0.441,0.459 v 0.748 c 0,0.248 -0.204,0.459 -0.441,0.459 h -3.426 v 3.362 h 2.879 c 0.236,0 0.439,0.209 0.439,0.46 v 0.737 c 0,0.239 -0.203,0.449 -0.439,0.449 h -2.879 v 2.774 h 3.349 c 0.235,0 0.439,0.198 0.439,0.448 v 0.758 C 74.584,-0.201 74.38,0 74.145,0 h -4.82 C 69.072,0 68.87,-0.201 68.87,-0.439 v -10.225 c 0,-0.231 0.202,-0.439 0.455,-0.439 z"
             style="fill:#d31145;fill-opacity:1;fill-rule:nonzero;stroke:none"
             id="path70886"
             inkscape:connector-curvature="0" />
        </g>
        <g
           id="g70888"
           transform="translate(432.2209,780.3149)"
           style="fill:#d31145;fill-opacity:1">
          <path
             d="m 0,0 c 0,-0.238 0.204,-0.439 0.455,-0.439 h 1.002 c 0.251,0 0.452,0.201 0.452,0.439 v 0.259 c 0,1.966 -1.425,3.054 -3.223,3.054 -1.802,0 -3.224,-1.088 -3.224,-3.054 v -5.647 c 0,-1.955 1.422,-3.05 3.224,-3.05 1.798,0 3.223,1.095 3.223,3.05 v 0.27 c 0,0.231 -0.201,0.44 -0.452,0.44 H 0.455 C 0.204,-4.678 0,-4.887 0,-5.118 v -0.27 c 0,-0.798 -0.531,-1.395 -1.314,-1.395 -0.799,0 -1.315,0.577 -1.315,1.395 v 5.647 c 0,0.799 0.532,1.397 1.315,1.397 C -0.516,1.656 0,1.078 0,0.259 Z m 7.347,-5.388 c 0,-0.818 -0.516,-1.395 -1.316,-1.395 -0.797,0 -1.315,0.577 -1.315,1.395 v 5.647 c 0,0.819 0.518,1.397 1.315,1.397 0.8,0 1.316,-0.578 1.316,-1.397 z m 1.91,5.647 c 0,1.966 -1.426,3.054 -3.226,3.054 -1.799,0 -3.223,-1.088 -3.223,-3.054 v -5.647 c 0,-1.955 1.424,-3.05 3.223,-3.05 1.8,0 3.226,1.095 3.226,3.05 z m 5.808,-8.39 c 0.25,0 0.407,0.2 0.454,0.441 L 17.43,0.699 V -7.69 c 0,-0.241 0.202,-0.441 0.454,-0.441 h 0.846 c 0.249,0 0.453,0.2 0.453,0.441 V 2.535 c 0,0.228 -0.204,0.438 -0.453,0.438 h -2.006 c -0.249,0 -0.407,-0.21 -0.451,-0.438 L 14.784,-4.231 13.297,2.535 C 13.25,2.763 13.095,2.973 12.843,2.973 H 10.84 c -0.252,0 -0.455,-0.21 -0.455,-0.438 V -7.69 c 0,-0.241 0.203,-0.441 0.455,-0.441 h 0.844 c 0.251,0 0.454,0.2 0.454,0.441 v 8.389 l 1.91,-8.389 c 0.049,-0.241 0.202,-0.441 0.455,-0.441 z m 9.664,6.673 c 0,-0.797 -0.346,-1.015 -0.972,-1.015 h -1.423 v 3.85 h 1.423 c 0.626,0 0.972,-0.24 0.972,-1.038 z m -2.395,-2.621 v 0 h 2.552 c 1.048,0 1.769,0.758 1.769,1.824 v 3.194 c 0,1.136 -0.862,2.034 -2.02,2.034 h -3.773 c -0.25,0 -0.453,-0.21 -0.453,-0.438 V -7.69 c 0,-0.241 0.203,-0.441 0.453,-0.441 h 1.019 c 0.248,0 0.453,0.2 0.453,0.441 z m 18.14,-0.32 v 0 L 37.42,2.535 c -0.093,0.218 -0.187,0.438 -0.499,0.438 h -1.282 c -0.254,0 -0.458,-0.21 -0.458,-0.438 V -7.69 c 0,-0.241 0.204,-0.441 0.458,-0.441 h 1.014 c 0.251,0 0.454,0.2 0.454,0.441 v 6.932 L 40.16,-7.69 c 0.095,-0.221 0.189,-0.441 0.501,-0.441 h 1.285 c 0.249,0 0.451,0.2 0.451,0.441 V 2.515 c 0,0.238 -0.202,0.439 -0.451,0.439 h -1.019 c -0.25,0 -0.453,-0.201 -0.453,-0.439 z m 5.951,-3.732 h 1.031 c 0.253,0 0.458,0.2 0.458,0.441 v 4.698 l 2.767,5.476 c 0.033,0.061 0.033,0.13 0.033,0.16 0,0.179 -0.126,0.329 -0.344,0.329 h -1.002 c -0.25,0 -0.362,-0.079 -0.564,-0.489 l -1.863,-3.602 -1.862,3.602 c -0.206,0.41 -0.311,0.489 -0.562,0.489 h -1.003 c -0.219,0 -0.346,-0.15 -0.346,-0.329 0,-0.03 0,-0.099 0.031,-0.16 L 45.97,-2.992 V -7.69 c 0,-0.241 0.204,-0.441 0.455,-0.441"
             style="fill:#d31145;fill-opacity:1;fill-rule:nonzero;stroke:none"
             id="path70890"
             inkscape:connector-curvature="0" />
        </g>
        <g
           id="g70892"
           transform="translate(467.6175,789.9819)"
           style="fill:#d31145;fill-opacity:1">
          <path
             d="M 0,0 1.14,5.197 2.283,0 M 0,0 V 0 H 2.283 Z M 0,0 H 2.283 M 1.025,7.152 c -0.962,0 -1.363,-0.599 -1.466,-1.047 -0.105,-0.439 -2.188,-9.458 -2.188,-9.458 -0.032,-0.119 -0.047,-0.248 -0.047,-0.267 0,-0.172 0.14,-0.331 0.344,-0.331 h 1.157 c 0.187,0 0.299,0.159 0.344,0.35 l 0.47,1.976 h 3.002 l 0.47,-1.976 c 0.049,-0.191 0.158,-0.35 0.345,-0.35 h 1.158 c 0.204,0 0.346,0.159 0.346,0.331 0,0.019 -0.016,0.148 -0.047,0.267 0,0 -2.083,9.019 -2.19,9.458 C 2.618,6.553 2.219,7.152 1.14,7.152 0.063,7.152 -0.338,6.553 -0.441,6.105 -0.546,5.666 -2.629,-3.353 -2.629,-3.353 -2.661,-3.472 -2.676,-3.601 -2.676,-3.62 c 0,-0.172 0.14,-0.331 0.344,-0.331 h 1.157 c 0.187,0 0.299,0.159 0.344,0.35 l 0.47,1.976 m 1.386,8.777 c -0.962,0 -1.363,-0.599 -1.466,-1.047 -0.105,-0.439 -2.188,-9.458 -2.188,-9.458 -0.032,-0.119 -0.047,-0.248 -0.047,-0.267 0,-0.172 0.14,-0.331 0.344,-0.331 h 1.157 c 0.187,0 0.299,0.159 0.344,0.35 l 0.47,1.976"
             style="fill:#d31145;fill-opacity:1;fill-rule:nonzero;stroke:none"
             id="path70894"
             inkscape:connector-curvature="0" />
        </g>
        <g
           id="g70896"
           transform="translate(461.642,776.1364)"
           style="fill:#d31145;fill-opacity:1">
          <path
             d="M 0,0 1.142,5.207 2.282,0 M 0,0 V 0 H 2.282 Z M 0,0 H 2.282 M 1.029,7.162 c -0.965,0 -1.365,-0.6 -1.468,-1.048 -0.108,-0.439 -2.19,-9.457 -2.19,-9.457 -0.031,-0.129 -0.047,-0.25 -0.047,-0.27 0,-0.168 0.14,-0.33 0.344,-0.33 h 1.157 c 0.188,0 0.3,0.162 0.346,0.35 l 0.471,1.975 h 3.003 l 0.467,-1.975 c 0.048,-0.188 0.158,-0.35 0.347,-0.35 h 1.157 c 0.204,0 0.344,0.162 0.344,0.33 0,0.02 -0.017,0.141 -0.047,0.27 0,0 -2.085,9.018 -2.188,9.457 -0.104,0.448 -0.504,1.048 -1.583,1.048 -1.078,0 -1.478,-0.6 -1.581,-1.048 -0.108,-0.439 -2.19,-9.457 -2.19,-9.457 -0.031,-0.129 -0.047,-0.25 -0.047,-0.27 0,-0.168 0.14,-0.33 0.344,-0.33 h 1.157 c 0.188,0 0.3,0.162 0.346,0.35 l 0.471,1.975 m 1.387,8.78 c -0.965,0 -1.365,-0.6 -1.468,-1.048 -0.108,-0.439 -2.19,-9.457 -2.19,-9.457 -0.031,-0.129 -0.047,-0.25 -0.047,-0.27 0,-0.168 0.14,-0.33 0.344,-0.33 h 1.157 c 0.188,0 0.3,0.162 0.346,0.35 l 0.471,1.975"
             style="fill:#d31145;fill-opacity:1;fill-rule:nonzero;stroke:none"
             id="path70898"
             inkscape:connector-curvature="0" />
        </g>
      </g>
    </g>
  </g>
</svg>
