<?xml version="1.0" encoding="UTF-8" standalone="no"?>
<!-- Created with Inkscape (http://www.inkscape.org/) -->
<svg
   xmlns:svg="http://www.w3.org/2000/svg"
   xmlns="http://www.w3.org/2000/svg"
   version="1.0"
   width="602.36218"
   height="715.74799"
   id="svg1882">
  <defs
     id="defs1884" />
  <g
     transform="translate(114.8932,10.65154)"
     id="layer1">
    <g
       transform="matrix(3.543307e-5,0,0,3.543307e-5,-114.8932,-10.65067)"
       style="fill-rule:evenodd"
       id="Layer_x0020_1">
  
  <g
   id="_46940120">
   <path
   d="M 1140150,500000 L 15860150,500000 C 16213460,500000 16500000,786470 16500000,1139780 L 16500000,19059880 C 16500000,19413410 16213460,19699950 15860150,19699950 L 1140150,19699950 C 786550,19699950 500000,19413410 500000,19059880 L 500000,1139780 C 500000,786470 786550,500000 1140150,500000 L 1140150,500000 z "
   style="fill:#fbc219"
   id="_88254696" />

   <path
   d="M 2259930,1699810 L 14740130,1699810 C 14916930,1699810 15060200,1843090 15060200,2019890 L 15060200,18179990 C 15060200,18356500 14916930,18499770 14740130,18499770 L 2259930,18499770 C 2083350,18499770 1940150,18356500 1940150,18179990 L 1940150,2019890 C 1940150,1843090 2083350,1699810 2259930,1699810 L 2259930,1699810 z "
   style="fill:#ed6f00"
   id="_92070736" />

   <path
   d="M 2819970,2179810 L 14180070,2179810 C 14268510,2179810 14339990,2251520 14339990,2339960 L 14339990,17859960 C 14339990,17948320 14268510,18019810 14180070,18019810 L 2819970,18019810 C 2731820,18019810 2660040,17948320 2660040,17859960 L 2660040,2339960 C 2660040,2251520 2731820,2179810 2819970,2179810 L 2819970,2179810 z "
   style="fill:#e82e19"
   id="_47907296" />

   <path
   d="M 3139970,2420000 L 13860070,2420000 C 13904210,2420000 13940110,2455670 13940110,2499810 L 13940110,17699810 C 13940110,17743960 13904210,17779850 13860070,17779850 L 3139970,17779850 C 3095820,17779850 3059930,17743960 3059930,17699810 L 3059930,2499810 C 3059930,2455670 3095820,2420000 3139970,2420000 L 3139970,2420000 z "
   style="fill:#003d84"
   id="_88236080" />

   <path
   d="M 8204100,9699810 L 8339340,9219890 L 12180220,9219890 L 12180220,9699810 L 8204100,9699810 z M 8655210,8099810 L 8790380,7619890 L 12180220,7619890 L 12180220,8099810 L 8655210,8099810 z M 8429550,8899810 L 8565010,8419890 L 12180220,8419890 L 12180220,8899810 L 8429550,8899810 z M 3939970,2900000 L 13060040,2900000 L 13060040,12020000 L 3939970,12020000 L 3939970,2900000 L 3939970,2900000 z M 4340080,3139960 L 12660150,3139960 L 12660150,11780030 L 4340080,11780030 L 4340080,3139960 L 4340080,3139960 z M 5618010,11539780 L 5099840,11539780 L 7394010,3379930 L 7912400,3379930 L 5618010,11539780 z M 6481910,11539780 L 5963730,11539780 L 8257980,3379930 L 8776370,3379930 L 6481910,11539780 z M 7346180,11539780 L 6827700,11539780 L 9122170,3379930 L 9640340,3379930 L 7346180,11539780 z "
   style="fill:#03b4de"
   id="_88185032" />

   <path
   d="M 10860500,16928400 C 10860500,16591150 10426780,16547230 10426780,16423490 C 10426780,16368650 10472330,16341310 10543300,16341310 C 10616340,16341310 10700060,16361360 10767640,16383170 L 10811340,16113580 C 10713030,16091690 10614490,16062360 10452280,16062360 C 10144220,16062360 9969190,16186400 9969190,16445300 C 9969190,16762280 10372170,16815270 10372170,16952050 C 10372170,17026640 10311890,17041230 10246370,17041230 C 10175400,17041230 10076860,17008430 10001980,16986620 L 9963730,17263500 C 10045910,17289000 10188150,17322020 10361040,17322020 C 10734920,17322020 10860500,17165260 10860500,16928400 z M 12700460,16691230 C 12700460,16924490 12695010,17035780 12560290,17035780 L 12525500,17035780 L 12525500,16348610 L 12560290,16348610 C 12695010,16348610 12700460,16461660 12700460,16691230 z M 13121650,16691230 C 13121650,16100830 12922960,16084470 12498160,16084470 L 12108150,16084470 L 12108150,17300210 L 12498160,17300210 C 12922960,17300210 13121650,17283770 13121650,16691230 z M 11428570,15801840 C 11428570,15694160 11348460,15612280 11242630,15612280 C 11136870,15612280 11049460,15694160 11049460,15801840 C 11049460,15909440 11136870,15991390 11242630,15991390 C 11348460,15991390 11428570,15909440 11428570,15801840 z M 11917120,15801840 C 11917120,15694160 11833100,15612280 11727570,15612280 C 11621730,15612280 11538010,15694160 11538010,15801840 C 11538010,15909440 11621730,15991390 11727570,15991390 C 11833100,15991390 11917120,15909440 11917120,15801840 z M 11960750,16700370 L 11960750,16084470 L 11561670,16084470 L 11561670,16838930 C 11561670,16981160 11552600,17033930 11481340,17033930 C 11413980,17033930 11401230,16981160 11401230,16838930 L 11401230,16084470 L 10983720,16084470 L 10983720,16700370 C 10983720,17172490 11071350,17322020 11472200,17322020 C 11873420,17322020 11960750,17174330 11960750,16700370 z M 5623980,14603280 L 5165060,14603280 L 5394630,13430430 L 5623980,14603280 z M 6887770,15547060 L 6052390,12659840 L 4819050,12659840 L 3970400,15547060 L 4966150,15547060 L 5043900,15213720 L 5740940,15213720 L 5823120,15547060 L 6887770,15547060 z M 8930550,15547060 L 8835410,14763420 L 8121190,14763420 L 8121190,12659840 L 7125450,12659840 L 7125450,15547060 L 8930550,15547060 z M 11635220,14101240 C 11635220,12698830 11163330,12659840 10154830,12659840 L 9228510,12659840 L 9228510,15547060 L 10154830,15547060 C 11163330,15547060 11635220,15508070 11635220,14101240 z M 10635350,14101240 C 10635350,14655230 10622310,14919440 10302010,14919440 L 10219840,14919440 L 10219840,13287460 L 10302010,13287460 C 10622310,13287460 10635350,13556020 10635350,14101240 z M 12985160,15547060 L 12985160,12659840 L 11989640,12659840 L 11989640,15547060 L 12985160,15547060 z "
   style="fill:white;fill-opacity:1"
   id="_88782736" />

  </g>

 </g>
  </g>
</svg>
