<?xml version="1.0" encoding="UTF-8" standalone="no"?>
<!-- Created with Inkscape (http://www.inkscape.org/) -->
<svg
   xmlns:i="http://ns.adobe.com/AdobeIllustrator/10.0/"
   xmlns:dc="http://purl.org/dc/elements/1.1/"
   xmlns:cc="http://web.resource.org/cc/"
   xmlns:rdf="http://www.w3.org/1999/02/22-rdf-syntax-ns#"
   xmlns:svg="http://www.w3.org/2000/svg"
   xmlns="http://www.w3.org/2000/svg"
   xmlns:sodipodi="http://sodipodi.sourceforge.net/DTD/sodipodi-0.dtd"
   xmlns:inkscape="http://www.inkscape.org/namespaces/inkscape"
   width="200"
   height="99.10643"
   id="svg2289"
   sodipodi:version="0.32"
   inkscape:version="0.45.1"
   version="1.0"
   sodipodi:docbase="C:\Documents and Settings\Administrator\Desktop"
   sodipodi:docname="Alibaba_Logo.svg"
   inkscape:output_extension="org.inkscape.output.svg.inkscape">
  <defs
     id="defs2291" />
  <sodipodi:namedview
     id="base"
     pagecolor="#ffffff"
     bordercolor="#666666"
     borderopacity="1.0"
     gridtolerance="10000"
     guidetolerance="10"
     objecttolerance="10"
     inkscape:pageopacity="0.0"
     inkscape:pageshadow="2"
     inkscape:zoom="0.35"
     inkscape:cx="375"
     inkscape:cy="520"
     inkscape:document-units="px"
     inkscape:current-layer="layer1"
     inkscape:window-width="742"
     inkscape:window-height="577"
     inkscape:window-x="132"
     inkscape:window-y="157" />
  <metadata
     id="metadata2294">
    <rdf:RDF>
      <cc:Work
         rdf:about="">
        <dc:format>image/svg+xml</dc:format>
        <dc:type
           rdf:resource="http://purl.org/dc/dcmitype/StillImage" />
      </cc:Work>
    </rdf:RDF>
  </metadata>
  <g
     inkscape:label="Layer 1"
     inkscape:groupmode="layer"
     id="layer1"
     transform="translate(-346.65297,-388.28788)">
    <path
       style="fill-rule:evenodd"
       id="path2229"
       d="M 369.08689,475.69593 C 368.23094,475.50526 366.99467,474.84099 366.04337,474.07832 C 357.38746,465.80477 368.42056,456.10327 381.1656,450.49291 L 381.1656,434.51371 C 384.20911,436.32198 385.72933,436.51162 385.92,436.79659 L 395.6215,427.09509 L 392.38834,418.91584 C 420.92088,409.02471 432.42859,405.22161 455.63471,401.32112 L 451.45028,397.51699 L 458.29792,393.5222 C 473.89579,398.75326 488.44599,400.08487 485.97347,413.11486 C 486.63977,404.36463 475.702,400.94081 458.77358,396.18541 L 455.63471,398.1833 L 461.81605,403.31903 C 434.0462,408.16979 416.92609,413.49516 396.6671,420.53347 L 399.33132,427.76142 L 389.24949,437.74791 C 390.9614,438.22355 408.65045,444.21525 427.19751,431.28057 C 427.29284,431.18524 427.57781,431.08991 427.57781,430.90027 C 426.91151,429.94897 425.77057,429.092 424.24933,427.66609 C 429.5747,428.04639 433.09385,432.80182 432.42857,437.74791 L 429.95605,437.74791 C 430.24102,436.22564 429.86072,434.4184 429.19441,433.27748 C 415.02246,443.73961 398.38004,445.26188 384.20911,440.31579 L 384.20911,452.67947 C 377.26614,455.05666 364.99676,462.66596 365.09209,469.98924 C 365.56773,473.50836 367.37397,474.74463 369.08689,475.69593 L 369.08689,475.69593 z "
       clip-rule="evenodd"
       i:knockout="Off" />
    <path
       style="fill:#f47937;fill-rule:evenodd"
       id="path2231"
       d="M 427.00686,472.46277 C 411.69397,480.35602 397.04843,486.53734 374.22262,487.39431 C 344.83414,486.82231 340.2694,467.23068 354.24966,446.78308 C 367.37395,426.14482 388.29924,407.40813 421.68149,395.70973 C 431.19132,392.38124 445.55392,388.38644 459.15284,388.29214 C 478.84083,388.10147 497.95682,394.28281 496.72055,413.0195 C 496.05424,427.47643 475.22634,447.92503 464.28857,462.57059 C 459.53417,468.9436 458.77356,473.03272 466.76109,472.74569 C 495.76925,470.84517 522.30488,460.76437 546.65297,450.30224 C 530.29449,461.42965 444.50627,503.94345 444.03061,474.9353 C 444.12698,471.32081 445.93319,467.42135 448.69071,463.33223 C 451.45026,459.2421 455.25338,454.86698 459.15284,450.39757 C 464.95488,443.73957 479.41077,427.7614 484.26153,418.15523 C 492.44179,400.08485 474.08643,399.13458 458.2979,393.52218 L 451.45028,397.51699 L 455.54041,401.32112 C 432.42859,405.22161 420.92088,409.02471 392.38836,418.91586 L 395.62152,427.09511 L 385.92002,436.79661 C 385.72935,436.51164 384.20913,436.322 381.16562,434.51373 L 381.16562,450.49293 C 368.4206,456.10327 357.3875,465.80479 366.04339,474.07834 C 366.99469,474.84101 368.23094,475.50528 369.08691,475.69595 C 369.08691,475.69595 369.08691,475.69595 368.99158,475.69595 C 384.68372,484.54045 427.10117,472.46277 427.00686,472.46277 L 427.00686,472.46277 z "
       clip-rule="evenodd"
       i:knockout="Off" />
  </g>
</svg>
