<?xml version="1.0" encoding="UTF-8" standalone="no"?>
<!-- Created with Inkscape (http://www.inkscape.org/) -->
<svg
   xmlns:dc="http://purl.org/dc/elements/1.1/"
   xmlns:cc="http://creativecommons.org/ns#"
   xmlns:rdf="http://www.w3.org/1999/02/22-rdf-syntax-ns#"
   xmlns:svg="http://www.w3.org/2000/svg"
   xmlns="http://www.w3.org/2000/svg"
   xmlns:sodipodi="http://sodipodi.sourceforge.net/DTD/sodipodi-0.dtd"
   xmlns:inkscape="http://www.inkscape.org/namespaces/inkscape"
   width="697.48376"
   height="197.33276"
   id="svg2"
   sodipodi:version="0.32"
   inkscape:version="0.46"
   version="1.0"
   sodipodi:docname="BOC.svg"
   inkscape:output_extension="org.inkscape.output.svg.inkscape">
  <defs
     id="defs4">
    <inkscape:perspective
       sodipodi:type="inkscape:persp3d"
       inkscape:vp_x="0 : 526.18109 : 1"
       inkscape:vp_y="0 : 1000 : 0"
       inkscape:vp_z="744.09448 : 526.18109 : 1"
       inkscape:persp3d-origin="372.04724 : 350.78739 : 1"
       id="perspective10" />
    <clipPath
       id="clipPath2442"
       clipPathUnits="userSpaceOnUse">
      <path
         id="path2444"
         d="M 258.554,276.719 L 336.466,276.719 L 336.466,565.42 L 258.554,565.42 L 258.554,276.719 z" />
    </clipPath>
    <inkscape:perspective
       id="perspective2410"
       inkscape:persp3d-origin="372.04724 : 350.78739 : 1"
       inkscape:vp_z="744.09448 : 526.18109 : 1"
       inkscape:vp_y="0 : 1000 : 0"
       inkscape:vp_x="0 : 526.18109 : 1"
       sodipodi:type="inkscape:persp3d" />
  </defs>
  <sodipodi:namedview
     id="base"
     pagecolor="#ffffff"
     bordercolor="#666666"
     borderopacity="1.0"
     gridtolerance="10000"
     guidetolerance="10"
     objecttolerance="10"
     inkscape:pageopacity="0.0"
     inkscape:pageshadow="2"
     inkscape:zoom="0.3440678"
     inkscape:cx="282.85714"
     inkscape:cy="76.549764"
     inkscape:document-units="px"
     inkscape:current-layer="layer1"
     showgrid="false"
     inkscape:window-width="1024"
     inkscape:window-height="712"
     inkscape:window-x="-4"
     inkscape:window-y="-4" />
  <metadata
     id="metadata7">
    <rdf:RDF>
      <cc:Work
         rdf:about="">
        <dc:format>image/svg+xml</dc:format>
        <dc:type
           rdf:resource="http://purl.org/dc/dcmitype/StillImage" />
      </cc:Work>
    </rdf:RDF>
  </metadata>
  <g
     inkscape:label="Layer 1"
     inkscape:groupmode="layer"
     id="layer1"
     transform="translate(-140.40268,-369.20448)">
    <g
       id="g2486"
       transform="matrix(2.7910788,0,0,2.7910788,-251.47224,-661.27429)">
      <g
         transform="matrix(0,1.25,1.25,0,179.88767,411.36322)"
         id="g2414">
        <path
           id="path2416"
           style="fill:#b30738;fill-opacity:1;fill-rule:evenodd;stroke:none"
           d="M 0,0 L -0.004,-10.134 C -0.004,-10.134 -0.036,-10.443 -0.304,-10.597 C -0.567,-10.748 -0.707,-10.707 -0.707,-10.707 L -10.151,-10.707 C -10.151,-10.707 -10.485,-10.722 -10.688,-10.539 C -10.881,-10.367 -10.889,-10.048 -10.889,-10.048 L -10.889,3.303 C -10.889,3.303 -10.919,3.516 -10.784,3.762 C -10.671,3.973 -10.226,4.092 -10.226,4.092 L -0.534,4.092 C -0.534,4.092 -0.265,3.973 -0.171,3.86 C -0.079,3.752 -0.007,3.533 -0.007,3.533 L 0,0 z M -16.965,-0.078 L -27.414,-0.08 C -25.851,10.653 -16.612,18.893 -5.447,18.893 C 5.714,18.893 14.967,10.67 16.531,-0.058 L 6.013,-0.078 L 6.013,4.088 C 6.013,7.565 3.404,10.118 -0.072,10.118 L -10.958,10.118 C -14.432,10.118 -16.969,7.348 -16.969,3.873 L -16.965,-0.078 z M -10.958,-16.853 C -14.432,-16.853 -16.985,-14.744 -16.985,-11.267 L -17.001,-6.642 L -27.388,-6.642 C -25.78,-17.32 -16.575,-25.507 -5.447,-25.507 C 5.679,-25.507 14.902,-17.32 16.513,-6.642 L 6.086,-6.66 L 6.085,-10.529 C 6.085,-14.004 3.404,-16.853 -0.072,-16.853 L -10.958,-16.853 z M -5.447,-31.588 C -21.068,-31.588 -33.727,-18.927 -33.727,-3.306 C -33.727,12.313 -21.068,24.975 -5.447,24.975 C 10.173,24.975 22.834,12.313 22.834,-3.306 C 22.834,-18.927 10.173,-31.588 -5.447,-31.588" />
      </g>
      <g
         transform="matrix(0,1.25,1.25,0,376.59892,436.86072)"
         id="g2418">
        <path
           id="path2420"
           style="fill:#231f20;fill-opacity:1;fill-rule:evenodd;stroke:none"
           d="M 0,0 L -0.286,0.125 C -0.372,0.209 -0.501,0.707 -0.755,0.91 C -1.008,1.103 -10.383,5.246 -10.383,5.246 L -10.447,5.5 L -1.711,9.304 C -1.135,9.558 -0.747,9.73 -0.606,9.876 C -0.472,10.029 -0.309,10.41 -0.286,10.666 C -0.274,10.818 -0.053,10.73 -0.053,10.73 L -0.059,6.55 C -0.059,6.55 -0.271,6.273 -0.378,6.55 C -0.444,6.72 -0.648,7.392 -1.075,7.5 C -1.264,7.546 -1.711,7.457 -2.221,7.265 C -2.58,7.132 -3.369,6.753 -3.519,6.541 C -3.652,6.351 -3.581,5.564 -3.602,4.841 C -3.621,4.183 -3.646,3.31 -3.497,3.035 C -3.311,2.689 -1.871,2.31 -1.647,2.228 C -1.43,2.152 -0.924,2.228 -0.775,2.419 C -0.526,2.738 -0.329,3.375 -0.264,3.607 L -0.01,3.671 L 0,0 z M -4.283,6.328 C -4.422,6.435 -5.202,6.041 -6.026,5.669 C -6.641,5.394 -7.835,4.927 -7.789,4.777 C -7.758,4.671 -6.812,4.289 -6.132,3.992 C -5.398,3.671 -4.479,3.283 -4.327,3.437 C -4.234,3.529 -4.176,4.246 -4.198,4.841 C -4.222,5.523 -4.153,6.232 -4.283,6.328 z M -2.227,-110.01 C -3.316,-109.788 -4.034,-110.032 -4.566,-110.668 C -4.819,-110.971 -5.203,-111.778 -5.203,-112.434 C -5.203,-113.338 -5.288,-113.932 -4.281,-113.932 L -1.823,-113.922 C -0.444,-113.922 -0.591,-112.2 -0.591,-112.2 C -0.591,-110.797 -1.4,-110.18 -2.227,-110.01 z M -0.4,-82.827 C -0.381,-82.811 -0.529,-82.295 -0.89,-82.059 C -1.081,-81.936 -1.342,-81.784 -1.994,-81.784 L -8.498,-81.784 C -8.902,-81.784 -9.291,-81.909 -9.455,-82.081 C -9.619,-82.247 -9.791,-82.512 -9.836,-83.1 C -9.836,-83.1 -10.114,-83.549 -10.239,-83.1 L -10.248,-79.17 C -10.248,-79.17 -10.135,-78.807 -9.964,-79.125 C -9.814,-79.409 -9.921,-79.659 -9.665,-79.887 C -9.488,-80.045 -9.141,-80.141 -8.588,-80.147 C -8.588,-80.147 -5.694,-80.147 -5.375,-80.147 C -5.247,-80.147 -5.059,-80.022 -5.055,-79.977 C -5.034,-79.766 -5.295,-79.637 -5.352,-79.53 C -5.714,-79.104 -6.422,-78.448 -6.989,-77.852 C -8.005,-76.784 -8.534,-76.245 -8.775,-76.067 C -9.092,-75.833 -9.539,-75.788 -9.689,-75.916 C -9.858,-76.067 -9.858,-76.385 -9.944,-76.661 C -9.944,-76.661 -10.114,-76.916 -10.219,-76.62 L -10.219,-73.112 C -10.219,-73.112 -9.901,-72.985 -9.816,-73.176 C -9.771,-73.661 -9.668,-73.84 -9.518,-74.131 C -9.375,-74.411 -8.97,-74.991 -8.477,-75.491 C -8.477,-75.491 -6.271,-78.055 -6.01,-77.958 C -5.608,-77.809 -3.874,-76.329 -2.485,-75.323 C -1.886,-74.891 -1.14,-74.463 -0.952,-74.217 C -0.78,-73.979 -0.421,-73.602 -0.421,-73.282 C -0.421,-72.911 -0.081,-73.09 -0.081,-73.09 C -0.081,-73.09 -0.156,-75.086 -0.124,-75.428 C -0.103,-75.663 -0.529,-75.944 -0.529,-75.944 C -1.548,-76.723 -4.672,-78.958 -4.865,-79.125 C -4.928,-79.211 -4.248,-80.125 -3.673,-80.147 L -1.782,-80.147 C -1.214,-80.147 -0.926,-80.014 -0.76,-79.85 C -0.486,-79.573 -0.4,-78.874 -0.421,-78.874 C -0.336,-78.551 -0.122,-78.766 -0.122,-78.766 L -0.122,-82.995 C -0.122,-82.995 -0.336,-83.143 -0.4,-82.827 z M -0.396,-95.93 C -0.506,-95.643 -0.834,-95.12 -1.059,-94.918 C -1.284,-94.727 -1.481,-94.581 -2.293,-94.581 C -2.293,-94.581 -7.223,-94.624 -7.946,-94.624 C -8.541,-94.624 -9.328,-94.833 -9.54,-95.11 C -9.754,-95.389 -9.887,-95.719 -9.901,-96.067 C -9.901,-96.067 -10.199,-96.342 -10.263,-96.045 L -10.263,-93.389 L -3.312,-87.096 C -3.312,-87.096 -3.008,-86.852 -3.078,-86.715 L -3.416,-86.657 C -3.949,-86.629 -8.037,-86.651 -8.037,-86.651 C -8.477,-86.651 -8.965,-86.567 -9.306,-86.864 C -9.741,-87.245 -9.818,-88.002 -9.901,-88.225 C -9.964,-88.395 -10.156,-88.395 -10.219,-88.204 L -10.219,-84.846 C -10.199,-84.612 -9.964,-84.78 -9.964,-84.78 C -9.858,-85.163 -9.774,-85.536 -9.54,-85.715 C -9.264,-85.928 -8.85,-86.038 -8.037,-86.038 L 0.061,-86.038 L 0.061,-86.319 C 0.061,-86.319 -7.446,-93.229 -7.86,-93.645 C -8.051,-93.834 -7.797,-93.899 -7.541,-93.899 C -7.287,-93.899 -2.377,-93.918 -2.377,-93.918 C -1.534,-93.918 -1.017,-93.749 -0.735,-93.211 C -0.624,-93.002 -0.489,-92.461 -0.444,-92.219 C -0.422,-92.114 -0.117,-92.061 -0.117,-92.061 L -0.117,-95.93 C -0.117,-95.93 -0.357,-96.032 -0.396,-95.93 z M -0.091,-107.393 L -0.378,-107.268 C -0.463,-107.182 -0.591,-106.682 -0.846,-106.481 C -1.102,-106.29 -10.475,-102.147 -10.475,-102.147 L -10.539,-101.889 L -1.803,-98.084 C -1.229,-97.831 -0.839,-97.663 -0.698,-97.512 C -0.563,-97.362 -0.4,-96.981 -0.378,-96.727 C -0.366,-96.573 -0.145,-96.661 -0.145,-96.661 L -0.039,-100.893 C -0.039,-100.893 -0.272,-101.04 -0.378,-100.764 C -0.444,-100.592 -0.74,-99.997 -1.166,-99.893 C -1.356,-99.844 -1.803,-99.936 -2.312,-100.127 C -2.672,-100.26 -3.461,-100.635 -3.61,-100.848 C -3.744,-101.038 -3.673,-101.827 -3.694,-102.549 C -3.715,-103.209 -3.738,-104.081 -3.588,-104.354 C -3.402,-104.702 -1.964,-105.083 -1.74,-105.163 C -1.522,-105.239 -1.017,-105.163 -0.869,-104.973 C -0.619,-104.651 -0.421,-104.016 -0.358,-103.782 L -0.103,-103.719 L -0.091,-107.393 z M -4.375,-101.061 C -4.515,-100.958 -5.293,-101.35 -6.117,-101.719 C -6.734,-101.999 -7.928,-102.463 -7.882,-102.614 C -7.848,-102.721 -6.905,-103.102 -6.225,-103.401 C -5.488,-103.723 -4.571,-104.108 -4.417,-103.952 C -4.327,-103.86 -4.27,-103.143 -4.289,-102.549 C -4.314,-101.868 -4.244,-101.157 -4.375,-101.061 z M -7.622,-110.518 C -8.307,-110.51 -8.939,-110.911 -9.306,-111.35 C -9.518,-111.604 -9.773,-112.092 -9.773,-112.645 C -9.773,-113.411 -9.668,-113.915 -8.944,-113.915 L -6.246,-113.922 C -5.608,-113.985 -5.77,-112.458 -5.77,-112.458 C -5.77,-111.178 -5.947,-110.541 -7.622,-110.518 z M -0.407,-116.961 C -0.548,-116.45 -0.674,-116.075 -0.869,-115.918 C -1.081,-115.749 -1.215,-115.69 -1.79,-115.682 L -8.6,-115.682 C -9.008,-115.686 -9.242,-115.791 -9.497,-116.026 C -9.996,-116.483 -9.668,-117.026 -9.858,-117.108 C -10,-117.172 -10.256,-117.153 -10.256,-117.153 L -10.256,-112.866 C -10.256,-111.639 -10.203,-110.827 -9.836,-110.096 C -9.559,-109.543 -8.902,-108.883 -7.911,-108.883 C -6.541,-108.883 -6.055,-109.989 -5.736,-110.434 C -5.502,-109.584 -5.012,-108.182 -3.418,-108.182 C -1.762,-108.182 -0.719,-109.096 -0.444,-109.967 C -0.252,-110.565 -0.139,-111.311 -0.132,-112.163 L -0.132,-116.961 L -0.407,-116.961 z M -0.316,-55.342 C -0.286,-55.342 -0.486,-54.811 -0.676,-54.577 C -0.815,-54.409 -1.096,-54.28 -1.762,-54.28 L -8.201,-54.258 C -8.739,-54.258 -8.988,-54.325 -9.286,-54.514 C -9.579,-54.706 -9.646,-55.174 -9.732,-55.725 C -9.732,-55.725 -10.029,-56.127 -10.151,-55.844 C -10.156,-55.875 -10.135,-52.862 -10.114,-51.411 C -10.09,-49.922 -10.235,-48.438 -10.135,-48.286 C -10.006,-48.094 -8.575,-48.196 -8.307,-48.159 C -8.159,-48.139 -7.856,-48.254 -7.839,-48.393 C -7.818,-48.563 -8.122,-48.604 -8.307,-48.604 C -8.69,-48.604 -9.133,-48.928 -9.242,-49.008 C -9.514,-49.213 -9.568,-49.604 -9.568,-49.793 L -9.568,-52.081 C -9.568,-52.284 -9.572,-52.342 -9.497,-52.411 C -9.429,-52.463 -9.26,-52.551 -9.05,-52.559 L -6.225,-52.559 C -6.055,-52.559 -5.814,-52.551 -5.778,-52.454 C -5.694,-52.217 -5.714,-50.69 -5.714,-50.69 C -5.714,-50.432 -5.97,-50.135 -6.117,-50.049 C -6.347,-49.918 -6.624,-49.698 -6.969,-49.583 C -7.159,-49.518 -7.309,-49.18 -6.883,-49.18 C -6.615,-49.18 -3.567,-49.135 -3.567,-49.135 C -3.333,-49.307 -3.631,-49.454 -3.631,-49.454 C -4.222,-49.569 -4.436,-49.672 -4.629,-49.86 C -4.823,-50.038 -5.055,-50.307 -5.055,-50.69 L -5.074,-52.006 C -5.118,-52.495 -4.587,-52.516 -4.396,-52.538 L -1.674,-52.559 C -1.4,-52.538 -1.032,-52.473 -0.869,-52.303 C -0.719,-52.131 -0.411,-51.696 -0.358,-51.114 C -0.336,-50.834 -0.024,-51.028 -0.024,-51.028 L -0.024,-55.45 C -0.024,-55.45 -0.166,-55.663 -0.316,-55.342 z M -9.008,-65.928 C -9.907,-64.987 -10.297,-63.625 -10.304,-62.25 C -10.304,-60.875 -10.089,-59.735 -9.179,-58.788 C -8.2,-57.77 -6.989,-57.241 -5.352,-57.233 C -3.694,-57.233 -2.342,-57.768 -1.357,-58.829 C -0.483,-59.77 0.036,-61.098 0.043,-62.444 C 0.043,-63.879 -0.344,-65.254 -1.315,-66.204 C -2.3,-67.161 -3.621,-67.514 -5.184,-67.522 C -6.812,-67.522 -8.014,-66.959 -9.008,-65.928 z M -1.612,-64.61 C -0.653,-63.766 -0.444,-63.184 -0.444,-62.018 C -0.444,-61.209 -0.92,-60.395 -1.674,-59.764 C -2.312,-59.233 -3.439,-58.977 -5.098,-58.977 C -6.765,-58.977 -7.875,-59.438 -8.647,-60.061 C -9.54,-60.784 -9.744,-61.567 -9.751,-62.463 C -9.751,-63.374 -9.518,-64.29 -8.838,-64.887 C -8.096,-65.538 -6.911,-65.833 -5.288,-65.842 C -3.681,-65.842 -2.143,-65.079 -1.612,-64.61 z M -0.4,-11.282 C -0.378,-11.282 -0.613,-10.602 -0.994,-10.346 C -1.235,-10.188 -1.462,-10.086 -2.27,-10.086 L -8.625,-10.176 C -9.115,-10.219 -9.457,-10.588 -9.54,-10.749 C -9.646,-10.961 -9.621,-11.309 -9.773,-11.495 C -9.773,-11.495 -10.09,-11.92 -10.156,-11.559 C -10.145,-11.586 -10.24,-8.987 -10.145,-8.952 C -9.964,-8.668 -5.459,-4.608 -3.524,-2.928 C -2.867,-2.375 -2.973,-2.163 -3.61,-2.186 L -8.369,-2.163 C -9.05,-2.163 -9.286,-2.504 -9.391,-2.651 C -9.612,-2.961 -9.773,-3.249 -9.862,-3.758 C -9.862,-3.758 -10.006,-4.182 -10.145,-3.758 L -10.145,-0.42 C -10.156,-0.186 -9.964,-0.186 -9.901,-0.42 C -9.901,-0.717 -9.661,-1.075 -9.435,-1.268 C -9.209,-1.463 -8.703,-1.559 -7.896,-1.559 L -0.124,-1.569 C 0.238,-1.588 0.047,-1.93 0.047,-1.93 C 0.047,-1.93 -6.862,-8.262 -7.706,-9.016 C -7.714,-9.026 -7.924,-9.133 -7.791,-9.317 C -7.709,-9.432 -7.669,-9.446 -7.479,-9.434 L -2.27,-9.415 C -1.432,-9.415 -0.973,-9.127 -0.719,-8.881 C -0.554,-8.723 -0.417,-8.463 -0.358,-7.903 C -0.378,-7.563 -0.021,-7.625 -0.021,-7.625 L -0.018,-11.514 C -0.018,-11.514 -0.316,-11.581 -0.4,-11.282 z M -0.296,-17.19 C -0.336,-17.041 -0.513,-16.719 -0.655,-16.53 C -0.798,-16.352 -1.081,-16.252 -1.679,-16.245 L -8.243,-16.213 C -8.669,-16.235 -9.179,-16.235 -9.391,-16.446 C -9.7,-16.756 -9.831,-17.102 -9.862,-17.733 C -9.862,-17.733 -10.006,-17.999 -10.145,-17.733 L -10.145,-13.512 C -10.09,-13.174 -9.862,-13.557 -9.862,-13.557 C -9.858,-13.895 -9.68,-14.168 -9.518,-14.299 C -9.286,-14.493 -8.809,-14.485 -8.455,-14.514 L -1.679,-14.514 C -1.088,-14.514 -0.74,-14.317 -0.591,-14.129 C -0.456,-13.952 -0.346,-13.737 -0.293,-13.11 C -0.23,-12.706 -0.018,-13.11 -0.018,-13.11 L -0.021,-17.19 C -0.124,-17.51 -0.296,-17.19 -0.296,-17.19 z M -0.336,-30.452 C -0.333,-30.479 -0.766,-29.817 -0.932,-29.668 C -1.088,-29.518 -1.351,-29.391 -2.015,-29.391 L -8.35,-29.348 C -8.896,-29.348 -9.202,-29.459 -9.412,-29.583 C -9.668,-29.731 -9.707,-30.077 -9.751,-30.645 C -9.751,-30.645 -9.944,-31.454 -10.135,-30.709 L -10.135,-26.735 C -10.114,-26.307 -9.862,-26.668 -9.862,-26.668 C -9.858,-26.989 -9.751,-27.245 -9.556,-27.405 C -9.374,-27.547 -9.05,-27.688 -8.487,-27.657 L -6.246,-27.657 C -6.246,-27.657 -5.714,-27.688 -5.736,-27.223 C -5.766,-26.54 -5.678,-23.487 -5.714,-23.016 C -5.756,-22.461 -6.096,-22.356 -6.352,-22.356 C -6.989,-22.334 -8.422,-22.356 -8.422,-22.356 C -8.968,-22.356 -9.384,-22.502 -9.556,-22.665 C -9.718,-22.831 -9.816,-23.196 -9.862,-23.766 C -9.921,-24.163 -10.145,-23.887 -10.145,-23.887 L -10.141,-19.657 C -10.141,-19.657 -9.901,-19.444 -9.858,-19.784 C -9.88,-20.125 -9.725,-20.264 -9.556,-20.434 C -9.391,-20.6 -9.039,-20.682 -8.487,-20.682 L -1.74,-20.676 C -1.186,-20.676 -1.01,-20.567 -0.846,-20.399 C -0.698,-20.235 -0.44,-20.053 -0.378,-19.487 C -0.336,-19.19 -0.039,-19.061 -0.018,-19.401 L 0.068,-23.27 C 0.068,-23.27 -0.166,-23.78 -0.358,-23.206 C -0.336,-23.206 -0.506,-22.76 -0.782,-22.588 C -0.968,-22.477 -1.462,-22.397 -1.803,-22.397 C -1.803,-22.397 -4.161,-22.375 -4.525,-22.375 C -4.778,-22.375 -5.118,-22.461 -5.055,-22.801 C -5.055,-22.801 -5.066,-26.948 -5.098,-27.286 C -5.118,-27.52 -4.992,-27.67 -4.545,-27.67 L -1.867,-27.67 C -1.315,-27.67 -0.862,-27.374 -0.698,-27.202 C -0.541,-27.036 -0.389,-26.729 -0.336,-26.159 C -0.272,-25.67 -0.018,-26.034 -0.018,-26.034 L -0.021,-30.555 C -0.021,-30.555 -0.25,-30.815 -0.336,-30.452 z M -9.858,-34.684 C -9.578,-34.145 -9.35,-33.706 -9.369,-33.471 C -9.384,-33.325 -9.68,-33.206 -9.858,-33.155 C -10.178,-32.918 -9.604,-32.834 -9.623,-32.834 L -6.756,-32.645 C -6.756,-32.645 -6.477,-32.834 -6.756,-33.026 C -7.436,-33.227 -8.185,-33.76 -8.583,-34.131 C -9.179,-34.684 -9.776,-35.684 -9.795,-36.747 C -9.816,-37.956 -9.319,-38.795 -8.541,-39.424 C -7.882,-39.956 -6.776,-40.274 -5.628,-40.274 C -4.27,-40.274 -2.694,-39.698 -1.93,-38.891 C -1.188,-38.108 -0.813,-37.27 -0.804,-36.17 C -0.804,-35.379 -1.019,-34.932 -1.4,-34.258 C -1.608,-33.877 -2.17,-33.36 -2.61,-32.899 C -2.844,-32.624 -2.525,-32.473 -2.525,-32.473 C -2.293,-32.43 -1.375,-33.309 -0.804,-34.024 C -0.378,-34.557 0.111,-35.938 0.111,-36.639 C 0.111,-38.282 0.025,-39.231 -1.272,-40.678 C -2.006,-41.495 -3.525,-41.952 -4.981,-41.961 C -6.469,-41.961 -7.718,-41.487 -8.733,-40.549 C -9.795,-39.561 -10.324,-38.276 -10.324,-36.676 C -10.324,-36.124 -10.135,-35.213 -9.858,-34.684" />
      </g>
      <g
         transform="matrix(0,1.25,1.25,0,281.05767,387.93197)"
         id="g2422">
        <path
           id="path2424"
           style="fill:#231f20;fill-opacity:1;fill-rule:evenodd;stroke:none"
           d="M 0,0 C -0.125,0.066 0.107,0.084 0.451,0.398 C 0.793,0.713 0.899,0.519 1.175,0.707 C 1.455,0.894 1.306,0.896 1.625,0.849 C 1.941,0.805 1.877,0.742 2.107,0.461 C 2.334,0.183 2.232,0.418 1.954,0.144 C 1.674,-0.127 1.274,0.111 1.037,-0.16 C 0.801,-0.434 0.801,-0.455 0.42,-0.389 C 0.039,-0.32 0.127,-0.067 0,0 z M 1.048,-1.074 C 0.965,-0.945 1.35,-0.717 1.755,-0.551 C 2.16,-0.389 2.074,-0.387 2.522,-0.244 C 2.971,-0.1 2.757,-0.141 3.176,-0.506 C 3.598,-0.873 3.548,-1.359 3.988,-1.852 C 4.428,-2.346 4.298,-2.559 4.611,-3.006 C 4.924,-3.455 4.819,-3.391 4.666,-3.77 C 4.513,-4.151 4.405,-4.127 4.09,-3.869 C 3.776,-3.613 3.945,-3.654 3.778,-3.463 C 3.609,-3.27 3.584,-3.693 3.416,-3.481 C 3.25,-3.266 3.482,-3.291 3.106,-2.947 C 2.727,-2.602 2.661,-2.705 2.43,-2.576 C 2.199,-2.447 1.925,-2.295 1.758,-1.93 C 1.594,-1.568 1.131,-1.201 1.048,-1.074 z M -7.998,1.719 C -8.059,1.846 -8.055,2.123 -8.01,2.418 C -7.982,2.592 -8.055,2.289 -8.087,3.035 C -8.103,3.416 -7.91,3.627 -7.715,3.965 C -7.257,4.756 -7.097,5.312 -6.847,5.482 C -6.636,5.627 -6.222,5.738 -5.911,5.682 C -5.658,5.637 -5.17,5.611 -4.898,5.287 C -4.662,5.01 -4.447,4.848 -4.31,4.709 C -4.184,4.578 -3.803,4.627 -3.721,4.402 C -3.617,4.127 -3.81,3.916 -3.814,3.578 C -3.82,3.215 -3.611,2.937 -3.719,2.832 C -3.797,2.756 -3.927,2.674 -4.018,2.541 C -4.105,2.414 -4.042,2.226 -4.193,2.203 C -4.428,2.164 -5.051,1.869 -5.281,1.642 C -5.367,1.558 -5.814,1.771 -5.961,1.652 C -6.112,1.525 -6.345,1.549 -6.493,1.529 C -6.648,1.51 -6.777,1.512 -6.939,1.514 C -7.087,1.516 -7.324,1.318 -7.513,1.414 C -7.639,1.48 -7.93,1.578 -7.998,1.719 z M -5.326,-1.719 C -5.73,-1.797 -5.617,-1.332 -5.846,-0.906 C -6.075,-0.477 -6.014,-0.692 -5.674,-0.567 C -5.332,-0.443 -5.652,-0.695 -5.187,-0.807 C -4.722,-0.916 -4.806,-0.916 -4.597,-1.217 C -4.391,-1.516 -4.621,-1.473 -4.857,-1.617 C -5.094,-1.762 -4.922,-1.637 -5.326,-1.719 z M -7.889,-6.813 C -8.088,-6.899 -8.776,-6.377 -10.498,-5 C -12.027,-3.776 -13.042,-1.234 -13.409,-0.19 C -13.489,0.033 -13.704,0.771 -13.758,1.025 C -13.797,1.217 -13.83,1.99 -13.892,2.172 C -14.014,2.535 -13.97,3.144 -14.027,3.256 C -14.154,3.521 -14.226,3.801 -14.292,4.109 C -14.367,4.463 -14.176,4.914 -14.236,5.234 C -14.351,5.855 -13.997,6.344 -13.814,6.691 C -13.184,7.892 -10.961,9.203 -9.703,9.697 C -8.445,10.191 -4.91,11.207 -2.021,11.385 C -0.166,11.5 4.684,11.43 5.427,11.359 C 6.75,11.23 9.857,11.176 10.451,11.084 C 11.168,10.974 12.403,10.891 12.845,10.631 C 13.662,10.15 15.119,8.197 15.503,7.775 C 15.819,7.432 17.104,5.955 17.093,5.783 C 17.078,5.57 16.641,5.322 16.19,4.859 C 15.383,4.035 14.625,1.887 14.127,0.98 C 13.635,0.09 13.364,-2.828 13.252,-4.611 C 13.173,-5.883 13.002,-7.832 12.852,-7.895 C 12.684,-7.965 12.742,-8.106 12.739,-8.299 C 12.738,-8.473 12.951,-8.49 13.033,-8.533 C 13.16,-8.6 13.098,-8.449 13.459,-8.516 C 13.819,-8.586 13.587,-8.414 13.885,-8.375 C 14.184,-8.334 14.057,-8.207 14.331,-8.317 C 14.606,-8.424 14.804,-7.875 15.102,-7.774 C 15.456,-7.652 15.91,-7.658 15.926,-8.037 C 15.945,-8.449 16.107,-8.809 15.954,-9.248 C 15.843,-9.567 14.855,-10.658 14.237,-10.713 C 13.711,-10.762 12.494,-10.834 12.114,-10.877 C 11.436,-10.955 9.649,-11.209 8.757,-11.281 C 7.864,-11.358 8.054,-11.443 7.695,-11.27 C 7.337,-11.096 7.283,-11.541 6.804,-11.387 C 6.463,-11.276 5.81,-11.418 5.385,-11.221 C 5.194,-11.133 5.194,-11.361 5,-11.344 C 4.744,-11.318 4.576,-11.295 4.323,-11.229 C 4.128,-11.176 3.898,-11.203 3.537,-11.219 C 3.176,-11.236 3.028,-11.234 2.774,-11.08 C 2.617,-10.988 2.539,-11.164 2.223,-11.139 C 2.039,-11.125 0.377,-10.904 -0.257,-10.813 C -0.889,-10.719 -2.577,-10.58 -2.799,-10.463 C -3.41,-10.137 -4.787,-9.951 -5.275,-9.817 C -5.789,-9.676 -6.25,-9.225 -6.646,-9.121 C -6.814,-9.076 -6.959,-8.801 -6.893,-8.693 C -6.805,-8.547 -6.359,-8.486 -6.191,-8.488 C -5.943,-8.492 -4.87,-8.656 -4.645,-8.762 C -4.371,-8.895 -3.378,-9.035 -3.226,-9.055 C -2.961,-9.096 -2.654,-9.106 -2.464,-9.129 C -2.273,-9.154 -2.019,-9.283 -1.809,-9.35 C -1.635,-9.402 -1.283,-9.307 -1.109,-9.359 C -0.876,-9.424 -0.726,-9.404 -0.538,-9.514 C -0.356,-9.617 -0.177,-9.455 -0.028,-9.52 C 0.155,-9.602 0.334,-9.44 0.543,-9.568 C 0.762,-9.703 0.811,-9.479 1.095,-9.553 C 1.436,-9.643 1.711,-9.627 1.878,-9.713 C 2.047,-9.799 2.27,-9.553 2.581,-9.637 C 3.004,-9.748 5.406,-9.672 5.89,-9.738 C 6.376,-9.809 7.904,-9.785 8.182,-9.727 C 8.373,-9.686 8.755,-9.67 8.734,-9.5 C 8.711,-9.289 8.024,-9.252 8.063,-9.047 C 8.086,-8.918 8.478,-9.002 8.741,-8.969 C 9.231,-8.91 8.814,-8.949 9.677,-8.832 C 10.252,-8.754 11.205,-8.852 11.504,-8.77 C 11.802,-8.69 12.076,-8.734 12.08,-8.416 C 12.084,-8.141 11.87,-8.244 11.598,-8.027 C 11.323,-7.813 11.283,-7.799 11.411,-7.623 C 11.519,-7.475 11.51,-6.436 11.452,-6.096 C 11.373,-5.656 11.01,-5.35 10.785,-5.047 C 10.514,-4.684 9.173,-3.268 8.566,-2.559 C 8.292,-2.238 7.244,-1.354 6.908,-1.01 C 6.353,-0.44 5.436,0.441 5.273,0.578 C 5.147,0.687 4.977,0.732 4.742,0.607 C 4.6,0.533 4.57,0.418 4.654,0.269 C 4.859,-0.098 5.47,-0.567 5.701,-0.932 C 6.102,-1.57 6.646,-2.373 6.908,-2.815 C 7.197,-3.305 7.529,-4.012 7.778,-4.459 C 8.102,-5.037 8.311,-5.686 8.357,-5.783 C 8.462,-5.996 8.524,-6.072 8.371,-6.27 C 8.243,-6.438 8.319,-6.387 7.778,-6.221 C 7.418,-6.109 7.026,-6.395 6.508,-5.992 C 6.172,-5.734 5.305,-5.49 4.801,-5.08 C 4.619,-4.934 3.633,-4.143 3.37,-3.981 C 3.161,-3.85 3.045,-3.59 2.974,-3.551 C 2.717,-3.42 2.403,-3.258 2.361,-3.182 C 2.221,-2.914 1.823,-2.645 1.774,-2.604 C 1.673,-2.514 1.607,-2.481 1.437,-2.535 C 1.372,-2.557 1.135,-2.693 1.327,-2.854 C 1.536,-3.024 1.596,-3.342 1.68,-3.471 C 1.834,-3.711 2.124,-3.647 2.141,-3.881 C 2.168,-4.225 1.607,-4.193 1.418,-4.149 C 1.195,-4.094 1.139,-4.272 0.906,-4.164 C 0.373,-3.912 0.315,-3.986 0.211,-3.92 C 0.104,-3.856 0.186,-3.797 0.023,-3.664 C -0.084,-3.578 -0.232,-3.744 -0.36,-3.639 C -0.614,-3.42 -0.918,-3.358 -1.055,-3.141 C -1.199,-2.906 -1.746,-2.496 -1.893,-2.453 C -2.075,-2.399 -2.26,-2.381 -2.445,-2.318 C -2.509,-2.295 -2.542,-2.537 -2.66,-2.633 C -2.789,-2.738 -2.873,-2.651 -3.106,-2.608 C -3.232,-2.584 -3.386,-2.836 -3.554,-2.834 C -3.746,-2.832 -3.83,-2.854 -3.812,-3.086 C -3.794,-3.32 -3.266,-3.83 -3.189,-4.238 C -3.11,-4.666 -3.412,-5.002 -3.832,-4.783 C -4.356,-4.514 -5.115,-3.877 -5.265,-3.748 C -5.48,-3.557 -5.684,-3.594 -5.897,-3.613 C -6.115,-3.633 -6.599,-3.83 -7.112,-3.895 C -7.409,-3.932 -8.51,-4.256 -8.643,-4.322 C -8.728,-4.363 -8.992,-4.459 -9.088,-4.211 C -9.13,-4.104 -8.894,-3.893 -8.68,-3.748 C -8.357,-3.527 -7.76,-3.186 -7.546,-3.084 C -7.281,-2.955 -7.01,-2.832 -6.801,-2.774 C -6.65,-2.734 -6.374,-2.631 -6.349,-2.418 C -6.327,-2.209 -6.346,-2.078 -6.472,-1.949 C -6.685,-1.731 -7.129,-0.6 -7.299,-0.115 C -7.38,0.119 -7.422,0.248 -7.269,0.498 C -7.184,0.641 -6.692,0.812 -6.65,0.896 C -6.559,1.068 -6.582,1.15 -6.455,1.105 C -6.372,1.076 -6.414,1.105 -6.16,0.891 C -5.909,0.674 -5.821,0.863 -5.482,0.65 C -5.147,0.432 -4.684,0.256 -4.474,0.168 C -4.268,0.084 -4.18,-0.111 -4.031,-0.26 C -3.863,-0.434 -3.63,-0.373 -3.588,-0.457 C -3.459,-0.723 -3.5,-0.717 -3.316,-0.801 C -3.128,-0.887 -2.832,-0.934 -2.445,-0.725 C -2.254,-0.623 -2.21,-0.432 -2.06,-0.393 C -1.775,-0.315 -1.781,-0.119 -1.632,-0.014 C -1.373,0.164 -1.389,0.131 -1.224,0.234 C -0.926,0.424 -1.051,0.4 -0.881,0.635 C -0.774,0.781 -0.431,0.904 -0.259,1.07 C 0.02,1.346 0.236,1.701 0.537,1.953 C 0.778,2.156 0.9,2.162 1.112,2.137 C 1.47,2.098 1.261,2.178 1.513,2.047 C 1.702,1.951 1.959,2.041 2.086,2.039 C 2.321,2.037 2.489,2.035 2.701,1.885 C 2.91,1.732 3.457,1.303 3.668,1.215 C 3.843,1.142 4.026,1.082 4.112,1.168 C 4.232,1.283 4.285,1.377 4.182,1.527 C 3.991,1.799 2.668,2.605 1.783,3.295 C 1.313,3.664 0.057,4.422 -0.28,4.596 C -0.626,4.773 -1.277,5.308 -1.416,5.416 C -1.5,5.48 -1.498,5.67 -1.349,5.711 C -1.217,5.746 -1.073,5.687 -0.986,5.726 C -0.872,5.785 -0.942,5.937 -0.752,5.959 C -0.56,5.976 -0.475,5.996 -0.371,5.932 C -0.289,5.883 -0.245,6.051 -0.073,5.951 C 0.076,5.863 0.373,5.967 0.646,5.73 C 1.035,5.392 2.137,4.562 2.581,4.219 C 3.191,3.746 4.828,2.367 5.018,2.154 C 5.117,2.037 5.341,1.896 5.482,1.957 C 5.717,2.06 6.378,2.455 6.572,2.687 C 6.821,2.986 7.197,3.611 7.203,3.889 C 7.207,4.215 7.111,4.43 7.019,4.549 C 6.621,5.062 5.757,5.474 5.334,5.65 C 4.747,5.894 3.538,6.289 3.35,6.312 C 3.052,6.348 2.731,6.213 2.625,6.236 C 2.495,6.266 2.522,6.449 2.651,6.49 C 2.821,6.543 3.14,6.59 3.352,6.629 C 3.705,6.697 5.511,6.16 6.125,6.066 C 6.867,5.951 8.133,5.055 8.32,4.978 C 8.424,4.933 8.594,4.953 8.611,4.74 C 8.635,4.492 8.565,4.402 8.523,4.254 C 8.367,3.703 7.979,3.24 7.656,2.887 C 7.334,2.529 6.305,1.691 6.133,1.586 C 6.005,1.51 5.812,1.232 5.918,1.103 C 6.107,0.869 6.629,0.521 6.756,0.349 C 6.853,0.217 6.955,-0.041 7.109,-0.186 C 7.34,-0.401 7.635,-0.658 7.864,-0.914 C 8.035,-1.106 8.638,-1.924 8.785,-2.074 C 9.016,-2.309 9.393,-2.59 9.519,-2.762 C 9.645,-2.934 9.997,-3.51 10.188,-3.682 C 10.398,-3.875 10.827,-4.147 10.921,-4.371 C 10.982,-4.52 11.234,-4.713 11.363,-4.567 C 11.492,-4.42 11.268,-3.928 11.207,-3.611 C 11.159,-3.358 11.15,-2.973 11.133,-2.695 C 11.119,-2.527 10.941,-2.369 10.822,-1.973 C 10.721,-1.629 10.871,-1.399 10.831,-1.25 C 10.781,-1.065 10.708,-0.951 10.626,-0.652 C 10.536,-0.32 10.594,0.133 10.512,0.324 C 10.451,0.461 10.408,0.455 10.24,0.711 C 10.131,0.877 10.232,1.099 10.184,1.283 C 10.123,1.519 10.002,1.943 9.836,2.392 C 9.707,2.744 9.43,3.883 9.411,4.053 C 9.393,4.215 9.035,4.459 8.932,4.736 C 8.801,5.088 8.921,5.758 8.756,6.033 C 8.658,6.197 8.874,6.572 9.19,6.748 C 9.596,6.978 9.804,6.719 10.037,6.656 C 10.621,6.486 10.883,6.326 11.092,6.133 C 11.301,5.937 11.682,5.869 11.766,5.551 C 11.856,5.185 11.91,4.994 11.731,4.596 C 11.403,3.879 11.717,3.492 11.628,3.07 C 11.492,2.439 11.808,2.197 11.781,1.9 C 11.771,1.752 11.691,1.275 11.774,1.137 C 12.013,0.724 11.955,0.392 12.037,0.115 C 12.105,-0.117 12.33,-0.205 12.438,-0.08 C 12.624,0.139 12.81,0.869 12.774,1.465 C 12.719,2.418 12.922,3.117 12.949,3.5 C 12.987,4.07 13.299,4.471 13.303,4.748 C 13.306,5.06 13.456,5.191 13.545,5.508 C 13.605,5.719 13.68,5.973 13.659,6.207 C 13.641,6.463 13.834,6.656 13.793,6.756 C 13.65,7.141 13.684,7.142 13.631,7.353 C 13.592,7.523 13.147,7.869 12.984,8.103 C 12.774,8.404 12.187,9.027 11.828,9.156 C 11.462,9.291 11.301,9.334 10.834,9.465 C 10.442,9.58 10.411,9.41 9.776,9.564 C 9.227,9.701 8.334,9.562 7.995,9.672 C 7.78,9.74 7.677,9.719 7.486,9.783 C 7.229,9.873 7.038,9.785 6.936,9.769 C 6.807,9.75 6.533,9.945 6.364,9.945 C 6.217,9.947 6.086,9.781 5.791,9.891 C 5.418,10.027 5.026,9.92 4.901,10.027 C 4.774,10.135 4.561,9.906 4.369,9.971 C 4.082,10.07 2.903,10.078 2.291,10.016 C 1.526,9.943 0.486,10.058 0.104,10.086 C -0.09,10.099 -0.237,9.836 -0.406,9.922 C -0.636,10.041 -1,9.91 -1.297,9.871 C -1.694,9.818 -2.424,9.693 -2.869,9.676 C -3.633,9.648 -8.073,8.935 -9.208,8.48 C -10.809,7.844 -12.484,6.142 -12.789,5.447 C -13.082,4.783 -13.042,3.922 -13.049,3.373 C -13.055,2.947 -12.816,1.437 -12.389,0.096 C -12.008,-1.096 -11.418,-2.369 -11.172,-2.785 C -10.881,-3.276 -10.208,-3.834 -9.832,-4.203 C -9.421,-4.596 -8.934,-4.699 -8.714,-4.809 C -8.101,-5.111 -7.334,-4.805 -7.122,-4.742 C -6.76,-4.641 -6.505,-4.731 -6.443,-4.879 C -6.306,-5.211 -6.298,-5.07 -6.221,-5.688 C -6.196,-5.889 -6.375,-6.26 -6.524,-6.279 C -6.893,-6.326 -7.507,-6.649 -7.889,-6.813" />
      </g>
      <g
         transform="matrix(0,1.25,1.25,0,390.02892,387.72822)"
         id="g2426">
        <path
           id="path2428"
           style="fill:#231f20;fill-opacity:1;fill-rule:evenodd;stroke:none"
           d="M 0,0 C 0.194,-0.356 1.403,-1.44 1.527,-1.717 C 1.647,-1.985 1.352,-2.371 1.39,-2.606 C 1.487,-3.225 1.84,-4.698 2.03,-5.735 C 2.189,-6.604 2.729,-8.053 2.931,-8.44 C 3.075,-8.717 3.272,-8.727 3.417,-8.573 C 3.911,-8.047 4.149,-7.606 4.472,-7.354 C 4.691,-7.184 4.788,-7.444 5.149,-7.512 C 5.588,-7.596 7.668,-7.881 8.796,-7.748 C 9.78,-7.629 12.743,-7.114 13.559,-6.977 C 14.282,-6.86 15.27,-6.756 15.642,-6.664 C 16.163,-6.534 17.085,-6.723 17.296,-6.916 C 18.066,-7.627 19.203,-8.744 19.306,-9.043 C 19.462,-9.493 19.441,-10.084 19.097,-10.504 C 18.649,-11.051 17.836,-11.254 17.411,-11.418 C 16.679,-11.7 16.122,-12.504 15.712,-13.075 C 14.987,-14.075 13.87,-16.276 13.081,-16.606 C 12.969,-16.653 12.738,-16.729 12.657,-16.494 C 12.502,-16.053 13.048,-15.842 13.263,-15.547 C 13.672,-14.991 13.785,-14.514 13.916,-14.112 C 14.125,-13.481 14.404,-12.35 14.493,-12.082 C 14.706,-11.44 14.804,-11.11 14.64,-10.619 C 14.528,-10.287 13.483,-9.735 13.036,-9.707 C 11.956,-9.645 10.679,-9.891 10.149,-9.864 C 8.624,-9.785 8.339,-9.819 7.181,-9.659 C 6.333,-9.541 5.694,-9.768 5.313,-9.741 C 4.839,-9.709 4.145,-9.705 3.809,-9.575 C 3.525,-9.467 3.54,-9.815 3.612,-10.061 C 3.958,-11.233 4.502,-11.78 4.978,-12.793 C 5.309,-13.498 6.081,-14.758 6.263,-15.272 C 6.394,-15.629 6.892,-15.916 6.698,-16.125 C 6.479,-16.362 6.543,-16.698 6.158,-16.903 C 5.597,-17.205 5.079,-16.721 4.85,-16.334 C 4.548,-15.825 4.735,-15.36 3.969,-13.799 C 3.203,-12.241 2.184,-10.553 1.691,-9.295 C 1.206,-8.065 0.201,-4.713 0.097,-4.223 C -0.009,-3.737 -0.105,-2.672 -0.18,-2.502 C -0.469,-1.842 -0.461,-1.246 -0.5,-1.034 C -0.557,-0.741 -0.451,-0.315 -0.427,-0.059 C -0.396,0.25 -0.186,0.34 0,0 z M -3.663,-13.241 C -3.892,-12.791 -3.36,-12.67 -3.358,-12.52 C -3.353,-12.077 -3.302,-11.676 -3.487,-11.119 C -3.633,-10.694 -4.979,-8.004 -5.202,-7.09 C -5.581,-5.524 -6.195,-3.34 -6.145,-2.578 C -6.128,-2.321 -5.95,-2.303 -5.804,-2.561 C -5.64,-2.848 -5.235,-2.928 -5.006,-3.164 C -4.856,-3.317 -4.391,-3.254 -4.224,-3.387 C -4.018,-3.541 -3.909,-3.772 -3.913,-4.047 C -3.917,-4.475 -3.917,-4.516 -3.921,-4.789 C -3.925,-5.104 -3.524,-5.733 -3.469,-5.963 C -3.449,-6.047 -3.632,-6.264 -3.687,-6.469 C -3.819,-6.955 -3.085,-8.801 -2.771,-9.516 C -2.439,-10.262 -1.786,-11.588 -1.084,-12.252 C -0.812,-12.51 -0.304,-12.774 -0.544,-13.192 C -0.761,-13.575 -1.634,-13.731 -2.016,-13.832 C -2.348,-13.922 -3.339,-13.877 -3.663,-13.241 z M -14.134,-15.637 C -14.066,-15.235 -12.253,-14.493 -11.441,-14.077 C -11.177,-13.944 -10.755,-13.856 -10.079,-13.776 C -9.76,-13.737 -9.162,-13.448 -8.441,-13.522 C -8.082,-13.557 -7.434,-13.452 -7.128,-13.578 C -6.916,-13.668 -6.709,-14.008 -6.41,-14.01 C -6.234,-14.014 -5.841,-14.293 -5.674,-14.465 C -5.413,-14.737 -4.72,-14.903 -4.492,-15.077 C -4.073,-15.399 -4.087,-16.217 -3.921,-16.801 C -3.797,-17.229 -3.526,-17.744 -3.215,-18.192 C -2.901,-18.639 -2.622,-19.446 -2.24,-20.006 C -1.948,-20.434 -1.067,-21.313 -0.858,-21.571 C -0.715,-21.75 -0.473,-22.055 -0.224,-21.77 C 0.035,-21.475 -0.105,-20.647 0.397,-19.528 C 0.729,-18.789 1.181,-18.139 1.798,-17.764 C 2.31,-17.452 2.758,-17.606 2.964,-17.948 C 3.13,-18.223 3.624,-18.41 4.117,-19 C 4.369,-19.299 5.01,-19.516 5.419,-19.993 C 5.733,-20.358 7.139,-21.678 7.515,-22.182 C 7.726,-22.459 8.073,-22.455 8.239,-22 C 8.393,-21.578 9.317,-20.268 9.943,-19.836 C 10.605,-19.377 12.034,-19.174 13.198,-19.09 C 13.964,-19.035 15.125,-19.561 15.929,-19.782 C 16.329,-19.891 16.5,-19.971 16.407,-20.489 C 16.384,-20.621 16.071,-20.856 15.847,-21.075 C 15.527,-21.389 15.397,-21.827 15.158,-22.043 C 14.878,-22.295 14.719,-22.643 14.448,-22.819 C 14.127,-23.028 12.657,-23.004 12.006,-22.895 C 11.455,-22.805 11.067,-22.719 10.651,-22.582 C 10.314,-22.471 9.204,-22.256 9.122,-22.668 C 9.079,-22.903 9.556,-23.78 9.783,-24.248 C 10.036,-24.768 10.384,-25.36 10.679,-25.618 C 11.006,-25.907 11.458,-26.073 11.798,-26.119 C 12.13,-26.164 12.36,-26.399 12.28,-26.549 C 12.107,-26.864 12.255,-27.176 12.312,-27.399 C 12.393,-27.715 12.102,-27.926 11.961,-28.285 C 11.72,-28.899 11.906,-28.618 11.462,-29.151 C 11.182,-29.485 10.085,-30.233 9.311,-29.95 C 8.887,-29.797 8.693,-29.944 8.296,-29.512 C 7.326,-28.467 6.786,-28.059 5.632,-26.998 C 5.024,-26.44 4.037,-25.493 3.557,-24.912 C 3.362,-24.68 3.016,-24.463 2.609,-24.287 C 2.357,-24.178 1.899,-23.565 1.637,-23.957 C 1.357,-24.379 1.326,-24.922 1.452,-25.229 C 1.575,-25.526 1.232,-25.721 1.038,-26.073 C 0.864,-26.389 1.1,-26.741 0.922,-26.983 C 0.705,-27.278 0.554,-27.424 0.362,-27.696 C 0.181,-27.952 -0.079,-28.428 -0.558,-28.196 C -0.916,-28.022 -1.428,-28.166 -1.72,-27.78 C -2.095,-27.285 -2.473,-26.944 -2.766,-26.598 C -3.331,-25.934 -5.452,-24.104 -6.859,-22.877 C -8.341,-21.586 -11.864,-19.209 -12.809,-18.285 C -13.007,-18.09 -13.47,-18.174 -13.983,-17.188 C -14.294,-16.59 -14.216,-16.118 -14.134,-15.637" />
      </g>
      <g
         transform="matrix(0,1.25,1.25,0,334.71642,375.91072)"
         id="g2430">
        <path
           id="path2432"
           style="fill:#231f20;fill-opacity:1;fill-rule:evenodd;stroke:none"
           d="M 0,0 C 0.36,0.078 1.696,-0.237 2.837,-0.612 C 3.976,-0.987 4.357,-1.073 5.395,-1.407 C 5.856,-1.555 5.643,-1.854 5.834,-2.026 C 6.043,-2.219 5.666,-1.791 6.462,-2.608 C 6.944,-3.102 7.588,-4.145 7.904,-4.43 C 8.072,-4.578 7.984,-4.895 7.665,-4.957 C 7.455,-4.994 7.26,-4.993 6.836,-5.01 C 6.476,-5.022 6.031,-4.705 5.844,-4.635 C 5.547,-4.526 4.955,-4.348 4.573,-4.344 C 3.851,-4.336 2.886,-3.561 2.172,-2.957 C 1.458,-2.356 0,0 0,0 z M 11.308,-3.77 C 11.076,-3.45 11.693,-3.477 11.633,-3.178 C 11.596,-2.991 11.365,-2.834 11.217,-2.707 C 11.088,-2.6 10.997,-2.438 11.538,-2.328 C 11.836,-2.268 12.117,-2.213 12.323,-2.381 C 12.636,-2.639 13.17,-4.112 13.274,-4.366 C 13.347,-4.547 13.425,-4.604 13.058,-4.682 C 12.591,-4.782 12.342,-4.229 12.131,-4.203 C 11.743,-4.16 11.495,-4.032 11.308,-3.77 z M 17.84,-0.582 C 17.886,-0.284 17.451,0.484 17.201,0.806 C 17.017,1.037 17.289,1.25 17.521,1.121 C 17.77,0.98 18.362,0.472 18.637,0.365 C 18.797,0.3 18.909,0.127 18.865,0 C 18.781,-0.244 18.626,-0.59 18.495,-0.825 C 18.326,-1.121 17.797,-0.856 17.84,-0.582 z M 18.287,-7.42 C 18.053,-7.319 18.742,-6.725 18.832,-6.346 C 18.927,-5.938 19.119,-5.477 19.252,-4.971 C 19.433,-4.274 19.842,-3.535 20.209,-3.008 C 20.46,-2.647 20.558,-2.164 20.988,-1.744 C 21.148,-1.588 21.37,-1.643 21.517,-1.772 C 21.688,-1.92 21.896,-2.01 22.084,-2.289 C 22.574,-3.014 23.849,-5.428 24.121,-5.75 C 24.469,-6.16 24.276,-6.94 24.039,-7.194 C 23.831,-7.416 23.512,-7.651 23.079,-7.713 C 22.398,-7.811 21.125,-7.856 20.511,-7.807 C 19.931,-7.76 19.047,-7.748 18.287,-7.42 z M 18.638,-15.168 C 18.489,-15.166 18.138,-14.401 17.931,-13.975 C 17.731,-13.561 17.558,-13.184 17.52,-12.823 C 17.5,-12.641 17.658,-12.436 17.886,-12.508 C 18.244,-12.618 19.838,-14.272 20.467,-14.852 C 20.601,-14.975 20.123,-15.211 19.826,-15.225 C 19.485,-15.243 18.961,-15.172 18.638,-15.168 z M 15.099,-16.485 C 15.072,-16.248 15.412,-16.151 15.695,-16.344 C 15.885,-16.473 15.986,-16.832 15.878,-16.918 C 15.701,-17.059 15.54,-16.934 15.391,-16.721 C 15.264,-16.532 15.119,-16.655 15.099,-16.485 z M 8.841,-14.584 C 8.805,-14.16 9.005,-14.147 9.037,-14.119 C 9.168,-14.014 9.705,-13.784 9.892,-13.619 C 10.064,-13.473 10.261,-13.358 10.345,-13.116 C 10.387,-12.989 10.962,-12.975 11.217,-13 C 11.49,-13.026 11.603,-13.696 11.86,-14.026 C 12.029,-14.241 12.162,-14.366 12.344,-14.498 C 12.574,-14.672 12.701,-14.715 12.91,-14.952 C 13.084,-15.147 13.998,-14.909 14.416,-15.055 C 14.606,-15.121 14.588,-14.866 14.591,-14.653 C 14.593,-14.549 14.393,-14.512 14.276,-14.375 C 14.13,-14.202 13.793,-13.731 13.652,-13.496 C 13.546,-13.323 12.969,-13.547 12.91,-13.297 C 12.87,-13.125 13.497,-13.114 13.741,-13.008 C 13.933,-12.926 14.646,-12.651 14.933,-12.727 C 15.187,-12.795 15.469,-12.842 15.633,-12.926 C 15.799,-13.014 16.24,-14.039 16.679,-13.936 C 16.935,-13.875 16.576,-13.116 16.609,-12.727 C 16.635,-12.43 16.576,-11.864 16.581,-11.6 C 16.584,-11.348 16.961,-10.856 17.463,-10.573 C 17.72,-10.426 18.635,-11.471 19.336,-12.018 C 20.029,-12.557 21.805,-14.657 22.224,-15.086 C 22.44,-15.307 23.222,-15.162 23.326,-15.334 C 23.451,-15.541 23.328,-15.721 23.381,-15.948 C 23.422,-16.119 23.538,-16.414 23.736,-16.506 C 23.926,-16.592 24.076,-16.61 24.16,-16.446 C 24.268,-16.237 23.15,-14.016 22.189,-12.944 C 21.18,-11.821 19.631,-10.284 18.915,-9.719 C 18.37,-9.289 16.056,-9.452 13.791,-8.955 C 12.75,-8.729 9.387,-8.225 7.799,-7.866 C 5.985,-7.453 3.168,-6.034 2.752,-5.766 C 2.586,-5.659 2.421,-5.774 2.266,-5.674 C 2.098,-5.565 1.97,-5.522 2.145,-5.143 C 2.217,-4.989 2.511,-4.744 2.451,-4.596 C 2.309,-4.262 2.595,-4.768 1.421,-3.565 C 0.248,-2.362 -0.332,-1.207 -0.813,-0.565 C -1.294,0.076 -1.84,0.507 -1.984,0.828 C -2.102,1.091 -1.989,1.341 -1.72,1.439 C -1.444,1.543 -1.039,1.568 -0.533,1.425 C -0.215,1.336 0.23,1.101 0.902,0.814 C 1.168,0.701 2.515,0.353 3.25,0.107 C 3.982,-0.143 5.734,-0.436 6.042,-0.61 C 6.504,-0.868 6.617,-0.563 7.122,-0.746 C 7.285,-0.807 8.058,-1.145 8.493,-1.358 C 8.937,-1.577 10.33,-2.209 10.455,-2.338 C 10.615,-2.5 10.955,-2.387 11.092,-2.301 C 11.262,-2.2 11.625,-1.616 12.592,-1.217 C 12.889,-1.094 13.198,-1.133 13.521,-1.377 C 13.754,-1.549 13.974,-2.246 14.166,-2.637 C 14.413,-3.149 15.449,-5.2 16.015,-5.885 C 16.139,-6.035 16.107,-6.285 15.883,-6.223 C 15.481,-6.112 14.25,-6.246 13.825,-6.092 C 13.201,-5.866 13.446,-5.961 12.73,-5.442 C 12.348,-5.166 10.958,-4.592 10.266,-3.969 C 10.199,-3.909 9.843,-3.782 9.713,-3.983 C 9.605,-4.153 9.828,-4.364 9.896,-4.58 C 9.937,-4.707 10.255,-4.733 10.318,-4.881 C 10.412,-5.11 10.176,-5.33 10.352,-5.539 C 10.478,-5.69 11.084,-5.965 11.493,-6.02 C 11.662,-6.043 11.885,-6.332 11.997,-6.409 C 12.124,-6.496 12.675,-6.44 13.058,-6.487 C 13.52,-6.543 14.699,-6.979 15.193,-7.086 C 15.511,-7.153 16.219,-7.284 16.633,-7.25 C 16.869,-7.233 17.033,-7.127 16.998,-6.959 C 16.958,-6.766 16.631,-6.633 16.603,-6.444 C 16.562,-6.209 16.551,-5.448 16.639,-5.11 C 16.68,-4.952 16.878,-4.664 16.777,-4.155 C 16.721,-3.864 16.597,-3.414 16.601,-3.071 C 16.604,-2.731 16.603,-1.077 16.611,-0.375 C 16.615,-0.121 15.91,1.31 15.705,1.757 C 15.535,2.127 14.699,3.017 14.071,3.623 C 13.717,3.968 13.472,4.777 13.668,5.199 C 13.768,5.414 14.398,5.281 14.641,4.953 C 14.829,4.697 15.16,4.078 15.369,3.777 C 15.704,3.297 16.657,2.527 17.279,2.162 C 17.576,1.99 18.374,1.427 18.88,1.146 C 18.978,1.09 19.229,1.088 19.455,1.31 C 19.67,1.517 20.137,3.273 20.422,4.097 C 20.448,4.172 20.595,4.287 20.533,4.457 C 20.491,4.572 20.432,4.734 20.728,4.752 C 20.87,4.759 20.903,5.912 21,6.043 C 21.322,6.486 21.701,8.177 22.051,8.726 C 22.18,8.935 22.234,9 22.458,9.187 C 22.609,9.312 22.601,9.631 22.823,9.588 C 23.058,9.541 23.864,6.283 23.808,5.119 C 23.762,4.117 23.637,3.084 23.306,2.131 C 23.014,1.287 21.789,-0.332 21.787,-0.565 C 21.783,-0.948 21.869,-0.907 22.119,-1.164 C 22.189,-1.235 22.425,-1.368 22.603,-1.553 C 22.812,-1.766 23.549,-2.518 23.756,-2.67 C 24.051,-2.887 24.166,-3.397 24.422,-3.717 C 24.612,-3.953 25.115,-4.405 25.301,-4.684 C 25.646,-5.196 26.073,-5.838 26.238,-6.221 C 26.405,-6.612 26.153,-7.299 26.069,-7.875 C 25.978,-8.512 25.311,-9.289 24.731,-9.578 C 24.391,-9.752 23.538,-9.744 23.031,-9.834 C 22.691,-9.893 21.645,-9.623 21.506,-9.838 C 21.311,-10.131 21.533,-10.287 21.688,-10.432 C 21.939,-10.668 22.425,-10.952 22.946,-11.7 C 23.175,-12.032 23.336,-12.034 23.701,-12.41 C 23.974,-12.69 24.362,-13.342 24.744,-13.801 C 25.12,-14.252 25.349,-15.065 25.444,-15.592 C 25.478,-15.785 25.807,-16.315 25.94,-16.618 C 26.066,-16.895 26.373,-17.778 26.535,-18.323 C 26.637,-18.664 25.894,-18.825 25.383,-18.903 C 24.871,-18.981 24.344,-18.784 24.179,-18.483 C 23.9,-17.985 22.984,-17.196 22.522,-16.766 C 22.404,-16.657 22.127,-16.879 22.138,-17.08 C 22.171,-17.78 21.869,-18.223 21.869,-18.223 C 21.789,-17.711 21.762,-16.844 21.38,-16.539 C 21.32,-16.491 21.191,-16.346 21.02,-16.346 C 20.771,-16.342 20.711,-16.422 20.553,-16.444 C 20.432,-16.465 20.223,-16.301 20.107,-16.356 C 19.98,-16.416 19.679,-16.537 19.808,-16.754 C 20.07,-17.2 20.834,-17.967 21.232,-18.172 C 21.485,-18.301 21.76,-18.328 21.76,-18.328 C 21.887,-18.457 21.777,-18.688 21.777,-18.688 C 22.197,-19.096 22.91,-19.743 23.182,-20.063 C 23.386,-20.303 23.533,-20.629 23.405,-20.895 C 23.254,-21.209 22.593,-21.42 22.379,-21.561 C 22.187,-21.686 21.913,-21.512 21.787,-21.319 C 21.601,-21.03 21.207,-20.274 21.017,-20.059 C 20.811,-19.823 19.803,-18.813 19.617,-18.577 C 19.313,-18.2 18.973,-17.676 18.654,-17.377 C 18.423,-17.162 18.141,-17.428 18.27,-17.584 C 18.373,-17.713 18.328,-17.903 18.138,-17.987 C 17.656,-18.192 16.474,-18.623 16.028,-18.618 C 15.752,-18.616 15.599,-18.612 15.351,-18.504 C 14.591,-18.176 13.17,-17.09 12.91,-16.754 C 12.659,-16.434 12.421,-16.625 12.232,-16.723 C 11.996,-16.85 11.224,-17.477 10.948,-17.452 C 10.54,-17.414 10.174,-16.807 9.755,-16.205 C 9.337,-15.608 8.877,-15.006 8.841,-14.584 z M 2.478,-12.553 C 2.162,-12.401 2.09,-11.36 2.181,-10.893 C 2.264,-10.473 3.093,-9.967 3.488,-9.807 C 3.745,-9.703 4.285,-9.526 4.488,-9.606 C 4.763,-9.715 4.762,-10.155 4.88,-10.586 C 4.92,-10.739 5.064,-11.139 5.209,-11.418 C 5.395,-11.782 5.785,-12.225 5.939,-12.383 C 6.106,-12.555 6.183,-12.842 6.145,-12.981 C 6.122,-13.065 5.88,-13.061 5.721,-12.91 C 5.426,-12.631 4.604,-12.282 4.285,-12.362 C 4.121,-12.405 4.049,-12.571 3.539,-12.586 C 3.283,-12.594 2.744,-12.68 2.478,-12.553 z M -3.232,-12.696 C -3.274,-12.526 -2.983,-12.409 -2.865,-12.147 C -2.777,-11.957 -2.605,-11.875 -2.604,-11.684 C -2.6,-11.422 -2.195,-11.414 -2.067,-11.266 C -1.96,-11.141 -1.557,-10.973 -1.426,-10.828 C -1.276,-10.662 -1.082,-10.598 -0.954,-10.432 C -0.814,-10.25 -0.336,-10.196 -0.063,-10.42 C 0.146,-10.592 0.432,-10.868 0.542,-11.235 C 0.643,-11.577 0.671,-12.325 0.928,-12.744 C 1.136,-13.088 1.639,-13.723 2.015,-14.077 C 2.728,-14.743 3.971,-15.5 5.025,-16.106 C 5.739,-16.52 8.374,-18.059 9.408,-18.516 C 9.84,-18.707 11.937,-19.688 12.699,-20.041 C 13.691,-20.5 15.853,-21.619 16.433,-21.848 C 17.215,-22.157 17.873,-21.977 18.17,-22.188 C 18.443,-22.381 18.418,-22.766 18.245,-22.994 C 18.072,-23.227 17.724,-23.594 17.367,-23.686 C 17.047,-23.764 16.303,-23.598 15.926,-23.496 C 15.672,-23.432 15.5,-23.293 15.4,-23.088 C 15.338,-22.961 15.397,-22.743 15.322,-22.557 C 15.264,-22.414 14.25,-21.801 13.679,-21.496 C 12.926,-21.094 10.669,-20.028 10.136,-19.776 C 9.81,-19.625 8.428,-19.01 7.584,-18.559 C 7.057,-18.276 3.254,-16.893 2.326,-16.223 C 2.114,-16.069 0.605,-15.356 -0.075,-14.92 C -0.686,-14.53 -3.172,-12.955 -3.232,-12.696" />
      </g>
      <g
         transform="matrix(0,1.25,1.25,0,243.83767,402.74072)"
         id="g2434">
        <path
           id="path2436"
           style="fill:#231f20;fill-opacity:1;fill-rule:evenodd;stroke:none"
           d="M 0,0 C 0,0.125 0.106,0.209 0.319,0.249 C 0.615,0.305 0.614,0.268 0.867,0.305 C 1.12,0.346 1.184,0.249 1.393,0.299 C 1.647,0.36 1.788,0.334 2.047,0.354 C 2.491,0.393 2.89,0.407 3.164,0.321 C 3.436,0.231 3.522,0.336 3.796,0.334 C 4.048,0.329 4.445,0.182 4.825,0.153 C 5.141,0.127 5.464,0.438 5.841,0.434 C 6.073,0.432 6.071,0.329 6.049,0.116 C 6.024,-0.115 5.873,-0.388 5.683,-0.47 C 5.492,-0.552 4.857,-0.798 4.626,-0.794 C 4.373,-0.791 3.911,-0.718 3.616,-0.677 C 3.3,-0.63 2.923,-0.708 2.624,-0.707 C 2.266,-0.701 1.891,-0.277 1.533,-0.271 C 1.176,-0.267 1.134,-0.351 0.69,-0.345 C 0.248,-0.339 -0.003,-0.169 0,0 z M -16.373,3.467 C -16.608,3.45 -17.124,4.29 -17.392,4.702 C -17.64,5.083 -17.986,5.377 -18.16,5.702 C -18.406,6.168 -18.329,6.59 -18.314,6.862 C -18.288,7.284 -18.513,7.795 -18.237,8.022 C -17.98,8.227 -17.771,8.167 -17.476,8.096 C -17.245,8.04 -15.342,6.827 -14.656,6.247 C -13.934,5.645 -12.223,4.153 -12.133,4.006 C -12.029,3.834 -12.281,3.698 -12.642,3.655 C -12.959,3.614 -13.226,3.571 -13.38,3.641 C -13.569,3.727 -13.69,3.622 -13.863,3.584 C -14.055,3.545 -14.753,3.354 -15.278,3.391 C -15.659,3.415 -16.038,3.495 -16.373,3.467 z M -10.302,-6.574 C -10.431,-6.519 -10.716,-5.958 -10.922,-5.705 C -11.068,-5.527 -11.358,-5.087 -11.503,-4.917 C -11.922,-4.427 -11.842,-4.49 -12.146,-4.044 C -12.291,-3.833 -12.394,-3.537 -11.951,-3.498 C -11.423,-3.455 -10.476,-3.517 -10.138,-3.5 C -9.801,-3.484 -9.718,-3.57 -9.444,-3.593 C -9.21,-3.613 -9.084,-3.513 -8.937,-3.494 C -8.789,-3.472 -8.747,-3.525 -8.475,-3.562 C -8.306,-3.585 -8.051,-3.462 -7.759,-3.613 C -7.464,-3.763 -6.822,-4.574 -6.74,-4.828 C -6.659,-5.082 -7.12,-4.906 -7.42,-5.324 C -7.721,-5.744 -8.144,-5.843 -8.441,-6.029 C -8.81,-6.257 -8.99,-6.191 -9.312,-6.46 C -9.628,-6.732 -9.946,-6.726 -10.302,-6.574 z M -15.398,-11.882 C -15.479,-11.623 -14.49,-11.115 -13.955,-10.619 C -13.421,-10.121 -12.747,-9.377 -12.611,-9.224 C -12.461,-9.058 -11.866,-8.664 -11.863,-8.515 C -11.863,-8.437 -12.276,-7.957 -12.548,-7.56 C -12.837,-7.134 -13.494,-6.171 -13.688,-5.878 C -13.844,-5.642 -14.378,-4.908 -14.724,-4.457 C -15.069,-4.003 -15.708,-3.021 -15.8,-2.988 C -15.855,-2.968 -16.074,-3.007 -16.494,-2.853 C -16.751,-2.759 -16.865,-2.964 -16.919,-2.974 C -17.023,-2.994 -17.337,-2.865 -17.505,-2.841 C -17.819,-2.794 -18.467,-2.871 -18.601,-2.828 C -18.937,-2.72 -19.639,-2.681 -19.843,-2.666 C -20.419,-2.617 -20.666,-2.685 -20.896,-2.611 C -21.663,-2.363 -22.283,-2.339 -22.853,-2.396 C -23.334,-2.443 -23.38,-2.556 -24.117,-2.423 C -24.781,-2.3 -25.491,-1.695 -25.81,-1.421 C -26.021,-1.24 -26.056,-0.691 -25.65,-0.277 C -25.497,-0.121 -25.328,0.247 -24.964,0.6 C -24.615,0.944 -23.823,1.584 -23.623,1.807 C -23.301,2.161 -22.429,2.844 -21.877,3.282 C -21.455,3.614 -20.691,3.793 -20.415,3.833 C -20,3.891 -19.447,3.801 -19.393,4.084 C -19.314,4.489 -19.997,5.282 -20.236,6.549 C -20.393,7.389 -20.355,8.762 -20.345,9.668 C -20.339,10.069 -20.377,10.85 -20.188,10.915 C -19.845,11.034 -18.802,10.827 -17.64,10.309 C -16.613,9.854 -16.416,9.604 -15.759,9.086 C -15.214,8.659 -14.873,8.596 -13.856,7.819 C -12.874,7.069 -11.439,5.577 -11.161,5.868 C -10.924,6.118 -11.277,6.858 -10.726,6.981 C -10.282,7.081 -9.994,6.592 -9.554,6.418 C -8.941,6.176 -8.499,6.321 -8.234,5.77 C -7.989,5.264 -8.074,4.967 -7.866,4.649 C -7.619,4.266 -6.984,4.411 -6.524,4.168 C -5.708,3.737 -4.927,3.959 -4.267,3.696 C -3.275,3.299 -3.663,3.395 -2.63,3.069 C -2.408,2.999 -1.273,2.84 -0.874,2.75 C -0.535,2.674 -0.263,2.415 -0.141,2.407 C 0.207,2.375 1.106,2.204 1.206,2.219 C 1.334,2.239 1.501,2.002 1.73,2.024 C 1.941,2.043 2.473,1.817 2.844,1.778 C 4.306,1.624 4.5,1.754 5.311,1.811 C 6.123,1.868 6.3,1.715 6.516,1.627 C 6.711,1.551 6.758,1.245 6.819,1.034 C 6.884,0.803 7.132,0.819 7.179,0.674 C 7.237,0.502 7.055,0.26 7.196,0.178 C 7.48,0.014 7.837,-0.16 7.855,-0.371 C 7.875,-0.589 7.745,-0.664 7.41,-0.726 C 7.321,-0.74 7.299,-0.953 7.112,-0.992 C 6.813,-1.054 6.996,-1.121 6.503,-1.388 C 6.091,-1.613 5.946,-1.421 5.577,-1.447 C 5.291,-1.464 5.033,-1.845 4.585,-1.748 C 4.344,-1.697 3.856,-1.761 3.454,-1.812 C 2.989,-1.869 2.665,-1.886 2.547,-1.886 C 2.332,-1.882 2.541,-1.953 1.872,-1.898 C 1.283,-1.849 0.797,-2.033 0.628,-2.031 C 0.416,-2.029 0.268,-2.111 0.265,-2.279 C 0.264,-2.414 0.34,-2.484 0.677,-2.554 C 1.014,-2.628 1.688,-2.636 2.094,-2.595 C 2.475,-2.556 3.533,-2.32 3.87,-2.302 C 4.319,-2.279 4.102,-2.326 4.712,-2.314 C 5.01,-2.308 5.75,-2.167 6.156,-2.062 C 6.562,-1.953 6.545,-1.718 6.828,-1.642 C 7.123,-1.562 7.379,-1.48 7.548,-1.376 C 7.766,-1.244 7.891,-0.728 8.018,-0.792 C 8.173,-0.873 8.478,-1.093 8.497,-1.263 C 8.534,-1.603 7.833,-2.224 7.525,-2.347 C 6.975,-2.568 5.003,-2.718 4.286,-2.833 C 3.076,-3.033 2.545,-3.24 1.202,-3.386 C -0.193,-3.537 -3.829,-3.873 -4.6,-3.863 C -5.106,-3.857 -5.279,-4.191 -5.288,-4.375 C -5.3,-4.597 -5.064,-4.88 -4.823,-4.898 C -4.529,-4.917 -3.835,-4.849 -3.71,-5.16 C -3.608,-5.414 -4.115,-7.218 -5.038,-8.621 C -6.55,-10.914 -10.304,-11.728 -11.023,-12.107 C -11.997,-12.623 -14.027,-12.636 -14.42,-12.531 C -14.823,-12.421 -15.281,-12.267 -15.398,-11.882" />
      </g>
    </g>
  </g>
</svg>
