<?xml version="1.0" encoding="utf-8"?>
<!-- Generator: Adobe Illustrator 14.0.0, SVG Export Plug-In . SVG Version: 6.00 Build 43363)  -->
<!DOCTYPE svg PUBLIC "-//W3C//DTD SVG 1.1//EN" "http://www.w3.org/Graphics/SVG/1.1/DTD/svg11.dtd">
<svg version="1.1" id="Layer_1" xmlns="http://www.w3.org/2000/svg" xmlns:xlink="http://www.w3.org/1999/xlink" x="0px" y="0px"
	 width="250px" height="66px" viewBox="0 0 250 66" enable-background="new 0 0 250 66" xml:space="preserve">
<g>
	<rect fill="#C42A2A" width="250" height="66"/>
	<path fill="#231F20" d="M186.84,33.849c1.825,0,3.398-1.603,3.398-2.984c0-0.504-0.139-0.933-0.378-1.268
		c0.06,0.206,0.093,0.425,0.093,0.67c0,1.384-1.573,2.984-3.398,2.984c-1.148,0-1.693-0.464-1.813-0.508
		C185.127,33.414,185.871,33.849,186.84,33.849"/>
	<path fill="none" stroke="#231F20" stroke-width="0.1597" stroke-miterlimit="20" d="M186.84,33.849
		c1.825,0,3.398-1.603,3.398-2.984c0-0.504-0.139-0.933-0.378-1.268c0.06,0.206,0.093,0.425,0.093,0.67
		c0,1.384-1.573,2.984-3.398,2.984c-1.148,0-1.693-0.464-1.813-0.508C185.127,33.414,185.871,33.849,186.84,33.849z"/>
	<path fill="#231F20" d="M18.068,39.38c-5.127-0.02-8.539-1.46-10.333-2.615c1.917,1.872,5.445,3.193,10.625,3.213
		c2.189,0.007,4.521-0.226,6.797-0.677c0.237-0.272,0.477-0.545,0.701-0.804C23.268,39.081,20.576,39.38,18.068,39.38"/>
	<path fill="none" stroke="#231F20" stroke-width="0.1597" stroke-miterlimit="20" d="M18.068,39.38
		c-5.127-0.02-8.539-1.46-10.333-2.615c1.917,1.872,5.445,3.193,10.625,3.213c2.189,0.007,4.521-0.226,6.797-0.677
		c0.237-0.272,0.477-0.545,0.701-0.804C23.268,39.081,20.576,39.38,18.068,39.38z"/>
	<g>
		<path fill="#231F20" d="M21.477,59.448c-1.2,0.644-2.352,0.936-3.341,0.916c-1.227,0-1.88-0.398-2.41-0.685
			c1.07,1.494,3.432,1.76,6.039,0.365c1.625-0.862,3.6-2.383,5.854-4.48c-0.085-0.213-0.153-0.438-0.211-0.664
			C25.12,57.031,23.118,58.571,21.477,59.448"/>
		<path fill="none" stroke="#231F20" stroke-width="0.1597" stroke-miterlimit="20" d="M21.477,59.448
			c-1.2,0.644-2.352,0.936-3.341,0.916c-1.227,0-1.88-0.398-2.41-0.685c1.07,1.494,3.432,1.76,6.039,0.365
			c1.625-0.862,3.6-2.383,5.854-4.48c-0.085-0.213-0.153-0.438-0.211-0.664C25.12,57.031,23.118,58.571,21.477,59.448z"/>
	</g>
	<path fill="#231F20" d="M141.228,51.694c-4.072,2.914-7.793,4.447-10.761,4.447c-1.706,0-2.657-0.684-2.864-0.776
		c0.629,0.803,1.649,1.374,3.156,1.374c2.968,0,6.686-1.54,10.761-4.441c1.388,0.193,4.488-0.033,7.355-1.759
		c-0.046-0.232-0.083-0.472-0.1-0.704C145.854,51.668,142.648,51.9,141.228,51.694"/>
	<path fill="none" stroke="#231F20" stroke-width="0.1597" stroke-miterlimit="20" d="M141.228,51.694
		c-4.072,2.914-7.793,4.447-10.761,4.447c-1.706,0-2.657-0.684-2.864-0.776c0.629,0.803,1.649,1.374,3.156,1.374
		c2.968,0,6.686-1.54,10.761-4.441c1.388,0.193,4.488-0.033,7.355-1.759c-0.046-0.232-0.083-0.472-0.1-0.704
		C145.854,51.668,142.648,51.9,141.228,51.694z"/>
	<path fill="#231F20" d="M166.42,51.521c-4.308,3.326-7.302,4.68-10.329,4.68c-2.276,0-3.79-0.982-4.148-1.188
		c1.009,1.068,2.482,1.785,4.44,1.785c3.027,0,6.021-1.354,10.323-4.68c0.325-0.259,0.663-0.538,1.022-0.83
		c0.02-0.318,0.066-0.644,0.159-0.962C167.363,50.758,166.872,51.156,166.42,51.521"/>
	<path fill="none" stroke="#231F20" stroke-width="0.1597" stroke-miterlimit="20" d="M166.42,51.521
		c-4.308,3.326-7.302,4.68-10.329,4.68c-2.276,0-3.79-0.982-4.148-1.188c1.009,1.068,2.482,1.785,4.44,1.785
		c3.027,0,6.021-1.354,10.323-4.68c0.325-0.259,0.663-0.538,1.022-0.83c0.02-0.318,0.066-0.644,0.159-0.962
		C167.363,50.758,166.872,51.156,166.42,51.521z"/>
	<path fill="#231F20" d="M46.299,24.604h-0.35c-0.1,0.657-0.317,1.395-0.813,2.287c0.163,0.06,0.33,0.126,0.5,0.189
		C46.115,26.105,46.254,25.318,46.299,24.604"/>
	<path fill="none" stroke="#231F20" stroke-width="0.1597" stroke-miterlimit="20" d="M46.299,24.604h-0.35
		c-0.1,0.657-0.317,1.395-0.813,2.287c0.163,0.06,0.33,0.126,0.5,0.189C46.115,26.105,46.254,25.318,46.299,24.604z"/>
	<path fill="#231F20" d="M110.771,51.939c-3.361,2.662-5.39,4.262-7.91,4.262c-1.331,0-2.277-0.563-2.426-0.617
		c0.46,0.704,1.294,1.215,2.715,1.215c2.522,0,4.552-1.606,7.909-4.262c0,0,0.619-0.491,1.482-1.188
		c0.013-0.318,0.058-0.637,0.139-0.949C111.604,51.282,110.771,51.939,110.771,51.939"/>
	<path fill="none" stroke="#231F20" stroke-width="0.1597" stroke-miterlimit="20" d="M110.771,51.939
		c-3.361,2.662-5.39,4.262-7.91,4.262c-1.331,0-2.277-0.563-2.426-0.617c0.46,0.704,1.294,1.215,2.715,1.215
		c2.522,0,4.552-1.606,7.909-4.262c0,0,0.619-0.491,1.482-1.188c0.013-0.318,0.058-0.637,0.139-0.949
		C111.604,51.282,110.771,51.939,110.771,51.939z"/>
	<path fill="#231F20" d="M117.916,56.201c-1.771,0-2.838-0.736-3.083-0.855c0.694,0.889,1.839,1.453,3.372,1.453
		c1.806,0,4.343-1.261,7.379-3.631c-0.082-0.219-0.149-0.438-0.204-0.664C122.304,54.921,119.741,56.201,117.916,56.201"/>
	<path fill="none" stroke="#231F20" stroke-width="0.1597" stroke-miterlimit="20" d="M117.916,56.201
		c-1.771,0-2.838-0.736-3.083-0.855c0.694,0.889,1.839,1.453,3.372,1.453c1.806,0,4.343-1.261,7.379-3.631
		c-0.082-0.219-0.149-0.438-0.204-0.664C122.304,54.921,119.741,56.201,117.916,56.201z"/>
	<path fill="#231F20" d="M192.051,43.131c0.047-0.306,0.087-0.631,0.126-0.949c-2.356,1.978-5.417,4.898-7.773,7.03
		c0.226,0.065,0.438,0.165,0.624,0.285C187.198,47.525,189.867,44.996,192.051,43.131"/>
	<path fill="none" stroke="#231F20" stroke-width="0.1597" stroke-miterlimit="20" d="M192.051,43.131
		c0.047-0.306,0.087-0.631,0.126-0.949c-2.356,1.978-5.417,4.898-7.773,7.03c0.226,0.065,0.438,0.165,0.624,0.285
		C187.198,47.525,189.867,44.996,192.051,43.131z"/>
	<path fill="#231F20" d="M173.025,56.201c-1.818,0-2.748-0.703-2.994-0.816c0.704,0.896,1.853,1.414,3.286,1.414
		c1.945,0,4.083-1.215,7.256-3.604c-0.086-0.226-0.14-0.458-0.179-0.684C177.168,54.953,175.004,56.201,173.025,56.201"/>
	<path fill="none" stroke="#231F20" stroke-width="0.1597" stroke-miterlimit="20" d="M173.025,56.201
		c-1.818,0-2.748-0.703-2.994-0.816c0.704,0.896,1.853,1.414,3.286,1.414c1.945,0,4.083-1.215,7.256-3.604
		c-0.086-0.226-0.14-0.458-0.179-0.684C177.168,54.953,175.004,56.201,173.025,56.201z"/>
	<path fill="#231F20" d="M37.44,60.557c-1.539,0-2.841-0.18-3.935-0.491c-1.057-0.306-2.494-0.937-3.171-1.354
		c1.363,1.388,3.701,2.443,7.397,2.443c8.925,0,15.042-4.515,21.888-10.011c0.013-0.246,0.057-0.564,0.166-0.963
		C52.757,55.843,46.563,60.557,37.44,60.557"/>
	<g>
		<path fill="none" stroke="#231F20" stroke-width="0.1597" stroke-miterlimit="20" d="M37.44,60.557
			c-1.539,0-2.841-0.18-3.935-0.491c-1.057-0.306-2.494-0.937-3.171-1.354c1.363,1.388,3.701,2.443,7.397,2.443
			c8.925,0,15.042-4.515,21.888-10.011c0.013-0.246,0.057-0.564,0.166-0.963C52.757,55.843,46.563,60.557,37.44,60.557z"/>
	</g>
	<path fill="#231F20" d="M79.42,55.339c-0.986,0.604-1.9,0.862-2.708,0.862c-1.054,0-1.758-0.364-2.3-0.663
		c1.009,1.327,2.974,1.839,5.294,0.392c1.207-0.744,4.332-3.24,6.34-4.866c-0.028-0.259-0.045-0.524-0.048-0.79
		C84.008,51.887,80.671,54.562,79.42,55.339"/>
	<path fill="none" stroke="#231F20" stroke-width="0.1597" stroke-miterlimit="20" d="M79.42,55.339
		c-0.986,0.604-1.9,0.862-2.708,0.862c-1.054,0-1.758-0.364-2.3-0.663c1.009,1.327,2.974,1.839,5.294,0.392
		c1.207-0.744,4.332-3.24,6.34-4.866c-0.028-0.259-0.045-0.524-0.048-0.79C84.008,51.887,80.671,54.562,79.42,55.339z"/>
	<path fill="#231F20" d="M64.996,56.201c-1.568,0-2.484-0.551-3.057-0.822c0.664,0.836,1.75,1.42,3.349,1.42
		c1.757,0,4.207-1.194,7.133-3.445c-0.082-0.212-0.138-0.444-0.179-0.677C69.265,54.986,66.78,56.201,64.996,56.201"/>
	<path fill="none" stroke="#231F20" stroke-width="0.1597" stroke-miterlimit="20" d="M64.996,56.201
		c-1.568,0-2.484-0.551-3.057-0.822c0.664,0.836,1.75,1.42,3.349,1.42c1.757,0,4.207-1.194,7.133-3.445
		c-0.082-0.212-0.138-0.444-0.179-0.677C69.265,54.986,66.78,56.201,64.996,56.201z"/>
	<path fill="#231F20" d="M91.629,56.201c-1.709,0-2.702-0.703-2.947-0.822c0.71,0.855,1.764,1.42,3.232,1.42
		c1.992,0,4.32-1.009,6.814-2.907c-0.088-0.213-0.159-0.425-0.211-0.657C95.992,55.18,93.637,56.201,91.629,56.201"/>
	<path fill="none" stroke="#231F20" stroke-width="0.1597" stroke-miterlimit="20" d="M91.629,56.201
		c-1.709,0-2.702-0.703-2.947-0.822c0.71,0.855,1.764,1.42,3.232,1.42c1.992,0,4.32-1.009,6.814-2.907
		c-0.088-0.213-0.159-0.425-0.211-0.657C95.992,55.18,93.637,56.201,91.629,56.201z"/>
	<path fill="#231F20" d="M154.631,52.644c0.046-0.451,0.166-0.963,0.375-1.566c9.297-1.779,15.179-6.107,15.179-9.301
		c0-0.551-0.159-1.009-0.412-1.381c0.08,0.232,0.12,0.498,0.12,0.783c0,3.193-5.882,7.515-15.176,9.308
		c-0.199,0.563-0.318,1.049-0.365,1.48C154.318,52.231,154.472,52.524,154.631,52.644"/>
	<path fill="none" stroke="#231F20" stroke-width="0.1597" stroke-miterlimit="20" d="M154.631,52.644
		c0.046-0.451,0.166-0.963,0.375-1.566c9.297-1.779,15.179-6.107,15.179-9.301c0-0.551-0.159-1.009-0.412-1.381
		c0.08,0.232,0.12,0.498,0.12,0.783c0,3.193-5.882,7.515-15.176,9.308c-0.199,0.563-0.318,1.049-0.365,1.48
		C154.318,52.231,154.472,52.524,154.631,52.644z"/>
	<path fill="#231F20" d="M185.015,38.981l-0.837,0.047c-2.024,2.396-9.141,10.827-11.086,13.476c-0.292,0.405-0.14,0.484,0.638,0.14
		C176.478,49.039,185.015,38.981,185.015,38.981"/>
	<path fill="none" stroke="#231F20" stroke-width="0.1597" stroke-miterlimit="20" d="M185.015,38.981l-0.837,0.047
		c-2.024,2.396-9.141,10.827-11.086,13.476c-0.292,0.405-0.14,0.484,0.638,0.14C176.478,49.039,185.015,38.981,185.015,38.981z"/>
	<path fill="#231F20" d="M130.391,52.909c0.113,0.007,0.159,0,0.309-0.007c1.644-2.403,6.426-7.654,11.461-13.854l-0.807,0.04
		c-5.021,6.141-9.685,11.259-11.109,13.463C130.096,52.776,130.175,52.902,130.391,52.909"/>
	<path fill="none" stroke="#231F20" stroke-width="0.1597" stroke-miterlimit="20" d="M130.391,52.909
		c0.113,0.007,0.159,0,0.309-0.007c1.644-2.403,6.426-7.654,11.461-13.854l-0.807,0.04c-5.021,6.141-9.685,11.259-11.109,13.463
		C130.096,52.776,130.175,52.902,130.391,52.909z"/>
	<path fill="#231F20" d="M150.004,40.94c0-0.545-0.159-0.982-0.396-1.321c0.06,0.219,0.104,0.458,0.104,0.724
		c0,1.553-1.72,4.414-4.541,7.527c0.472-0.219,0.989-0.504,1.547-0.862C148.779,44.479,150.004,42.248,150.004,40.94"/>
	<path fill="none" stroke="#231F20" stroke-width="0.1597" stroke-miterlimit="20" d="M150.004,40.94
		c0-0.545-0.159-0.982-0.396-1.321c0.06,0.219,0.104,0.458,0.104,0.724c0,1.553-1.72,4.414-4.541,7.527
		c0.472-0.219,0.989-0.504,1.547-0.862C148.779,44.479,150.004,42.248,150.004,40.94z"/>
	<path fill="#231F20" d="M234.716,40.934c0,0.491-0.1,1.009-0.266,1.533c0.173-0.126,0.551-0.358,0.71-0.478
		c0.113-0.811-0.119-1.222-0.577-1.926c0,0-0.007,0.007-0.007,0.014C234.669,40.343,234.716,40.621,234.716,40.934"/>
	<path fill="none" stroke="#231F20" stroke-width="0.1597" stroke-miterlimit="20" d="M234.716,40.934
		c0,0.491-0.1,1.009-0.266,1.533c0.173-0.126,0.551-0.358,0.71-0.478c0.113-0.811-0.119-1.222-0.577-1.926
		c0,0-0.007,0.007-0.007,0.014C234.669,40.343,234.716,40.621,234.716,40.934z"/>
	<path fill="#231F20" d="M204.65,52.656c0.047-0.491,0.166-1.028,0.339-1.6c9.287-1.785,15.009-6.061,15.009-9.273
		c0-0.505-0.146-0.976-0.418-1.381c0.08,0.246,0.126,0.505,0.126,0.783c0,3.213-5.888,7.508-15.175,9.301
		c-0.159,0.544-0.318,1.327-0.339,1.526C204.18,52.212,204.279,52.537,204.65,52.656"/>
	<path fill="none" stroke="#231F20" stroke-width="0.1597" stroke-miterlimit="20" d="M204.65,52.656
		c0.047-0.491,0.166-1.028,0.339-1.6c9.287-1.785,15.009-6.061,15.009-9.273c0-0.505-0.146-0.976-0.418-1.381
		c0.08,0.246,0.126,0.505,0.126,0.783c0,3.213-5.888,7.508-15.175,9.301c-0.159,0.544-0.318,1.327-0.339,1.526
		C204.18,52.212,204.279,52.537,204.65,52.656z"/>
	<path fill="#231F20" d="M196.346,47.174c0-1.819-0.352-3.605-0.352-6.028c0-0.584,0.239-0.65,0.724-0.81c0,0,2.35-0.438,2.35-2.098
		c0-0.372-0.126-0.684-0.325-0.916c0.021,0.1,0.033,0.206,0.033,0.318c0,1.66-2.343,2.104-2.35,2.104
		c-0.771,0.226-1.016,0.279-1.016,1.407c0,2.423,0.352,3.837,0.352,5.663c0,0.252,0,0.624-0.033,1.062
		c0.106-0.086,0.505-0.418,0.617-0.511C196.346,47.3,196.346,47.24,196.346,47.174"/>
	<path fill="none" stroke="#231F20" stroke-width="0.1597" stroke-miterlimit="20" d="M196.346,47.174
		c0-1.819-0.352-3.605-0.352-6.028c0-0.584,0.239-0.65,0.724-0.81c0,0,2.35-0.438,2.35-2.098c0-0.372-0.126-0.684-0.325-0.916
		c0.021,0.1,0.033,0.206,0.033,0.318c0,1.66-2.343,2.104-2.35,2.104c-0.771,0.226-1.016,0.279-1.016,1.407
		c0,2.423,0.352,3.837,0.352,5.663c0,0.252,0,0.624-0.033,1.062c0.106-0.086,0.505-0.418,0.617-0.511
		C196.346,47.3,196.346,47.24,196.346,47.174z"/>
	<path fill="#231F20" d="M65.856,29.434c0,3.485-2.574,8.213-10.061,9.839c0.221,0.166,0.425,0.339,0.626,0.524
		c7.226-1.692,9.727-6.334,9.727-9.77c0-0.793-0.167-1.583-0.486-2.32C65.678,27.851,65.856,28.737,65.856,29.434"/>
	<path fill="none" stroke="#231F20" stroke-width="0.1597" stroke-miterlimit="20" d="M65.856,29.434
		c0,3.485-2.574,8.213-10.061,9.839c0.221,0.166,0.425,0.339,0.626,0.524c7.226-1.692,9.727-6.334,9.727-9.77
		c0-0.793-0.167-1.583-0.486-2.32C65.678,27.851,65.856,28.737,65.856,29.434z"/>
	<path fill="#231F20" d="M117.967,52.776c0.196-0.06,0.403-0.126,0.618-0.213c0.035-0.039,0.064-0.079,0.096-0.119
		c2.617-3.365,10.067-12.108,11.139-13.396l-0.826,0.04c-2.039,2.423-8.26,9.745-10.601,12.752
		c-0.158,0.206-0.324,0.419-0.473,0.624C117.688,52.776,117.77,52.829,117.967,52.776"/>
	<path fill="none" stroke="#231F20" stroke-width="0.1597" stroke-miterlimit="20" d="M117.967,52.776
		c0.196-0.06,0.403-0.126,0.618-0.213c0.035-0.039,0.064-0.079,0.096-0.119c2.617-3.365,10.067-12.108,11.139-13.396l-0.826,0.04
		c-2.039,2.423-8.26,9.745-10.601,12.752c-0.158,0.206-0.324,0.419-0.473,0.624C117.688,52.776,117.77,52.829,117.967,52.776z"/>
	<path fill="#231F20" d="M89.236,39.048l-0.82,0.04c-2.118,2.549-9.944,11.962-9.944,11.962c-0.367,0.438-0.697,0.837-0.973,1.195
		c-0.104,0.133-0.033,0.226,0.11,0.126c0.39-0.266,0.863-0.604,1.386-1.009C80.538,49.51,89.236,39.048,89.236,39.048"/>
	<path fill="none" stroke="#231F20" stroke-width="0.1597" stroke-miterlimit="20" d="M89.236,39.048l-0.82,0.04
		c-2.118,2.549-9.944,11.962-9.944,11.962c-0.367,0.438-0.697,0.837-0.973,1.195c-0.104,0.133-0.033,0.226,0.11,0.126
		c0.39-0.266,0.863-0.604,1.386-1.009C80.538,49.51,89.236,39.048,89.236,39.048z"/>
	<path fill="#231F20" d="M65.064,52.77c0.192-0.053,0.4-0.119,0.607-0.206c2.627-3.451,10.088-12.142,11.23-13.516l-0.823,0.04
		c-2.232,2.643-9.333,10.946-11.176,13.522C64.711,52.883,64.89,52.816,65.064,52.77"/>
	<path fill="none" stroke="#231F20" stroke-width="0.1597" stroke-miterlimit="20" d="M65.064,52.77
		c0.192-0.053,0.4-0.119,0.607-0.206c2.627-3.451,10.088-12.142,11.23-13.516l-0.823,0.04c-2.232,2.643-9.333,10.946-11.176,13.522
		C64.711,52.883,64.89,52.816,65.064,52.77z"/>
	<path fill="#231F20" d="M123.802,27.021l-0.755,0.027c-6.875,9.171-16.188,21.042-18.668,24.925
		c-0.103,0.153-0.028,0.292,0.111,0.206c0.211-0.126,0.463-0.285,0.755-0.484C108.453,47.014,117.338,35.664,123.802,27.021"/>
	<path fill="none" stroke="#231F20" stroke-width="0.1597" stroke-miterlimit="20" d="M123.802,27.021l-0.755,0.027
		c-6.875,9.171-16.188,21.042-18.668,24.925c-0.103,0.153-0.028,0.292,0.111,0.206c0.211-0.126,0.463-0.285,0.755-0.484
		C108.453,47.014,117.338,35.664,123.802,27.021z"/>
	<path fill="#231F20" d="M237.179,51.946c2.177,0,5.264-1.892,5.987-3.08c0.332-0.524,0.199-0.93-0.093-1.155
		c-0.007,0.166-0.06,0.358-0.192,0.558c-0.737,1.188-3.811,3.08-5.988,3.08c-1.745,0-2.542-0.617-2.694-0.684
		C234.662,51.455,235.672,51.946,237.179,51.946"/>
	<path fill="none" stroke="#231F20" stroke-width="0.1597" stroke-miterlimit="20" d="M237.179,51.946
		c2.177,0,5.264-1.892,5.987-3.08c0.332-0.524,0.199-0.93-0.093-1.155c-0.007,0.166-0.06,0.358-0.192,0.558
		c-0.737,1.188-3.811,3.08-5.988,3.08c-1.745,0-2.542-0.617-2.694-0.684C234.662,51.455,235.672,51.946,237.179,51.946z"/>
	<path fill="#231F20" d="M224.625,55.512l-5.423,0.438c-0.206,0.239-0.392,0.465-0.571,0.664l6.286-0.498
		c2.55-2.47,5.231-5.012,7.614-7.043c-0.086-0.226-0.139-0.458-0.159-0.704C229.949,50.413,227.221,53.009,224.625,55.512"/>
	<path fill="none" stroke="#231F20" stroke-width="0.1597" stroke-miterlimit="20" d="M224.625,55.512l-5.423,0.438
		c-0.206,0.239-0.392,0.465-0.571,0.664l6.286-0.498c2.55-2.47,5.231-5.012,7.614-7.043c-0.086-0.226-0.139-0.458-0.159-0.704
		C229.949,50.413,227.221,53.009,224.625,55.512z"/>
	<path fill="#231F20" d="M215.936,51.747c-2.914,2.271-6.379,4.454-10.017,4.454c-2.218,0-3.798-0.995-4.176-1.215
		c1.028,1.089,2.529,1.813,4.461,1.813c3.645,0,7.103-2.184,10.018-4.461c2.947-2.29,8.265-7.515,12.009-10.13
		c0.537-0.624,1.009-1.182,1.387-1.633C225.979,42.46,219.361,49.079,215.936,51.747"/>
	<path fill="none" stroke="#231F20" stroke-width="0.1597" stroke-miterlimit="20" d="M215.936,51.747
		c-2.914,2.271-6.379,4.454-10.017,4.454c-2.218,0-3.798-0.995-4.176-1.215c1.028,1.089,2.529,1.813,4.461,1.813
		c3.645,0,7.103-2.184,10.018-4.461c2.947-2.29,8.265-7.515,12.009-10.13c0.537-0.624,1.009-1.182,1.387-1.633
		C225.979,42.46,219.361,49.079,215.936,51.747z"/>
	<path fill="#231F20" d="M186.534,56.201c-2.642,0-3.811-0.876-4.063-1.002c0.69,0.909,2.064,1.6,4.349,1.6
		c4.056,0,6.996-1.991,11.922-6.034c-0.046-0.239-0.093-0.491-0.119-0.736C193.598,54.17,190.637,56.201,186.534,56.201"/>
	<path fill="none" stroke="#231F20" stroke-width="0.1597" stroke-miterlimit="20" d="M186.534,56.201
		c-2.642,0-3.811-0.876-4.063-1.002c0.69,0.909,2.064,1.6,4.349,1.6c4.056,0,6.996-1.991,11.922-6.034
		c-0.046-0.239-0.093-0.491-0.119-0.736C193.598,54.17,190.637,56.201,186.534,56.201z"/>
	<g>
		<path fill="#231F20" d="M244.693,39.38c0.06,0.398-0.1,0.863-0.551,1.348c-0.545,0.598-1.48,1.262-4.953,3.227
			c-1.407,0.829-2.993,2.376-3.438,3.89c-0.04,0.166-0.013,0.292,0.146,0.313c0.06,0.006,0.126,0.013,0.206,0.013
			c0.013,0,0.026,0,0.033,0c0.537-1.427,2.018-2.841,3.346-3.611c3.472-1.972,4.4-2.635,4.952-3.232
			C245.138,40.568,245.138,39.864,244.693,39.38"/>
		<path fill="none" stroke="#231F20" stroke-width="0.1597" stroke-miterlimit="20" d="M244.693,39.38
			c0.06,0.398-0.1,0.863-0.551,1.348c-0.545,0.598-1.48,1.262-4.953,3.227c-1.407,0.829-2.993,2.376-3.438,3.89
			c-0.04,0.166-0.013,0.292,0.146,0.313c0.06,0.006,0.126,0.013,0.206,0.013c0.013,0,0.026,0,0.033,0
			c0.537-1.427,2.018-2.841,3.346-3.611c3.472-1.972,4.4-2.635,4.952-3.232C245.138,40.568,245.138,39.864,244.693,39.38z"/>
	</g>
	<path fill="#231F20" d="M214.661,40.137c-1.958,0.704-5.151,2.907-7.667,6.154c0.404-0.146,0.797-0.299,1.175-0.465
		c2.19-2.503,4.707-4.242,6.446-4.959c0.132-0.199,0.245-0.385,0.331-0.551C215.007,40.21,214.993,39.997,214.661,40.137"/>
	<path fill="none" stroke="#231F20" stroke-width="0.1597" stroke-miterlimit="20" d="M214.661,40.137
		c-1.958,0.704-5.151,2.907-7.667,6.154c0.404-0.146,0.797-0.299,1.175-0.465c2.19-2.503,4.707-4.242,6.446-4.959
		c0.132-0.199,0.245-0.385,0.331-0.551C215.007,40.21,214.993,39.997,214.661,40.137z"/>
	<path fill="#231F20" d="M164.9,40.11c-1.945,0.677-5.158,2.895-7.701,6.147c0.419-0.153,0.817-0.319,1.202-0.498
		c2.19-2.463,4.68-4.183,6.399-4.899C165.205,40.27,165.504,39.904,164.9,40.11"/>
	<path fill="none" stroke="#231F20" stroke-width="0.1597" stroke-miterlimit="20" d="M164.9,40.11
		c-1.945,0.677-5.158,2.895-7.701,6.147c0.419-0.153,0.817-0.319,1.202-0.498c2.19-2.463,4.68-4.183,6.399-4.899
		C165.205,40.27,165.504,39.904,164.9,40.11z"/>
	<path fill="#231F20" d="M104.239,40.343c0.017-0.252-0.239-0.285-0.473-0.285c-2.134,0-4.868,1.593-7.495,4.367
		c-2.67,2.875-4.622,6.267-5.033,8.053c-0.037,0.159,0.006,0.232,0.106,0.252c0.062,0.014,0.128,0.021,0.201,0.021
		c0.023,0,0.05-0.007,0.074-0.007c0.55-1.846,2.423-5.012,4.941-7.721c2.627-2.774,5.36-4.368,7.491-4.368
		c0.042,0,0.078,0.007,0.12,0.007C104.229,40.502,104.235,40.422,104.239,40.343"/>
	<path fill="none" stroke="#231F20" stroke-width="0.1597" stroke-miterlimit="20" d="M104.239,40.343
		c0.017-0.252-0.239-0.285-0.473-0.285c-2.134,0-4.868,1.593-7.495,4.367c-2.67,2.875-4.622,6.267-5.033,8.053
		c-0.037,0.159,0.006,0.232,0.106,0.252c0.062,0.014,0.128,0.021,0.201,0.021c0.023,0,0.05-0.007,0.074-0.007
		c0.55-1.846,2.423-5.012,4.941-7.721c2.627-2.774,5.36-4.368,7.491-4.368c0.042,0,0.078,0.007,0.12,0.007
		C104.229,40.502,104.235,40.422,104.239,40.343z"/>
	<path fill="#231F20" d="M23.482,25.859c3.427-0.01,7.325,0.564,11.713,1.577c0.146-0.173,0.279-0.322,0.38-0.438
		c-4.66-1.119-8.783-1.739-12.386-1.736c-8.802,0-13.663,2.686-14.714,5.507c-0.23,0.637-0.192,1.258,0.08,1.709
		C8.608,29.292,13.524,25.859,23.482,25.859"/>
	<path fill="none" stroke="#231F20" stroke-width="0.1597" stroke-miterlimit="20" d="M23.482,25.859
		c3.427-0.01,7.325,0.564,11.713,1.577c0.146-0.173,0.279-0.322,0.38-0.438c-4.66-1.119-8.783-1.739-12.386-1.736
		c-8.802,0-13.663,2.686-14.714,5.507c-0.23,0.637-0.192,1.258,0.08,1.709C8.608,29.292,13.524,25.859,23.482,25.859z"/>
	<path fill="#231F20" d="M44.5,29.497c-0.377-0.129-0.656-0.219-1.016-0.332c-0.986,1.046-2.938,2.603-3.525,3.001
		C28.216,46.031,23.333,50.605,19.716,55.18c-0.461,0.577-0.89,1.194-1.135,1.739c0.143,0.139,0.376,0.072,0.649-0.066
		c0.224-0.358,0.493-0.724,0.775-1.082c3.616-4.567,8.5-9.142,20.247-23.004c0.584-0.402,2.536-1.961,3.521-2.997
		c0.208,0.06,0.259,0.073,0.405,0.119L44.5,29.497"/>
	<path fill="none" stroke="#231F20" stroke-width="0.1597" stroke-miterlimit="20" d="M44.5,29.497
		c-0.377-0.129-0.656-0.219-1.016-0.332c-0.986,1.046-2.938,2.603-3.525,3.001C28.216,46.031,23.333,50.605,19.716,55.18
		c-0.461,0.577-0.89,1.194-1.135,1.739c0.143,0.139,0.376,0.072,0.649-0.066c0.224-0.358,0.493-0.724,0.775-1.082
		c3.616-4.567,8.5-9.142,20.247-23.004c0.584-0.402,2.536-1.961,3.521-2.997c0.208,0.06,0.259,0.073,0.405,0.119L44.5,29.497z"/>
	<path fill="#231F20" d="M59.558,26.098c-0.45-0.68-0.969-0.893-1.945-0.893c-1.671,0-4.622,0.713-7.626,3.804
		c0.204,0.103,0.4,0.199,0.587,0.302c2.899-2.835,5.714-3.512,7.331-3.512C58.565,25.8,59.108,25.916,59.558,26.098"/>
	<path fill="none" stroke="#231F20" stroke-width="0.1597" stroke-miterlimit="20" d="M59.558,26.098
		c-0.45-0.68-0.969-0.893-1.945-0.893c-1.671,0-4.622,0.713-7.626,3.804c0.204,0.103,0.4,0.199,0.587,0.302
		c2.899-2.835,5.714-3.512,7.331-3.512C58.565,25.8,59.108,25.916,59.558,26.098z"/>
	<path fill="#231F20" d="M40.245,47.246c0.652-0.026,0.827-0.657,0.32-1.068c-0.031,0.245-0.246,0.451-0.609,0.465
		c-4.008,0.159-8.056,2.648-8.919,6.279c-0.176,0.73-0.21,1.567,0.12,2.098c0-0.02,0-0.039,0-0.066
		C31.157,50.559,35.728,47.419,40.245,47.246"/>
	<path fill="none" stroke="#231F20" stroke-width="0.1597" stroke-miterlimit="20" d="M40.245,47.246
		c0.652-0.026,0.827-0.657,0.32-1.068c-0.031,0.245-0.246,0.451-0.609,0.465c-4.008,0.159-8.056,2.648-8.919,6.279
		c-0.176,0.73-0.21,1.567,0.12,2.098c0-0.02,0-0.039,0-0.066C31.157,50.559,35.728,47.419,40.245,47.246z"/>
	<path fill="#231F20" d="M44.86,35.801c1.275-1.567,2.214-2.702,3.256-3.887c1.777,0.973,2.163,1.434,3.062,1.948
		c1.323,0.767,2.723-0.358,1.971-1.251c0.09,0.644-0.775,1.391-2.042,0.524c-0.047-0.033-1.842-1.317-3.14-1.978
		c-1.193,1.354-2.526,2.964-3.99,4.77C44.253,35.854,44.552,35.817,44.86,35.801"/>
	<path fill="none" stroke="#231F20" stroke-width="0.1597" stroke-miterlimit="20" d="M44.86,35.801
		c1.275-1.567,2.214-2.702,3.256-3.887c1.777,0.973,2.163,1.434,3.062,1.948c1.323,0.767,2.723-0.358,1.971-1.251
		c0.09,0.644-0.775,1.391-2.042,0.524c-0.047-0.033-1.842-1.317-3.14-1.978c-1.193,1.354-2.526,2.964-3.99,4.77
		C44.253,35.854,44.552,35.817,44.86,35.801z"/>
	<path fill="#231F20" d="M41.938,38.457c-1.563,1.952-3.059,3.824-4.232,5.271c0.262-0.007,0.513,0.006,0.752,0.033
		c1.08-1.342,2.381-2.981,3.735-4.667C42.064,38.896,41.979,38.677,41.938,38.457"/>
	<path fill="none" stroke="#231F20" stroke-width="0.1597" stroke-miterlimit="20" d="M41.938,38.457
		c-1.563,1.952-3.059,3.824-4.232,5.271c0.262-0.007,0.513,0.006,0.752,0.033c1.08-1.342,2.381-2.981,3.735-4.667
		C42.064,38.896,41.979,38.677,41.938,38.457z"/>
	<path fill="#231F20" d="M45.084,40.907c0.915,0,1.274-0.479,3.606-0.479c1.245,0,2.23,0.253,3.009,0.65
		c-0.596-0.736-1.316-1.016-1.832-1.115c-0.448-0.086-0.931-0.126-1.466-0.126c-2.332,0-2.691,0.479-3.606,0.479
		c-0.513,0-0.899-0.146-1.175-0.372c-0.042-0.007-0.078-0.007-0.116-0.02C43.647,40.476,44.178,40.907,45.084,40.907"/>
	<path fill="none" stroke="#231F20" stroke-width="0.1597" stroke-miterlimit="20" d="M45.084,40.907
		c0.915,0,1.274-0.479,3.606-0.479c1.245,0,2.23,0.253,3.009,0.65c-0.596-0.736-1.316-1.016-1.832-1.115
		c-0.448-0.086-0.931-0.126-1.466-0.126c-2.332,0-2.691,0.479-3.606,0.479c-0.513,0-0.899-0.146-1.175-0.372
		c-0.042-0.007-0.078-0.007-0.116-0.02C43.647,40.476,44.178,40.907,45.084,40.907z"/>
	<path fill="#FFFFFF" d="M185.831,32.292c1.825,0,3.398-1.603,3.398-2.987c0-1.361-1.022-2.144-2.283-2.144
		c-1.68,0-3.479,1.507-3.479,2.99C183.468,31.382,184.424,32.292,185.831,32.292"/>
	<path fill="none" stroke="#231F20" stroke-width="0.1597" stroke-miterlimit="20" d="M185.831,32.292
		c1.825,0,3.398-1.603,3.398-2.987c0-1.361-1.022-2.144-2.283-2.144c-1.68,0-3.479,1.507-3.479,2.99
		C183.468,31.382,184.424,32.292,185.831,32.292z"/>
	<g>
		<path fill="#FFFFFF" d="M69.583,37.773C65.74,41.77,60.2,46.23,57.531,48.309c1.874-3.977-0.055-8.225-4.034-9.712
			c8.701-1.268,11.634-6.404,11.634-10.128c0-3.236-2.708-6.373-7.402-6.373c-2.387,0-6.182,0.266-11.352,5.819
			c-0.921-0.395-1.777-0.72-2.611-0.973c1.204-1.686,1.451-2.868,1.522-3.894h-5.601c0,0-1.679,1.866-1.859,2.068
			c-6.424-1.865-11.841-2.565-16.307-2.565c-20.269,0-22.157,15.821-4.177,15.868c3.438,0.006,7.226-0.559,10.618-1.653
			c-3.755,4.601-11.685,12.719-13.296,16.742c-1.992,4.979,1.699,7.321,6.087,4.979c1.897-1.009,4.271-2.901,7.021-5.576
			c-0.337,2.688,1.748,6.685,8.938,6.685c10.537,0,17.159-6.28,25.672-13.044c-2.24,2.907-2.25,4.235-2.25,4.893
			c0,1.871,1.236,3.797,4.136,3.797c2.036,0,4.99-1.594,8.548-4.574c-0.836,3.146,2.033,6.094,5.877,3.704
			c1.768-1.095,7.708-5.98,8.11-6.313c-0.85,3.06,0.108,7.183,4.094,7.183c2.332,0,5.13-1.374,8.114-3.963
			c-0.295,1.64,0.081,3.963,3.123,3.963c2.52,0,4.547-1.606,7.91-4.262c0,0,3.273-2.583,5.271-4.415
			c-1.256,1.68-2.264,3.286-2.264,4.88c0,2.131,1.503,3.797,4.137,3.797c2.046,0,5.021-1.606,8.612-4.627
			c-0.289,1.972,0.726,4.573,3.939,4.573c2.968,0,6.686-1.54,10.761-4.447c1.644,0.232,5.676-0.113,8.883-2.848
			c-0.624,3.272,1.308,7.349,5.98,7.349c3.027,0,6.021-1.354,10.329-4.681c1.348-1.075,3.008-2.476,4.913-4.136
			c-1.335,1.779-2.37,3.485-2.37,5.02c0,2.303,1.626,3.797,4.063,3.797c2.297,0,4.833-1.673,9.021-4.966
			c2.556-2.005,8.271-7.714,11.478-10.144c0.232,8.119-5.769,13.217-7.846,13.217c-0.638,0-0.465-0.425-0.073-1.028
			c0.418-0.671,0.504-0.942,0.504-1.248c0-0.816-0.796-1.521-1.898-1.521c-1.553,0-2.602,1.148-2.602,2.437
			c0,1.566,1.341,3.253,4.925,3.253c4.441,0,7.535-2.377,13.377-7.242c-0.598,3.438,1.553,7.242,6.001,7.242
			c3.645,0,7.109-2.185,10.023-4.461c3.917-3.047,12.029-11.292,15.056-11.657c0.797-0.093,0.79,0.346,0.585,0.664
			c-1.122,1.659-10.044,11.491-13.23,15.268l6.279-0.497c3.34-3.233,6.918-6.605,9.745-8.776c-1.626,2.516-0.61,4.607,2.523,4.607
			c2.177,0,5.25-1.893,5.987-3.08c0.671-1.069-0.571-1.634-1.168-1.182c-1.215,0.916-2.921,2.529-4.919,2.529
			c-0.678,0-1.162-0.299-1.162-0.983c0-1.739,1.898-3.71,3.559-4.673c3.472-1.972,4.407-2.636,4.952-3.227
			c1.261-1.374,0.252-2.563-1.494-2.563c-3.066,0-4.64,1.839-6.319,5.013c-1.195,0.822-2.51,1.885-3.804,2.934
			c1.182-1.719,2.184-3.571,2.184-5.185c0-1.646-1.294-2.762-3.08-2.762c-4.096,0-11.498,8.065-16.895,12.222
			c-3.697,2.861-6.167,3.97-8.431,3.97c-2.416,0-2.423-1.72-1.772-3.884c9.287-1.779,15.175-6.08,15.175-9.294
			c0-1.673-1.573-2.967-4.182-2.967c-3.691,0-8.948,2.582-14.054,6.884c0,0-4.275,3.824-6.174,5.304
			c0.425-1.327,0.472-2.907,0.472-3.591c0-1.825-0.358-3.239-0.358-5.663c0-1.128,0.239-1.182,1.009-1.407
			c0.014-0.006,2.356-0.444,2.356-2.104c0-0.978-0.776-1.482-1.832-1.482c-1.248,0-2.37,0.843-3.339,2.504
			c-4.494,3.671-7.654,6.719-10.316,9.088c-1.972,1.753-5.775,4.985-8.616,6.28c-1.082,0.491-2.914,0.803-2.038-0.85
			c0.79-1.487,12.089-14.797,12.089-14.797l-6.313,0.358c-4.069,3.12-6.791,5.821-9.626,8.338
			c-2.834,2.509-8.045,7.282-12.297,7.282c-1.782,0-2.771-1.022-1.77-3.884c9.294-1.779,15.176-6.107,15.176-9.3
			c0-2.33-2.683-2.961-4.183-2.961c-3.697,0-8.775,2.449-14.06,6.884c-1.501,1.255-2.616,2.33-3.599,3.04
			c-2.556,1.753-4.312,1.926-4.929,1.846c4.013-3.883,6.589-7.747,6.589-9.646c0-2.522-3.15-2.834-4.527-1.102
			c-1.274,1.613-1.046,3.657-2.271,6.492c-2.164,5.025-7.754,8.212-11.252,8.597c-1.988,0.212-2.095-0.664-1.55-1.566
			c1.281-2.131,6.372-7.681,11.756-14.313l-6.018,0.292c-6.691,8.438-13.401,14.484-17.124,15.48
			c-0.74,0.199-1.178,0.199-1.359,0.007c-0.467-0.484,0.33-1.494,1.022-2.383c2.614-3.359,10.069-12.103,11.137-13.396l-6.173,0.306
			c-1.507,1.168-12.196,10.501-12.196,10.501c-3.425,2.849-5.238,4.076-6.188,4.574c-0.918,0.478-1.595,0.458-1.207-0.75
			c0.578-1.806,11.944-16.209,19.75-26.661l-5.812,0.219c0,0-9.443,12.934-10.228,14.009c-0.269-1.328-1.44-2.43-3.945-2.43
			c-3.268,0-8.723,2.509-13.814,6.539c-1.648,1.301-9.309,7.945-11.677,9.333c-1.173,0.69-1.745,0.1-1.173-0.93
			c0.312-0.558,0.895-1.254,1.608-2.11l10.475-12.6l-6.019,0.292c-6.642,8.378-13.31,14.412-17.042,15.461
			c-1.595,0.444-1.8-0.047-1.394-0.949c0.612-1.361,10.774-13.178,12.117-14.804L69.583,37.773 M204.823,47.439
			c3.08-5.198,8.351-8.504,10.223-8.504c0.22,0,0.412,0.072,0.545,0.212c0.093,0.093,0.146,0.22,0.146,0.353
			C215.644,41.266,211.448,45.912,204.823,47.439z M165.696,40.289c-0.955,2.099-4.898,5.815-10.69,7.15
			c2.765-4.66,7.285-7.801,9.529-8.398C165.776,38.71,166.188,39.221,165.696,40.289z M91.51,53.234c-0.354,0-0.636-0.1-0.815-0.292
			c-0.194-0.199-0.282-0.512-0.262-0.916c0.082-1.561,2.154-5.377,5.115-8.563c2.627-2.775,5.357-4.368,7.491-4.368
			c0.594,0,1.112,0.192,1.427,0.518c0.176,0.192,0.272,0.412,0.272,0.65c0,0.014,0,0.026,0,0.04c-0.1,1.846-2.556,5.822-6.924,9.532
			C95.313,51.967,92.958,53.234,91.51,53.234z M22.466,24.303c4.061-0.007,8.776,0.777,14.196,2.174
			c-0.461,0.535-6.439,7.432-6.542,7.552c-3.357,1.363-7.981,2.247-11.98,2.19C2.854,36.219,3.918,24.303,22.466,24.303z
			 M39.236,31.203c0.591-0.398,2.539-1.955,3.521-2.997c0.818,0.249,1.671,0.534,2.592,0.923
			C39.729,36.198,27.003,52.1,20.946,56.354c-0.295,0.206-2.417,1.692-3.079,1.002c-0.625-0.644,0.185-1.958,1.125-3.146
			C22.609,49.643,27.493,45.076,39.236,31.203z M30.14,53.394c0-4.388,4.575-7.528,9.096-7.707c0.747-0.033,0.859-0.87,0.03-1.234
			c-0.833-0.372-2.287-0.346-3.762,0.105c2.267-2.648,8.231-10.387,11.896-14.542c2.708,1.324,2.711,1.703,3.609,2.22
			c1.462,0.847,2.25-0.428,1.054-1.377c-0.801-0.634-2.011-1.308-3.551-1.998c3.256-3.784,6.567-4.61,8.374-4.61
			c3.519,0,3.791,3.017,3.791,4.139c0,2.287-2.003,5.686-7.237,7.74c-2.511,0.987-4.204,0.875-5.526,0.622
			c-0.971-0.318-1.927-0.489-2.793-0.489c-3.266,0-3.47,3.092-1.051,3.092c0.918,0,1.278-0.484,3.61-0.484
			c3.892,0,5.35,2.449,5.35,4.368c0,5.914-9.323,13.814-18.164,13.814C31.493,57.052,30.14,55.266,30.14,53.394z"/>
		<path fill="none" stroke="#231F20" stroke-width="0.1597" stroke-miterlimit="20" d="M69.583,37.773
			C65.74,41.77,60.2,46.23,57.531,48.309c1.874-3.977-0.055-8.225-4.034-9.712c8.701-1.268,11.634-6.404,11.634-10.128
			c0-3.236-2.708-6.373-7.402-6.373c-2.387,0-6.182,0.266-11.352,5.819c-0.921-0.395-1.777-0.72-2.611-0.973
			c1.204-1.686,1.451-2.868,1.522-3.894h-5.601c0,0-1.679,1.866-1.859,2.068c-6.424-1.865-11.841-2.565-16.307-2.565
			c-20.269,0-22.157,15.821-4.177,15.868c3.438,0.006,7.226-0.559,10.618-1.653c-3.755,4.601-11.685,12.719-13.296,16.742
			c-1.992,4.979,1.699,7.321,6.087,4.979c1.897-1.009,4.271-2.901,7.021-5.576c-0.337,2.688,1.748,6.685,8.938,6.685
			c10.537,0,17.159-6.28,25.672-13.044c-2.24,2.907-2.25,4.235-2.25,4.893c0,1.871,1.236,3.797,4.136,3.797
			c2.036,0,4.99-1.594,8.548-4.574c-0.836,3.146,2.033,6.094,5.877,3.704c1.768-1.095,7.708-5.98,8.11-6.313
			c-0.85,3.06,0.108,7.183,4.094,7.183c2.332,0,5.13-1.374,8.114-3.963c-0.295,1.64,0.081,3.963,3.123,3.963
			c2.52,0,4.547-1.606,7.91-4.262c0,0,3.273-2.583,5.271-4.415c-1.256,1.68-2.264,3.286-2.264,4.88c0,2.131,1.503,3.797,4.137,3.797
			c2.046,0,5.021-1.606,8.612-4.627c-0.289,1.972,0.726,4.573,3.939,4.573c2.968,0,6.686-1.54,10.761-4.447
			c1.644,0.232,5.676-0.113,8.883-2.848c-0.624,3.272,1.308,7.349,5.98,7.349c3.027,0,6.021-1.354,10.329-4.681
			c1.348-1.075,3.008-2.476,4.913-4.136c-1.335,1.779-2.37,3.485-2.37,5.02c0,2.303,1.626,3.797,4.063,3.797
			c2.297,0,4.833-1.673,9.021-4.966c2.556-2.005,8.271-7.714,11.478-10.144c0.232,8.119-5.769,13.217-7.846,13.217
			c-0.638,0-0.465-0.425-0.073-1.028c0.418-0.671,0.504-0.942,0.504-1.248c0-0.816-0.796-1.521-1.898-1.521
			c-1.553,0-2.602,1.148-2.602,2.437c0,1.566,1.341,3.253,4.925,3.253c4.441,0,7.535-2.377,13.377-7.242
			c-0.598,3.438,1.553,7.242,6.001,7.242c3.645,0,7.109-2.185,10.023-4.461c3.917-3.047,12.029-11.292,15.056-11.657
			c0.797-0.093,0.79,0.346,0.585,0.664c-1.122,1.659-10.044,11.491-13.23,15.268l6.279-0.497c3.34-3.233,6.918-6.605,9.745-8.776
			c-1.626,2.516-0.61,4.607,2.523,4.607c2.177,0,5.25-1.893,5.987-3.08c0.671-1.069-0.571-1.634-1.168-1.182
			c-1.215,0.916-2.921,2.529-4.919,2.529c-0.678,0-1.162-0.299-1.162-0.983c0-1.739,1.898-3.71,3.559-4.673
			c3.472-1.972,4.407-2.636,4.952-3.227c1.261-1.374,0.252-2.563-1.494-2.563c-3.066,0-4.64,1.839-6.319,5.013
			c-1.195,0.822-2.51,1.885-3.804,2.934c1.182-1.719,2.184-3.571,2.184-5.185c0-1.646-1.294-2.762-3.08-2.762
			c-4.096,0-11.498,8.065-16.895,12.222c-3.697,2.861-6.167,3.97-8.431,3.97c-2.416,0-2.423-1.72-1.772-3.884
			c9.287-1.779,15.175-6.08,15.175-9.294c0-1.673-1.573-2.967-4.182-2.967c-3.691,0-8.948,2.582-14.054,6.884
			c0,0-4.275,3.824-6.174,5.304c0.425-1.327,0.472-2.907,0.472-3.591c0-1.825-0.358-3.239-0.358-5.663
			c0-1.128,0.239-1.182,1.009-1.407c0.014-0.006,2.356-0.444,2.356-2.104c0-0.978-0.776-1.482-1.832-1.482
			c-1.248,0-2.37,0.843-3.339,2.504c-4.494,3.671-7.654,6.719-10.316,9.088c-1.972,1.753-5.775,4.985-8.616,6.28
			c-1.082,0.491-2.914,0.803-2.038-0.85c0.79-1.487,12.089-14.797,12.089-14.797l-6.313,0.358c-4.069,3.12-6.791,5.821-9.626,8.338
			c-2.834,2.509-8.045,7.282-12.297,7.282c-1.782,0-2.771-1.022-1.77-3.884c9.294-1.779,15.176-6.107,15.176-9.3
			c0-2.33-2.683-2.961-4.183-2.961c-3.697,0-8.775,2.449-14.06,6.884c-1.501,1.255-2.616,2.33-3.599,3.04
			c-2.556,1.753-4.312,1.926-4.929,1.846c4.013-3.883,6.589-7.747,6.589-9.646c0-2.522-3.15-2.834-4.527-1.102
			c-1.274,1.613-1.046,3.657-2.271,6.492c-2.164,5.025-7.754,8.212-11.252,8.597c-1.988,0.212-2.095-0.664-1.55-1.566
			c1.281-2.131,6.372-7.681,11.756-14.313l-6.018,0.292c-6.691,8.438-13.401,14.484-17.124,15.48
			c-0.74,0.199-1.178,0.199-1.359,0.007c-0.467-0.484,0.33-1.494,1.022-2.383c2.614-3.359,10.069-12.103,11.137-13.396l-6.173,0.306
			c-1.507,1.168-12.196,10.501-12.196,10.501c-3.425,2.849-5.238,4.076-6.188,4.574c-0.918,0.478-1.595,0.458-1.207-0.75
			c0.578-1.806,11.944-16.209,19.75-26.661l-5.812,0.219c0,0-9.443,12.934-10.228,14.009c-0.269-1.328-1.44-2.43-3.945-2.43
			c-3.268,0-8.723,2.509-13.814,6.539c-1.648,1.301-9.309,7.945-11.677,9.333c-1.173,0.69-1.745,0.1-1.173-0.93
			c0.312-0.558,0.895-1.254,1.608-2.11l10.475-12.6l-6.019,0.292c-6.642,8.378-13.31,14.412-17.042,15.461
			c-1.595,0.444-1.8-0.047-1.394-0.949c0.612-1.361,10.774-13.178,12.117-14.804L69.583,37.773z M204.823,47.439
			c3.08-5.198,8.351-8.504,10.223-8.504c0.22,0,0.412,0.072,0.545,0.212c0.093,0.093,0.146,0.22,0.146,0.353
			C215.644,41.266,211.448,45.912,204.823,47.439z M165.696,40.289c-0.955,2.099-4.898,5.815-10.69,7.15
			c2.765-4.66,7.285-7.801,9.529-8.398C165.776,38.71,166.188,39.221,165.696,40.289z M91.51,53.234c-0.354,0-0.636-0.1-0.815-0.292
			c-0.194-0.199-0.282-0.512-0.262-0.916c0.082-1.561,2.154-5.377,5.115-8.563c2.627-2.775,5.357-4.368,7.491-4.368
			c0.594,0,1.112,0.192,1.427,0.518c0.176,0.192,0.272,0.412,0.272,0.65c0,0.014,0,0.026,0,0.04c-0.1,1.846-2.556,5.822-6.924,9.532
			C95.313,51.967,92.958,53.234,91.51,53.234z M22.466,24.303c4.061-0.007,8.776,0.777,14.196,2.174
			c-0.461,0.535-6.439,7.432-6.542,7.552c-3.357,1.363-7.981,2.247-11.98,2.19C2.854,36.219,3.918,24.303,22.466,24.303z
			 M39.236,31.203c0.591-0.398,2.539-1.955,3.521-2.997c0.818,0.249,1.671,0.534,2.592,0.923
			C39.729,36.198,27.003,52.1,20.946,56.354c-0.295,0.206-2.417,1.692-3.079,1.002c-0.625-0.644,0.185-1.958,1.125-3.146
			C22.609,49.643,27.493,45.076,39.236,31.203z M30.14,53.394c0-4.388,4.575-7.528,9.096-7.707c0.747-0.033,0.859-0.87,0.03-1.234
			c-0.833-0.372-2.287-0.346-3.762,0.105c2.267-2.648,8.231-10.387,11.896-14.542c2.708,1.324,2.711,1.703,3.609,2.22
			c1.462,0.847,2.25-0.428,1.054-1.377c-0.801-0.634-2.011-1.308-3.551-1.998c3.256-3.784,6.567-4.61,8.374-4.61
			c3.519,0,3.791,3.017,3.791,4.139c0,2.287-2.003,5.686-7.237,7.74c-2.511,0.987-4.204,0.875-5.526,0.622
			c-0.971-0.318-1.927-0.489-2.793-0.489c-3.266,0-3.47,3.092-1.051,3.092c0.918,0,1.278-0.484,3.61-0.484
			c3.892,0,5.35,2.449,5.35,4.368c0,5.914-9.323,13.814-18.164,13.814C31.493,57.052,30.14,55.266,30.14,53.394z"/>
	</g>
	<path fill="#FFFFFF" d="M233.129,54.848c0-0.777,0.631-1.401,1.407-1.401c0.777,0,1.407,0.624,1.407,1.401
		c0,0.783-0.63,1.414-1.407,1.414C233.76,56.262,233.129,55.631,233.129,54.848 M235.679,54.848c0-0.631-0.512-1.136-1.143-1.136
		c-0.63,0-1.142,0.505-1.142,1.136c0,0.637,0.512,1.148,1.142,1.148C235.167,55.996,235.679,55.484,235.679,54.848z M235.24,55.617
		h-0.352l-0.332-0.644h-0.299v0.644h-0.299v-1.526h0.736c0.127,0,0.299,0.007,0.412,0.079c0.133,0.087,0.179,0.232,0.179,0.398
		c0,0.272-0.152,0.385-0.418,0.405L235.24,55.617z M234.702,54.748c0.166,0,0.286-0.04,0.286-0.232s-0.22-0.192-0.365-0.192h-0.365
		v0.425H234.702z"/>
	<path fill="none" stroke="#231F20" stroke-width="0.017" d="M233.129,54.848c0-0.777,0.631-1.401,1.407-1.401
		c0.777,0,1.407,0.624,1.407,1.401c0,0.783-0.63,1.414-1.407,1.414C233.76,56.262,233.129,55.631,233.129,54.848z M235.679,54.848
		c0-0.631-0.512-1.136-1.143-1.136c-0.63,0-1.142,0.505-1.142,1.136c0,0.637,0.512,1.148,1.142,1.148
		C235.167,55.996,235.679,55.484,235.679,54.848z M235.24,55.617h-0.352l-0.332-0.644h-0.299v0.644h-0.299v-1.526h0.736
		c0.127,0,0.299,0.007,0.412,0.079c0.133,0.087,0.179,0.232,0.179,0.398c0,0.272-0.152,0.385-0.418,0.405L235.24,55.617z
		 M234.702,54.748c0.166,0,0.286-0.04,0.286-0.232s-0.22-0.192-0.365-0.192h-0.365v0.425H234.702z"/>
	<path fill="#A2863B" d="M53.896,13.579c-0.191,0.146-0.389,0.279-0.581,0.385l-3.641,5.775c0.081,0.013,0.167,0.03,0.249,0.043
		L53.896,13.579 M52.783,14.179c-0.159,0.053-0.318,0.086-0.483,0.103l-3.191,5.367c0.103,0.017,0.204,0.033,0.299,0.046
		L52.783,14.179z M51.797,14.286c-0.017,0-0.036-0.003-0.055-0.003c-0.017-0.003-0.033-0.007-0.05-0.007
		c-0.068-0.01-0.133-0.023-0.197-0.037c-0.013-0.003-0.023-0.006-0.038-0.01c-0.023-0.003-0.043-0.01-0.068-0.017l-2.884,5.34
		c0.098,0.02,0.192,0.033,0.292,0.047L51.797,14.286z M50.911,14.023c-0.013-0.007-0.028-0.014-0.042-0.017
		c-0.016-0.014-0.04-0.023-0.061-0.033c-0.055-0.03-0.108-0.06-0.156-0.097c-0.026-0.017-0.051-0.033-0.075-0.05
		c-0.017-0.01-0.03-0.02-0.048-0.03l-2.803,5.653c0.104,0.013,0.211,0.03,0.312,0.043L50.911,14.023z M49.255,12.334
		c-0.146-0.249-0.285-0.525-0.411-0.82l-2.895,7.754c0.156,0.013,0.319,0.03,0.475,0.043L49.255,12.334z M50.072,13.413
		c-0.045-0.04-0.082-0.086-0.123-0.129c-0.013-0.017-0.03-0.033-0.048-0.05c-0.03-0.04-0.065-0.08-0.098-0.116
		c-0.007-0.007-0.013-0.017-0.02-0.027c-0.038-0.046-0.078-0.093-0.116-0.136L46.9,19.357c0.14,0.014,0.282,0.03,0.415,0.047
		L50.072,13.413z M48.521,10.641c-0.055-0.166-0.103-0.335-0.146-0.508c-0.194,0.149-0.392,0.282-0.587,0.401
		c-0.025,0.013-0.052,0.027-0.076,0.04l-2.65,8.63c0.146,0.01,0.289,0.017,0.431,0.026L48.521,10.641z M45.21,11.103
		c-0.269-0.05-0.526-0.13-0.778-0.239l-1.314,8.258c0.163,0.003,0.318,0.006,0.478,0.01L45.21,11.103z M46.849,10.963
		c-0.295,0.096-0.591,0.156-0.879,0.173l-1.852,8.019c0.166,0.006,0.329,0.013,0.493,0.023L46.849,10.963z M43.676,10.396
		c-0.276-0.212-0.528-0.472-0.769-0.77l-0.714,9.486c0.16,0,0.315,0.003,0.472,0.003L43.676,10.396z M29.933,13.974
		c-0.192-0.1-0.383-0.226-0.574-0.369l4.103,6.366c0.081-0.017,0.164-0.033,0.246-0.05L29.933,13.974z M30.94,14.286
		c-0.165-0.017-0.324-0.05-0.479-0.1l3.5,5.689c0.1-0.017,0.194-0.04,0.292-0.057L30.94,14.286z M31.839,14.209
		c-0.128,0.037-0.261,0.063-0.4,0.077l3.117,5.477c0.095-0.017,0.192-0.03,0.289-0.046L31.839,14.209z M32.704,13.788
		c-0.123,0.086-0.249,0.163-0.378,0.229l2.971,5.626c0.106-0.017,0.208-0.033,0.31-0.05L32.704,13.788z M34.385,11.487
		c-0.125,0.292-0.261,0.571-0.412,0.827l2.911,7.106c0.156-0.017,0.312-0.033,0.468-0.05L34.385,11.487z M33.563,12.938
		c-0.129,0.163-0.262,0.318-0.401,0.458l2.841,6.14c0.136-0.02,0.275-0.036,0.412-0.056L33.563,12.938z M35.527,10.588
		c-0.03-0.02-0.06-0.037-0.094-0.053c-0.201-0.12-0.394-0.252-0.588-0.401c-0.044,0.166-0.091,0.318-0.139,0.475l3.1,8.713
		c0.134-0.014,0.279-0.023,0.421-0.037L35.527,10.588z M38.805,10.854c-0.249,0.116-0.509,0.196-0.778,0.246l1.648,8.082
		c0.159-0.006,0.315-0.017,0.479-0.023L38.805,10.854z M37.268,11.139c-0.286-0.02-0.581-0.076-0.876-0.169l2.28,8.274
		c0.163-0.01,0.325-0.02,0.49-0.033L37.268,11.139z M40.33,9.609c-0.24,0.298-0.496,0.561-0.768,0.773l1.034,8.76
		c0.16-0.007,0.315-0.014,0.477-0.02L40.33,9.609z M42.101,8.324c-0.179-0.388-0.35-0.813-0.493-1.271
		c-0.143,0.461-0.309,0.883-0.493,1.275l0.307,10.791c0.129-0.003,0.261-0.003,0.39-0.003L42.101,8.324z"/>
	<path fill="#A2863B" stroke="#A2863B" stroke-width="0.1597" stroke-miterlimit="20" d="M53.896,13.579
		c-0.191,0.146-0.389,0.279-0.581,0.385l-3.641,5.775c0.081,0.013,0.167,0.03,0.249,0.043L53.896,13.579z M52.783,14.179
		c-0.159,0.053-0.318,0.086-0.483,0.103l-3.191,5.367c0.103,0.017,0.204,0.033,0.299,0.046L52.783,14.179z M51.797,14.286
		c-0.017,0-0.036-0.003-0.055-0.003c-0.017-0.003-0.033-0.007-0.05-0.007c-0.068-0.01-0.133-0.023-0.197-0.037
		c-0.013-0.003-0.023-0.006-0.038-0.01c-0.023-0.003-0.043-0.01-0.068-0.017l-2.884,5.34c0.098,0.02,0.192,0.033,0.292,0.047
		L51.797,14.286z M50.911,14.023c-0.013-0.007-0.028-0.014-0.042-0.017c-0.016-0.014-0.04-0.023-0.061-0.033
		c-0.055-0.03-0.108-0.06-0.156-0.097c-0.026-0.017-0.051-0.033-0.075-0.05c-0.017-0.01-0.03-0.02-0.048-0.03l-2.803,5.653
		c0.104,0.013,0.211,0.03,0.312,0.043L50.911,14.023z M49.255,12.334c-0.146-0.249-0.285-0.525-0.411-0.82l-2.895,7.754
		c0.156,0.013,0.319,0.03,0.475,0.043L49.255,12.334z M50.072,13.413c-0.045-0.04-0.082-0.086-0.123-0.129
		c-0.013-0.017-0.03-0.033-0.048-0.05c-0.03-0.04-0.065-0.08-0.098-0.116c-0.007-0.007-0.013-0.017-0.02-0.027
		c-0.038-0.046-0.078-0.093-0.116-0.136L46.9,19.357c0.14,0.014,0.282,0.03,0.415,0.047L50.072,13.413z M48.521,10.641
		c-0.055-0.166-0.103-0.335-0.146-0.508c-0.194,0.149-0.392,0.282-0.587,0.401c-0.025,0.013-0.052,0.027-0.076,0.04l-2.65,8.63
		c0.146,0.01,0.289,0.017,0.431,0.026L48.521,10.641z M45.21,11.103c-0.269-0.05-0.526-0.13-0.778-0.239l-1.314,8.258
		c0.163,0.003,0.318,0.006,0.478,0.01L45.21,11.103z M46.849,10.963c-0.295,0.096-0.591,0.156-0.879,0.173l-1.852,8.019
		c0.166,0.006,0.329,0.013,0.493,0.023L46.849,10.963z M43.676,10.396c-0.276-0.212-0.528-0.472-0.769-0.77l-0.714,9.486
		c0.16,0,0.315,0.003,0.472,0.003L43.676,10.396z M29.933,13.974c-0.192-0.1-0.383-0.226-0.574-0.369l4.103,6.366
		c0.081-0.017,0.164-0.033,0.246-0.05L29.933,13.974z M30.94,14.286c-0.165-0.017-0.324-0.05-0.479-0.1l3.5,5.689
		c0.1-0.017,0.194-0.04,0.292-0.057L30.94,14.286z M31.839,14.209c-0.128,0.037-0.261,0.063-0.4,0.077l3.117,5.477
		c0.095-0.017,0.192-0.03,0.289-0.046L31.839,14.209z M32.704,13.788c-0.123,0.086-0.249,0.163-0.378,0.229l2.971,5.626
		c0.106-0.017,0.208-0.033,0.31-0.05L32.704,13.788z M34.385,11.487c-0.125,0.292-0.261,0.571-0.412,0.827l2.911,7.106
		c0.156-0.017,0.312-0.033,0.468-0.05L34.385,11.487z M33.563,12.938c-0.129,0.163-0.262,0.318-0.401,0.458l2.841,6.14
		c0.136-0.02,0.275-0.036,0.412-0.056L33.563,12.938z M35.527,10.588c-0.03-0.02-0.06-0.037-0.094-0.053
		c-0.201-0.12-0.394-0.252-0.588-0.401c-0.044,0.166-0.091,0.318-0.139,0.475l3.1,8.713c0.134-0.014,0.279-0.023,0.421-0.037
		L35.527,10.588z M38.805,10.854c-0.249,0.116-0.509,0.196-0.778,0.246l1.648,8.082c0.159-0.006,0.315-0.017,0.479-0.023
		L38.805,10.854z M37.268,11.139c-0.286-0.02-0.581-0.076-0.876-0.169l2.28,8.274c0.163-0.01,0.325-0.02,0.49-0.033L37.268,11.139z
		 M40.33,9.609c-0.24,0.298-0.496,0.561-0.768,0.773l1.034,8.76c0.16-0.007,0.315-0.014,0.477-0.02L40.33,9.609z M42.101,8.324
		c-0.179-0.388-0.35-0.813-0.493-1.271c-0.143,0.461-0.309,0.883-0.493,1.275l0.307,10.791c0.129-0.003,0.261-0.003,0.39-0.003
		L42.101,8.324z"/>
	<path fill="#231F20" d="M41.608,6.585c0.435,0,0.793-0.392,0.793-0.873s-0.358-0.866-0.793-0.866c-0.435,0-0.789,0.385-0.789,0.866
		S41.173,6.585,41.608,6.585"/>
	<path fill="#A2863B" stroke="#A2863B" stroke-width="0.1597" stroke-miterlimit="20" d="M41.608,6.585
		c0.435,0,0.793-0.392,0.793-0.873s-0.358-0.866-0.793-0.866c-0.435,0-0.789,0.385-0.789,0.866S41.173,6.585,41.608,6.585z"/>
	<path fill="#A2863B" d="M48.538,9.645c0.299,0.136,0.625-0.172,0.789-0.621c0.161-0.445,0.103-0.856-0.196-0.989
		c-0.304-0.136-0.681,0.12-0.843,0.564C48.123,9.044,48.233,9.519,48.538,9.645"/>
	<path fill="none" stroke="#A2863B" stroke-width="0.1597" stroke-miterlimit="20" d="M48.538,9.645
		c0.299,0.136,0.625-0.172,0.789-0.621c0.161-0.445,0.103-0.856-0.196-0.989c-0.304-0.136-0.681,0.12-0.843,0.564
		C48.123,9.044,48.233,9.519,48.538,9.645z"/>
	<path fill="#A2863B" d="M54.486,12.795c0.132-0.292,0.194-0.687,0.02-0.803c-0.172-0.116-0.481,0.136-0.614,0.428
		s-0.143,0.701,0.03,0.82C54.093,13.353,54.354,13.087,54.486,12.795"/>
	<path fill="none" stroke="#A2863B" stroke-width="0.1597" stroke-miterlimit="20" d="M54.486,12.795
		c0.132-0.292,0.194-0.687,0.02-0.803c-0.172-0.116-0.481,0.136-0.614,0.428s-0.143,0.701,0.03,0.82
		C54.093,13.353,54.354,13.087,54.486,12.795z"/>
	<path fill="#231F20" d="M29.309,13.193c0.172-0.113,0.153-0.481,0.02-0.773c-0.13-0.292-0.438-0.524-0.613-0.405
		c-0.172,0.116-0.114,0.488,0.017,0.78C28.865,13.087,29.138,13.31,29.309,13.193"/>
	<path fill="#A2863B" stroke="#A2863B" stroke-width="0.1597" stroke-miterlimit="20" d="M29.309,13.193
		c0.172-0.113,0.153-0.481,0.02-0.773c-0.13-0.292-0.438-0.524-0.613-0.405c-0.172,0.116-0.114,0.488,0.017,0.78
		C28.865,13.087,29.138,13.31,29.309,13.193z"/>
	<path fill="#A2863B" d="M34.681,9.645c0.304-0.126,0.415-0.601,0.252-1.045c-0.163-0.445-0.541-0.7-0.843-0.564
		c-0.299,0.133-0.36,0.544-0.198,0.989C34.057,9.473,34.382,9.781,34.681,9.645"/>
	<path fill="none" stroke="#A2863B" stroke-width="0.1597" stroke-miterlimit="20" d="M34.681,9.645
		c0.304-0.126,0.415-0.601,0.252-1.045c-0.163-0.445-0.541-0.7-0.843-0.564c-0.299,0.133-0.36,0.544-0.198,0.989
		C34.057,9.473,34.382,9.781,34.681,9.645z"/>
</g>
</svg>
