<?xml version="1.0" encoding="UTF-8" standalone="no"?>
<!-- Created with Inkscape (http://www.inkscape.org/) -->

<svg
   xmlns:dc="http://purl.org/dc/elements/1.1/"
   xmlns:cc="http://creativecommons.org/ns#"
   xmlns:rdf="http://www.w3.org/1999/02/22-rdf-syntax-ns#"
   xmlns:svg="http://www.w3.org/2000/svg"
   xmlns="http://www.w3.org/2000/svg"
   version="1.1"
   width="233.85809"
   height="184.41937"
   id="svg3004"
   xml:space="preserve"><metadata
     id="metadata3010"><rdf:RDF><cc:Work
         rdf:about=""><dc:format>image/svg+xml</dc:format><dc:type
           rdf:resource="http://purl.org/dc/dcmitype/StillImage" /><dc:title></dc:title></cc:Work></rdf:RDF></metadata><defs
     id="defs3008" /><g
     transform="matrix(1.25,0,0,-1.25,-3.8681625,220.4775)"
     id="g3012"><g
       id="g3025"><path
         d="m 59.5527,139.246 c 0,20.531 16.6051,37.136 37.1356,37.136 20.4297,0 37.1347,-16.605 37.1347,-37.136 0,-20.429 -16.705,-37.034 -37.1347,-37.034 -20.5305,0 -37.1356,16.605 -37.1356,37.034 z m 16.3032,6.643 3.7234,-3.019 15.398,12.982 c 1.4086,1.107 3.2204,1.711 5.1327,1.711 1.912,0 3.724,-0.705 5.233,-1.812 l 19.423,-15.8 0,-3.623 -17.209,13.888 c -1.308,1.007 -2.818,1.51 -4.529,1.51 -1.71,0 -3.321,-0.604 -4.6292,-1.61 l -0.2011,-0.101 -0.1004,-0.101 c -1.6106,-1.409 -9.561,-8.051 -13.5864,-11.372 l 0.1008,0 c 0.8047,-1.308 2.9184,-1.509 4.8305,-0.402 0,0 0,0 0.1004,0 4.3277,3.723 8.2527,7.044 8.6551,7.447 1.2078,1.006 2.7173,1.711 4.3273,1.711 1.611,0 3.019,-0.604 4.126,-1.51 l 12.379,-10.064 3.623,-3.019 2.113,-1.71 -0.402,-0.101 0.402,-0.403 c 0,0 -16.404,-13.988 -20.53,-17.511 -2.013,-2.113 -4.9313,-3.421 -8.1516,-3.421 -2.9188,0 -5.7364,1.107 -7.7492,3.018 l -20.4297,16.606 0,5.133 20.3289,-16.505 c 1.409,-1.007 3.0191,-1.611 4.9312,-1.611 1.9121,0 3.7239,0.705 5.1328,1.812 0.8051,0.704 13.0826,11.171 18.6176,15.8 l -3.623,3.019 -15.4977,-13.083 c -1.5098,-1.006 -3.2207,-1.61 -5.1328,-1.61 -2.0125,0 -3.8242,0.604 -5.3336,1.812 l -19.4234,15.8 0,3.623 17.3097,-13.989 c 1.2078,-0.905 2.7172,-1.509 4.4282,-1.509 1.8117,0 3.4214,0.604 4.6296,1.61 l 0.2012,0.201 0.1004,0.101 c 1.7109,1.409 9.5614,7.95 13.5864,11.372 l -0.101,0 0,0.1 -1.006,0.705 c -1.007,0.503 -2.415,0.302 -3.724,-0.403 -0.1,0 -0.1,-0.1 -0.1,0 -4.328,-3.723 -8.3534,-7.044 -8.7558,-7.447 -1.107,-1.107 -2.7176,-1.711 -4.3273,-1.711 -1.5098,0 -2.9188,0.503 -4.1266,1.409 l -12.2777,10.265 -0.1004,-0.1 -3.5227,2.918 -1.0062,1.107 -1.2078,1.007 0.2011,0 -0.2011,0.201 c 0,0 16.4043,13.988 20.5304,17.511 2.1133,2.113 4.9313,3.422 8.1516,3.422 3.0191,0 5.7365,-1.208 7.7495,-3.02 l 20.429,-16.705 0,-5.133 -20.328,16.605 c -1.41,1.006 -3.02,1.61 -4.8314,1.61 -2.0125,0 -3.8242,-0.704 -5.2332,-1.811 -0.805,-0.704 -12.9824,-11.171 -18.5175,-15.8"
         id="path3018"
         style="fill:#1d64b8;fill-opacity:1;fill-rule:evenodd;stroke:none" /><path
         d="m 179.514,80.5746 c -0.202,1.3082 -0.805,2.9184 -1.913,4.9313 l 2.416,0.7046 c 1.006,-1.6105 1.61,-3.4218 1.912,-5.6359 l 8.252,0 0,-2.516 -20.329,0 0,2.516 9.662,0 0,0 z m -30.896,-2.516 c -0.604,0.3019 -2.617,1.409 -5.334,2.4152 l 1.61,1.3082 c 1.006,-0.3019 1.61,-0.2011 3.12,-0.9054 0.604,0.1004 1.509,1.0062 2.616,1.9121 l -0.1,0.2011 -10.668,0 0,2.2141 13.989,0 0.805,-1.7109 c -2.013,-1.6102 -3.724,-2.7172 -4.428,-3.7235 l 1.208,-0.805 -1.711,-0.9059 6.943,0 -0.1,-15.1965 c 0,-1.0062 -0.805,-1.5098 -1.509,-1.9121 -0.604,-0.4023 -1.309,-0.9059 -2.617,-0.8051 0.302,0.302 -0.201,1.1071 -1.107,2.4156 0.805,-0.1007 1.006,-0.1007 1.509,-0.1007 1.007,0 0.805,0 0.906,0.1007 0.201,0.2012 0.302,0.4024 0.302,0.8047 l 0,2.7176 -4.931,0 0,-5.032 -2.416,-0.4028 0,5.4348 -5.434,0 0,-5.4348 -2.516,0 0,17.4106 9.863,0 z m 23.348,-20.6309 0,8.8563 16.605,0 0,-8.8563 -16.605,0 z m 16.504,13.6868 0,-2.5157 -16.504,0 0,2.5157 16.504,0 z m 0,4.4281 0,-2.516 -16.504,0 0,2.516 16.504,0 z m -22.543,-1.2078 -0.1,0 c -1.107,-1.5094 -1.711,-3.0192 -3.12,-5.434 l -1.812,3.0191 c 3.12,3.4215 5.133,7.7489 7.146,14.1899 l 3.421,-1.9121 c -0.201,-0.7047 -0.503,-0.1008 -1.408,-1.2079 0,0 -1.309,-3.1195 -1.51,-4.4281 0,-1.9121 0,-22.3418 0,-22.3418 l -2.617,0 0,18.1149 z m 20.228,-10.2649 -11.875,0 0.101,-4.0258 11.774,0 0,4.0258 z m -32.103,4.0254 0,2.516 -4.931,0 0,-2.516 4.931,0 z m -12.781,0 5.434,0 0,2.516 -5.434,0 0,-2.516 z m 5.434,5.032 0,2.5161 -5.434,0 0,-2.5161 5.434,0 z m 7.347,0 0,2.5161 -4.931,0 0,-2.5161 4.931,0 z m -23.247,10.0637 2.314,1.6102 c 1.51,-1.8114 2.919,-3.2203 4.227,-5.2328 l -2.214,-1.5098 c -1.409,2.2141 -2.516,3.623 -4.327,5.1324 z m 0.1,-26.7695 -2.314,2.1133 c 1.006,0.805 1.308,1.7109 4.126,4.0257 l 0,10.5668 -3.623,0 0,2.3149 6.139,0 0,-13.0832 c 1.207,-1.3082 2.616,-2.2141 4.226,-2.7172 1.611,-0.5031 5.636,-0.7043 9.863,-0.7043 0.906,0 2.919,0.2012 3.824,0.302 l 6.24,0.2011 c -1.006,-0.9058 -1.006,-1.9125 -1.208,-2.9187 l -13.687,-0.2012 c -2.113,0 -4.931,0.5031 -6.34,0.9059 -1.51,0.5031 -2.818,1.7109 -4.126,3.1195 -0.604,-0.4023 -2.717,-3.0191 -3.12,-3.9246 z m -16.706,11.0699 c 0.503,2.2141 0.906,4.1262 0.906,5.6359 l 0,2.9188 -4.932,0 0,2.5156 4.932,0 -0.101,7.7492 3.221,-0.5031 c 1.207,0 0.503,-0.6039 -0.202,-1.0066 l 0,-6.2395 7.146,0 c -0.705,-11.0703 -1.107,-18.2156 -1.208,-19.5238 -0.201,-1.409 -1.509,-2.6164 -3.019,-2.6164 -0.302,0 -1.107,-0.1008 -2.516,0.1004 0.101,1.409 -0.906,2.3148 -1.208,3.1199 0.403,0 1.611,-0.2012 2.315,-0.302 1.409,-0.1003 1.51,0.604 1.711,1.8114 0.302,1.1074 0.402,2.9187 0.604,5.9379 0.1,2.9183 0.201,6.2394 0.402,9.0574 l -4.529,-0.1004 c 0,-5.8371 -0.805,-10.5672 -2.616,-13.5863 -1.61,-2.9188 -3.422,-5.1328 -6.642,-7.0446 l -3.22,2.2137 c 2.012,0.5035 4.226,1.9121 5.333,3.1199 0,0 2.617,2.7172 3.623,6.7426 z m -6.843,-6.4406 c -0.302,0.7047 -0.402,1.107 -0.705,1.7109 -4.428,-1.2078 -4.83,-1.107 -7.3463,-2.0129 l -1.107,-1.2078 -2.0129,3.6231 c 0.3019,0.3019 1.2078,0.3019 1.5097,0.7043 0.7043,0.805 0.8051,1.3086 1.2075,2.9187 0.3019,2.0129 1.0066,4.3274 1.309,6.441 l -3.9255,0 0,2.516 13.2845,0 0,-2.516 -6.743,0 c -0.906,-3.925 -2.013,-9.6613 -2.013,-9.6613 l 5.233,1.3082 c -0.201,0.302 -0.603,2.9184 -1.408,4.5289 l 2.214,0.8051 c 0.805,-2.0129 2.616,-5.9379 3.32,-8.3531 l -2.817,-0.8051 z m -10.0638,19.1211 0,2.4156 11.5728,0 0,-2.4156 -11.5728,0 z m -33.7141,-3.5223 5.3336,0 0,3.925 c -0.8051,-0.1008 -2.0125,-0.3019 -3.8242,-0.6039 l -1.5094,2.3148 c 4.6293,0.5032 7.6485,1.409 10.1645,2.7172 l 2.0125,-2.3148 c -1.7106,-0.8051 -3.2203,-1.107 -4.2266,-1.409 l 0,-4.6293 4.2266,0 0,-2.4152 -4.2266,0 0,-1.8114 0.4024,0.302 c 0.5035,-0.6039 2.516,-2.4156 3.8242,-4.227 l -1.5094,-2.0128 c -1.1066,1.6101 -1.8113,3.321 -2.7172,3.925 l 0,-14.995 -2.6168,0 0,13.586 -0.1004,0 C 68.1066,67.391 66.8992,65.4789 65.1883,63.466 64.9871,63.2648 64.7859,62.2586 64.5844,62.057 l -1.9117,2.516 c 3.0187,3.1196 4.8304,6.2395 6.0378,8.7555 0.1008,0.302 0.1008,0.5031 0.1008,0.9059 l -5.2332,0 0,2.4152 z m 18.9199,5.7367 8.6551,0 0.7043,-0.8054 C 91.6562,80.8766 91.5555,80.675 91.5555,80.2727 89.7438,74.9387 84.5109,71.7184 76.7617,69.3031 l -0.5031,1.3082 -1.2078,1.1071 c 3.1199,0.4027 5.334,1.3082 7.2461,2.3148 -0.2016,1.107 -1.2078,1.9121 -2.7176,2.516 l 1.8117,1.5094 c 1.107,-0.6039 2.2141,-1.6102 3.0192,-2.9184 2.1136,1.6102 3.623,3.1196 4.5289,4.7301 l -7.5481,0 c -1.7105,-1.6105 -2.3148,-2.7176 -3.623,-4.3277 l -2.3145,1.409 c 2.3145,2.3148 4.0254,4.9312 5.5352,7.9504 0,0 -0.1008,1.6101 1.2074,0.9058 1.3086,-0.6039 2.3148,-1.107 2.3148,-1.107 0,-0.5031 -0.7043,-0.4028 -1.0062,-0.9059 -0.302,-0.4023 -0.9059,-1.3082 -1.0067,-1.4086 z m 2.6168,-12.7812 8.0508,0 C 92.4613,65.8812 90.5492,62.5605 87.3289,59.7426 83.102,56.2199 81.391,56.5219 75.9566,55.4152 c -1.107,-0.1007 -0.4027,1.7106 -1.7109,2.7172 5.032,0.302 7.1453,0.7043 9.5609,2.3145 -0.6039,1.107 -1.7113,1.8117 -3.0191,2.8179 l 1.8113,1.6102 c 1.0063,-0.4027 2.3145,-1.8113 3.1196,-3.3211 2.516,2.4152 3.1199,3.6231 4.2269,5.9375 l -6.6418,0 C 81.391,65.7809 79.7809,64.4723 77.0637,62.9629 l -0.6039,0.8051 -1.6102,1.0062 c 2.4152,0.7047 8.1516,4.7301 9.9633,8.0512 l 2.818,-0.4024 c 0.3015,-0.6039 -0.4028,-0.7046 -1.1071,-0.9062 l -1.409,-1.9117 z m -38.4437,-5.334 7.6484,0 0,-2.3145 -17.4105,0 0,2.3145 7.2461,0 0,5.8371 -5.8371,0 0,2.3148 5.8371,0 0,3.6231 -6.8438,0 0,2.3144 16.5051,0 0,-2.3144 -7.1453,0 0,-3.6231 6.3402,0 0,-2.3148 -6.3402,0 0,-5.8371 z m 9.3594,17.209 -20.7321,0 0,-22.5426 20.7321,0 0,22.5426 z m -23.3481,-25.1594 0,27.6754 25.7629,0 0,-27.6754 -25.7629,0 z m 15.3973,12.077 1.5098,1.0062 c 2.0125,-1.2078 2.9187,-1.8117 3.8242,-3.2207 l -2.0129,-1.2074 c -1.3082,1.8113 -1.8113,2.6164 -3.3211,3.4219 z m -31.1977,-1.7114 8.3532,0 0,10.2653 -8.3532,0 0,-10.2653 z m -10.9695,-2.3144 -2.71719,0 0,15.0957 11.06989,0 0,4.2269 c 0,0 -1.4086,2.3145 -0.3019,2.1133 1.9125,-0.4027 2.3148,-0.3019 3.2207,-0.6039 0.7043,-0.1008 -0.302,-1.5094 -0.302,-1.5094 l 0,-4.2269 11.07,0 0,-15.0957 -11.07,0 0.1004,-9.6614 -2.8179,0 0.1007,9.6614 -8.3527,0 z m -0.10078,2.3144 8.45348,0 0,10.2653 -8.45348,0 0,-10.2653 z M 189.175,29.1484 l 0,2.6168 -9.863,0 0,5.9375 9.863,0 0,2.6164 -9.863,0 0,5.7364 9.863,0 0,2.6168 -12.681,0 0,-19.5239 12.681,0 z m -13.586,0 0,2.6168 -8.555,0 0,16.9071 -2.818,0 0,-19.5239 11.373,0 z m -14.09,0 0,19.5239 -2.918,0 0,-19.5239 2.918,0 z m -17.41,8.7555 5.535,0 c 1.006,0 2.315,0 3.22,-1.2078 0.403,-0.5031 0.705,-1.2074 0.705,-1.9117 0,-1.0067 -0.705,-3.0192 -3.522,-3.0192 l -5.938,0 0,6.1387 z m -2.919,-8.7555 8.756,0 c 5.334,0 6.441,3.7235 6.441,5.636 0,3.0191 -2.114,4.3273 -2.919,4.7297 0.704,0.6039 1.812,1.6105 1.812,3.7238 0,1.409 -0.604,5.4344 -6.139,5.4344 l -7.951,0 0,-19.5239 z m 2.919,16.9071 5.032,0 c 0.604,0 3.22,0 3.22,-2.8176 0,-1.107 -0.402,-2.7176 -3.12,-2.7176 l -5.132,0 0,5.5352 z m -7.548,-7.2457 c 0,-3.0192 -2.315,-7.4473 -7.347,-7.4473 -4.931,0 -7.246,4.3273 -7.246,7.548 0,3.1196 2.315,7.4469 7.246,7.4469 4.932,0 7.347,-4.1262 7.347,-7.5476 z m 2.818,0 c 0,5.6359 -4.328,10.1644 -10.165,10.1644 -5.937,0 -10.064,-4.8308 -10.064,-10.0637 0,-5.3339 4.328,-10.064 10.064,-10.064 5.837,0 10.165,4.7301 10.165,9.9633 z m -22.141,-9.6614 0,19.5239 -3.421,0 -7.045,-14.9953 -7.4473,14.9953 -3.3211,0 0,-19.5239 2.818,0 0,14.693 6.6424,-14.693 2.315,0 6.541,14.693 0.1,0 0,-14.693 2.818,0 z m -29.386,0 -8.7558,19.5239 -2.8176,0 -8.8563,-19.5239 3.3211,0 2.5161,5.7364 8.7554,0 2.516,-5.7364 3.3211,0 z m -13.3851,8.3532 3.1199,7.4472 0.1008,0 3.2203,-7.4472 -6.441,0 z m -7.5477,-8.3532 0,19.5239 -3.0191,0 0,-14.8946 -0.1008,0 -11.9758,14.8946 -2.7172,0 0,-19.5239 3.0188,0 0,15.0957 0.1008,0 11.9761,-15.0957 2.7172,0 z m -21.134,0 0,19.5239 -2.8179,0 0,-19.5239 2.8179,0 z m -5.7363,0 0,19.5239 -2.9187,0 0,-7.9504 -11.07,0 0,7.9504 -2.8179,0 0,-19.5239 2.8179,0 0,9.3594 11.07,0 0,-9.3594 2.9187,0 z M 22.0145,43.6402 c -0.5032,0.9059 -1.2079,2.2141 -3.0192,3.4219 -2.1133,1.6102 -4.4281,1.9121 -5.9375,1.9121 -5.43475,0 -9.96327,-4.3273 -9.96327,-9.9633 0,-5.5351 4.42813,-10.1644 9.96327,-10.1644 3.0192,0 6.6422,1.3082 8.8563,5.1328 l -3.5227,0 c -1.3082,-1.6105 -3.2203,-2.6168 -5.3336,-2.6168 -3.82421,0 -7.1453,3.4219 -7.1453,7.548 0,4.1258 3.22031,7.4469 7.2457,7.4469 3.1199,0 4.8305,-2.0125 5.4348,-2.7172 l 3.4215,0"
         id="path3020"
         style="fill:#1d64b8;fill-opacity:1;fill-rule:evenodd;stroke:none" /></g></g></svg>