<?xml version="1.0" encoding="UTF-8" standalone="no"?>
<svg
   xmlns:dc="http://purl.org/dc/elements/1.1/"
   xmlns:cc="http://creativecommons.org/ns#"
   xmlns:rdf="http://www.w3.org/1999/02/22-rdf-syntax-ns#"
   xmlns:svg="http://www.w3.org/2000/svg"
   xmlns="http://www.w3.org/2000/svg"
   xmlns:sodipodi="http://sodipodi.sourceforge.net/DTD/sodipodi-0.dtd"
   xmlns:inkscape="http://www.inkscape.org/namespaces/inkscape"
   width="300"
   height="60"
   viewBox="0 0 612 792"
   version="1.0"
   id="svg2467"
   sodipodi:version="0.32"
   inkscape:version="0.46"
   sodipodi:docname="Gucci Logo.svg"
   inkscape:output_extension="org.inkscape.output.svg.inkscape">
  <metadata
     id="metadata2485">
    <rdf:RDF>
      <cc:Work
         rdf:about="">
        <dc:format>image/svg+xml</dc:format>
        <dc:type
           rdf:resource="http://purl.org/dc/dcmitype/StillImage" />
      </cc:Work>
    </rdf:RDF>
  </metadata>
  <defs
     id="defs2483">
    <inkscape:perspective
       sodipodi:type="inkscape:persp3d"
       inkscape:vp_x="0 : 495 : 1"
       inkscape:vp_y="0 : 1000 : 0"
       inkscape:vp_z="765 : 495 : 1"
       inkscape:persp3d-origin="382.5 : 330 : 1"
       id="perspective2487" />
  </defs>
  <sodipodi:namedview
     inkscape:window-height="773"
     inkscape:window-width="1159"
     inkscape:pageshadow="2"
     inkscape:pageopacity="0.0"
     guidetolerance="10.0"
     gridtolerance="10.0"
     objecttolerance="10.0"
     borderopacity="1.0"
     bordercolor="#666666"
     pagecolor="#ffffff"
     id="base"
     showgrid="false"
     inkscape:zoom="1"
     inkscape:cx="170.02124"
     inkscape:cy="175"
     inkscape:window-x="334"
     inkscape:window-y="101"
     inkscape:current-layer="svg2467" />
  <g
     id="g2495"
     transform="matrix(23.269754,0,0,23.269754,-5670.5727,-8275.583)">
    <path
       style="fill:#211e1e;fill-opacity:1;fill-rule:evenodd;stroke:none"
       d="M 331.31328,361.00234 L 336.95781,361.00234 C 336.33281,361.48672 335.95781,362.08047 335.95781,362.89297 L 335.95781,382.32266 C 335.95781,383.13516 336.34844,383.71328 336.95781,384.19766 L 331.31328,384.19766 C 331.92656,383.71328 332.30156,383.11953 332.30156,382.32266 L 332.30156,362.89297 C 332.30156,362.08047 331.93828,361.48672 331.31328,361.00234"
       id="path2472" />
    <path
       style="fill:#211e1e;fill-opacity:1;fill-rule:evenodd;stroke:none"
       d="M 200.52422,369.35 C 199.60234,367.36562 198.58672,365.40859 196.88359,363.98672 C 195.06719,362.45547 192.77031,361.53359 190.39531,361.53359 C 184.07891,361.53359 181.25078,367.24063 181.25078,372.85 C 181.25078,378.27578 183.95391,383.76016 190.05156,383.76016 C 192.53594,383.76016 194.96172,382.68203 196.49297,380.72891 L 196.49297,376.35391 C 196.49297,375.1625 196.10234,374.39687 195.17656,373.69375 L 201.63359,373.69375 C 200.94609,374.475 200.52422,375.27188 200.52422,376.35391 L 200.52422,380.72891 C 197.57109,383.47891 193.89531,385.16641 189.81719,385.16641 C 182.61016,385.16641 176.71953,379.86953 176.71953,372.49062 C 176.71953,365.15859 182.53203,360.14297 189.64531,360.14297 C 194.06719,360.14297 197.64922,361.76797 200.52422,365.03359 L 200.52422,369.35"
       id="path2474" />
    <path
       style="fill:#211e1e;fill-opacity:1;fill-rule:evenodd;stroke:none"
       d="M 216.34453,361.00234 L 222.42656,361.00234 C 221.59453,361.61172 221.31328,362.29922 221.31328,363.31484 L 221.31328,377.49453 C 221.31328,381.38516 225.87969,383.29141 229.22344,383.29141 C 232.50859,383.29141 236.78984,381.36953 236.78984,377.57266 L 236.78984,363.31484 C 236.78984,362.36172 236.55547,361.70547 235.91484,361.00234 L 239.22734,361.00234 C 238.55547,361.68984 238.30547,362.37734 238.30547,363.31484 L 238.30547,377.57266 C 238.30547,382.69766 232.25859,384.66641 228.06719,384.66641 C 223.75469,384.66641 217.45391,382.76016 217.45391,377.49453 L 217.45391,363.31484 C 217.45391,362.34609 217.06328,361.62734 216.34453,361.00234"
       id="path2476" />
    <path
       style="fill:#211e1e;fill-opacity:1;fill-rule:evenodd;stroke:none"
       d="M 277.24688,369.42812 C 276.43047,367.37734 275.47734,365.58047 273.80547,364.09609 C 272.00859,362.50234 269.82109,361.50234 267.39531,361.50234 C 261.14531,361.50234 257.93828,366.97109 257.93828,372.64688 C 257.93828,378.35391 261.27031,383.74453 267.44219,383.74453 C 272.03984,383.74453 275.32109,380.51016 277.24688,376.61953 L 277.24688,380.83828 C 274.38359,383.66641 270.69609,385.10781 266.66094,385.10781 C 259.19219,385.10781 253.59453,380.27578 253.59453,372.56875 C 253.59453,365.08047 258.97344,360.15859 266.30156,360.15859 C 270.36797,360.15859 274.30547,361.56484 277.24688,364.36172 L 277.24688,369.42812"
       id="path2478" />
    <path
       style="fill:#211e1e;fill-opacity:1;fill-rule:evenodd;stroke:none"
       d="M 316.45,369.42812 C 315.6375,367.37734 314.68437,365.58047 313.0125,364.09609 C 311.21172,362.50234 309.02422,361.50234 306.60234,361.50234 C 300.34844,361.50234 297.16094,366.97109 297.16094,372.64688 C 297.16094,378.35391 300.47344,383.74453 306.64922,383.74453 C 311.24297,383.74453 314.54375,380.51016 316.45,376.61953 L 316.45,380.83828 C 313.59062,383.66641 309.91484,385.10781 305.86797,385.10781 C 298.39531,385.10781 292.79766,380.27578 292.79766,372.56875 C 292.79766,365.08047 298.17656,360.15859 305.50859,360.15859 C 309.57109,360.15859 313.5125,361.56484 316.45,364.36172 L 316.45,369.42812"
       id="path2480" />
  </g>
</svg>
