<?xml version="1.0" encoding="UTF-8" standalone="no"?>
<!-- Created with Inkscape (http://www.inkscape.org/) -->
<svg
   xmlns:svg="http://www.w3.org/2000/svg"
   xmlns="http://www.w3.org/2000/svg"
   version="1.0"
   width="490"
   height="224"
   viewBox="-0.217 -0.017 490 224"
   id="svg2"
   xml:space="preserve">
	<defs
   id="defs4">
	</defs>
	<g
   id="g6">
		<polyline
   fill="#004990"
   points="244.553,7.178 369.891,60.879 442.816,60.879 442.816,83.045 482.461,83.045 482.461,216.51     6.598,216.51 6.598,83.045 46.271,83.045 46.271,60.879 119.221,60.879 "
   id="polyline8"
   style="fill:#004990" />
		<polyline
   fill="#939598"
   points="244.553,7.178 247.148,1.113 371.25,54.275 449.414,54.275 449.414,76.447 489.059,76.447     489.059,223.113 0,223.113 0,76.447 39.668,76.447 39.668,54.275 117.867,54.275 244.553,0 247.148,1.113 244.553,7.178     247.148,13.242 120.574,67.477 52.875,67.477 52.875,89.648 13.201,89.648 13.201,209.912 475.863,209.912 475.863,89.648     436.219,89.648 436.219,67.477 368.537,67.477 241.957,13.242 244.553,7.178 247.148,13.242 244.553,7.178 "
   id="polyline10"
   style="fill:#939598" />
		<polyline
   fill="#004990"
   points="244.553,7.178 369.891,60.879 442.816,60.879 442.816,83.045 482.461,83.045 482.461,216.51     6.598,216.51 6.598,83.045 46.271,83.045 46.271,60.879 119.221,60.879 "
   id="polyline12"
   style="fill:#004990" />
		<polyline
   fill="#CE1141"
   points="244.553,7.178 245.109,5.883 370.184,59.461 444.234,59.461 444.234,81.639 483.879,81.639     483.879,217.922 5.18,217.922 5.18,81.639 44.859,81.639 44.859,59.461 118.934,59.461 244.553,5.643 245.109,5.883     244.553,7.178 245.109,8.473 119.508,62.291 47.689,62.291 47.689,84.463 8.016,84.463 8.016,215.098 481.043,215.098     481.043,84.463 441.398,84.463 441.398,62.291 369.598,62.291 243.996,8.473 244.553,7.178 245.109,8.473 244.553,7.178 "
   id="polyline14"
   style="fill:#ce1141" />
		<path
   d="M 162.375,129.68 L 142.852,129.674 C 142.852,129.674 142.852,160.594 142.852,174.662 C 149.227,174.662 156.188,174.662 162.475,174.557 M 173.883,110.824 C 178.307,111.129 182.356,114.879 183.779,119.004 L 184.828,123.686 L 184.863,184.043 C 183.832,187.904 181.224,191.953 177.187,193.231 L 171.105,194.051 L 131.894,194.151 C 127.992,193.922 124.324,192.856 122.144,189.411 C 120.498,187.53 120.498,185.052 120.41,182.848 L 120.41,119.713 C 120.949,116.233 123.275,112.934 126.644,111.727 L 129.644,110.918 L 173.883,110.824 z "
   style="fill:#ffffff"
   id="path16" />
		<path
   d="M 76.91,92.93 C 76.91,94.055 76.91,173.532 76.91,174.668 L 111.375,174.662 L 111.375,194.139 L 54.387,194.139 L 54.422,92.924"
   style="fill:#ffffff"
   id="path18" />
		<polyline
   fill="#FFFFFF"
   points="379.781,92.93 379.781,116.936 360.311,116.906 360.328,92.924 "
   id="polyline20"
   style="fill:#ffffff" />
		<path
   d="M 433.037,117.855 L 432.973,134.941 C 429.217,133.628 424.606,131.191 420.785,130.078 C 414.258,127.371 403.605,124.359 398.812,129.246 C 397.242,130.6 396.937,132.475 396.867,134.42 C 397.922,140.115 404.59,141.012 408.633,143.795 C 419.121,148.066 433.16,155.268 434.578,168.158 C 436.828,177.685 433.16,186.381 426.105,192.381 C 412.459,203.479 376.81,191.555 376.81,191.555 L 376.839,172.5 C 376.839,172.5 400.616,181.342 406.382,180.311 C 409.605,180.024 412.616,178.061 413.806,175.284 C 414.175,172.659 414.175,170.339 412.458,168.311 C 401.062,159.915 385.851,158.784 377.894,144.991 C 374.144,137.567 374.29,127.079 379.101,120.247 C 385.91,110.351 396.644,107.356 408.486,108.323 C 420.855,110.109 433.037,117.855 433.037,117.855"
   style="fill:#ffffff"
   id="path22" />
		<path
   d="M 253.939,174.557 L 265.851,174.662 L 265.816,110.918 L 289.078,110.918 L 289.078,181.459 C 289.16,186.252 286.799,190.975 282.223,193.078 L 277.723,194.139 L 249.68,194.168 C 246.985,193.418 243.985,190.225 242.403,187.676 C 240.165,191.432 239.18,194.069 234.844,194.151 L 208.324,194.151 C 206.379,193.559 205.295,193.401 204,192.821 C 201.551,191.708 197.613,189.839 197.602,181.407 L 197.59,110.925 L 220.201,110.825 L 220.113,174.663 L 232.863,174.663 L 232.828,110.913 C 240.129,110.925 246.926,110.925 253.84,110.913"
   style="fill:#ffffff"
   id="path24" />
		<path
   d="M 355.066,129.656 L 324.31,129.668 L 324.316,143.174 L 355.066,143.174 L 355.16,161.83 L 324.34,161.9 C 324.34,165.849 324.317,174.644 324.317,174.644 L 355.067,174.662 L 355.067,194.139 L 301.852,194.139 L 301.852,110.918 L 355.067,110.912"
   style="fill:#ffffff"
   id="path26" />
		<path
   d="M 444.275,116.578 C 445.277,116.578 446.179,116.508 446.179,115.295 C 446.179,114.328 445.294,114.152 444.468,114.152 L 442.851,114.152 L 442.851,116.578 M 442.852,120.99 L 441.657,120.99 L 441.657,113.144 L 444.645,113.144 C 446.502,113.144 447.422,113.824 447.422,115.376 C 447.422,116.771 446.543,117.392 445.395,117.532 L 447.622,120.989 L 446.286,120.989 L 444.223,117.591 L 442.852,117.591 L 442.852,120.99 z M 444.287,122.736 C 447.363,122.736 449.789,120.322 449.789,117.047 C 449.789,113.824 447.363,111.404 444.287,111.404 C 441.176,111.404 438.75,113.824 438.75,117.047 C 438.75,120.322 441.176,122.736 444.287,122.736 M 437.379,117.047 C 437.379,113.145 440.549,110.268 444.287,110.268 C 448.002,110.268 451.16,113.145 451.16,117.047 C 451.16,120.99 448.002,123.873 444.287,123.873 C 440.549,123.873 437.379,120.99 437.379,117.047"
   style="fill:#ffffff"
   id="path28" />
	</g>
</svg>