<?xml version="1.0" encoding="UTF-8" standalone="no"?>
<!-- Created with Inkscape (http://www.inkscape.org/) -->
<svg
   xmlns:svg="http://www.w3.org/2000/svg"
   xmlns="http://www.w3.org/2000/svg"
   xmlns:xlink="http://www.w3.org/1999/xlink"
   version="1.0"
   width="245"
   height="211"
   id="svg11557">
  <defs
     id="defs11559">
    <linearGradient
       x1="0"
       y1="0"
       x2="1"
       y2="0"
       id="linearGradient10924"
       gradientUnits="userSpaceOnUse"
       gradientTransform="matrix(6.880966,0.360611,0.360611,-6.880966,518.12225,748.70996)"
       spreadMethod="pad">
      <stop
         id="stop10926"
         style="stop-color:#fbd1c0;stop-opacity:1"
         offset="0" />
      <stop
         id="stop10928"
         style="stop-color:#f7a185;stop-opacity:1"
         offset="1" />
    </linearGradient>
    <clipPath
       id="clipPath10912">
      <path
         d="M 516.952,759.947 L 524.925,760.365 L 526.106,737.831 L 518.133,737.413"
         id="path10914" />
    </clipPath>
    <linearGradient
       x1="0"
       y1="0"
       x2="1"
       y2="0"
       id="linearGradient10900"
       gradientUnits="userSpaceOnUse"
       gradientTransform="matrix(-11.18045,30.718033,30.718033,11.18045,520.34442,733.5791)"
       spreadMethod="pad">
      <stop
         id="stop10902"
         style="stop-color:#fff7f4;stop-opacity:1"
         offset="0" />
      <stop
         id="stop10904"
         style="stop-color:#f16548;stop-opacity:1"
         offset="1" />
    </linearGradient>
    <clipPath
       id="clipPath10888">
      <path
         d="M 507.213,726.285 L 494.136,762.214 L 519.632,771.493 L 532.71,735.564"
         id="path10890" />
    </clipPath>
    <linearGradient
       x1="0"
       y1="0"
       x2="1"
       y2="0"
       id="linearGradient10876"
       gradientUnits="userSpaceOnUse"
       gradientTransform="matrix(13.500977,0,0,-13.500977,501.11792,748.88818)"
       spreadMethod="pad">
      <stop
         id="stop10878"
         style="stop-color:#f59578;stop-opacity:1"
         offset="0" />
      <stop
         id="stop10880"
         style="stop-color:#fde4d8;stop-opacity:1"
         offset="1" />
    </linearGradient>
    <clipPath
       id="clipPath10864">
      <path
         d="M 501.118,768.083 L 514.619,768.083 L 514.619,729.694 L 501.118,729.694 L 501.118,768.083 z"
         id="path10866" />
    </clipPath>
    <linearGradient
       x1="0"
       y1="0"
       x2="1"
       y2="0"
       id="linearGradient10850"
       gradientUnits="userSpaceOnUse"
       gradientTransform="matrix(14.381058,33.074173,33.074173,-14.381058,525.77222,732.56982)"
       spreadMethod="pad">
      <stop
         id="stop10852"
         style="stop-color:#fdc678;stop-opacity:1"
         offset="0" />
      <stop
         id="stop10854"
         style="stop-color:#ee4022;stop-opacity:1"
         offset="1" />
    </linearGradient>
    <clipPath
       id="clipPath10838">
      <path
         d="M 507.327,735.645 L 525.601,777.672 L 561.342,762.132 L 543.068,720.105"
         id="path10840" />
    </clipPath>
    <linearGradient
       x1="0"
       y1="0"
       x2="1"
       y2="0"
       id="linearGradient10826"
       gradientUnits="userSpaceOnUse"
       gradientTransform="matrix(0,-9.792969,-9.792969,0,524.31323,769.80127)"
       spreadMethod="pad">
      <stop
         id="stop10828"
         style="stop-color:#f8b091;stop-opacity:1"
         offset="0" />
      <stop
         id="stop10830"
         style="stop-color:#f37c55;stop-opacity:1"
         offset="1" />
    </linearGradient>
    <clipPath
       id="clipPath10814">
      <path
         d="M 514.619,769.801 L 534.007,769.801 L 534.007,760.008 L 514.619,760.008 L 514.619,769.801 z"
         id="path10816" />
    </clipPath>
    <linearGradient
       x1="0"
       y1="0"
       x2="1"
       y2="0"
       id="linearGradient10802"
       gradientUnits="userSpaceOnUse"
       gradientTransform="matrix(7.013702,8.358597,8.358597,-7.013702,520.8064,726.30225)"
       spreadMethod="pad">
      <stop
         id="stop10804"
         style="stop-color:#fff7f4;stop-opacity:1"
         offset="0" />
      <stop
         id="stop10806"
         style="stop-color:#fbccb5;stop-opacity:1"
         offset="1" />
    </linearGradient>
    <clipPath
       id="clipPath10790">
      <path
         d="M 509.797,732.023 L 522.63,747.317 L 538.829,733.724 L 525.996,718.43"
         id="path10792" />
    </clipPath>
    <linearGradient
       x1="0"
       y1="0"
       x2="1"
       y2="0"
       id="linearGradient10776"
       gradientUnits="userSpaceOnUse"
       gradientTransform="matrix(0,7.716797,7.716797,0,526.15015,766.28272)"
       spreadMethod="pad">
      <stop
         id="stop10778"
         style="stop-color:#fffcf7;stop-opacity:1"
         offset="0" />
      <stop
         id="stop10780"
         style="stop-color:#ffe9c9;stop-opacity:1"
         offset="1" />
    </linearGradient>
    <clipPath
       id="clipPath10764">
      <path
         d="M 542.261,766.283 L 510.04,766.283 L 510.04,774 L 542.261,774 L 542.261,766.283 z"
         id="path10766" />
    </clipPath>
    <linearGradient
       x1="0"
       y1="0"
       x2="1"
       y2="0"
       id="linearGradient10752"
       gradientUnits="userSpaceOnUse"
       gradientTransform="matrix(5.95636,-13.070023,-13.070023,-5.95636,523.35522,735.76172)"
       spreadMethod="pad">
      <stop
         id="stop10754"
         style="stop-color:#fffcf7;stop-opacity:1"
         offset="0" />
      <stop
         id="stop10756"
         style="stop-color:#ffeed6;stop-opacity:1"
         offset="1" />
    </linearGradient>
    <clipPath
       id="clipPath10740">
      <path
         d="M 536.72,743.654 L 545.173,725.105 L 515.581,711.619 L 507.128,730.168"
         id="path10742" />
    </clipPath>
    <linearGradient
       x1="0"
       y1="0"
       x2="1"
       y2="0"
       id="linearGradient11748"
       xlink:href="#linearGradient10752"
       gradientUnits="userSpaceOnUse"
       gradientTransform="matrix(5.95636,-13.070023,-13.070023,-5.95636,523.35522,735.76172)"
       spreadMethod="pad" />
    <linearGradient
       x1="0"
       y1="0"
       x2="1"
       y2="0"
       id="linearGradient11750"
       xlink:href="#linearGradient10776"
       gradientUnits="userSpaceOnUse"
       gradientTransform="matrix(0,7.716797,7.716797,0,526.15015,766.28272)"
       spreadMethod="pad" />
    <linearGradient
       x1="0"
       y1="0"
       x2="1"
       y2="0"
       id="linearGradient11752"
       xlink:href="#linearGradient10802"
       gradientUnits="userSpaceOnUse"
       gradientTransform="matrix(7.013702,8.358597,8.358597,-7.013702,520.8064,726.30225)"
       spreadMethod="pad" />
    <linearGradient
       x1="0"
       y1="0"
       x2="1"
       y2="0"
       id="linearGradient11754"
       xlink:href="#linearGradient10826"
       gradientUnits="userSpaceOnUse"
       gradientTransform="matrix(0,-9.792969,-9.792969,0,524.31323,769.80127)"
       spreadMethod="pad" />
    <linearGradient
       x1="0"
       y1="0"
       x2="1"
       y2="0"
       id="linearGradient11756"
       xlink:href="#linearGradient10850"
       gradientUnits="userSpaceOnUse"
       gradientTransform="matrix(14.381058,33.074173,33.074173,-14.381058,525.77222,732.56982)"
       spreadMethod="pad" />
    <linearGradient
       x1="0"
       y1="0"
       x2="1"
       y2="0"
       id="linearGradient11758"
       xlink:href="#linearGradient10876"
       gradientUnits="userSpaceOnUse"
       gradientTransform="matrix(13.500977,0,0,-13.500977,501.11792,748.88818)"
       spreadMethod="pad" />
    <linearGradient
       x1="0"
       y1="0"
       x2="1"
       y2="0"
       id="linearGradient11760"
       xlink:href="#linearGradient10900"
       gradientUnits="userSpaceOnUse"
       gradientTransform="matrix(-11.18045,30.718033,30.718033,11.18045,520.34442,733.5791)"
       spreadMethod="pad" />
    <linearGradient
       x1="0"
       y1="0"
       x2="1"
       y2="0"
       id="linearGradient11762"
       xlink:href="#linearGradient10924"
       gradientUnits="userSpaceOnUse"
       gradientTransform="matrix(6.880966,0.360611,0.360611,-6.880966,518.12225,748.70996)"
       spreadMethod="pad" />
  </defs>
  <g
     transform="translate(-282.89777,-366.19533)"
     id="layer1">
    <path
       d="M 497.74746,430.32666 C 497.74746,406.19569 480.84378,386.01546 458.24509,380.96147 C 472.40087,392.72944 481.43371,410.46822 481.43371,430.32666 C 481.43371,450.18256 472.40087,467.91623 458.24509,479.68164 C 480.84378,474.62765 497.74746,454.45764 497.74746,430.32666"
       id="path10734"
       style="fill:#fcb131;fill-opacity:1;fill-rule:nonzero;stroke:none" />
    <g
       transform="matrix(2.5538125,0,0,-2.5538125,-926.58783,2342.8462)"
       id="g10736">
      <g
         clip-path="url(#clipPath10740)"
         id="g10738">
        <g
           id="g10744">
          <g
             id="g10750">
            <path
               d="M 534.007,729.47 C 531.603,728.509 528.978,727.977 526.228,727.977 C 521.934,727.977 517.94,729.274 514.619,731.495 C 513.19,730.713 511.653,730.105 510.04,729.694 C 514.41,726.004 520.06,723.778 526.228,723.778 C 532.324,723.778 537.911,725.951 542.261,729.562 C 540.866,729.249 539.411,729.083 537.924,729.083 C 536.579,729.083 535.268,729.217 534.007,729.47"
               id="path10758"
               style="fill:url(#linearGradient11748);stroke:none" />
          </g>
        </g>
      </g>
    </g>
    <g
       transform="matrix(2.5538125,0,0,-2.5538125,-926.58783,2342.8462)"
       id="g10760">
      <g
         clip-path="url(#clipPath10764)"
         id="g10762">
        <g
           id="g10768">
          <g
             id="g10774">
            <path
               d="M 526.228,769.801 C 528.978,769.801 531.603,769.269 534.007,768.307 C 535.268,768.559 536.579,768.696 537.924,768.696 C 539.411,768.696 540.866,768.527 542.261,768.218 C 537.911,771.828 532.324,774 526.228,774 C 520.06,774 514.41,771.775 510.04,768.083 C 511.653,767.67 513.19,767.06 514.619,766.283 C 517.94,768.503 521.934,769.801 526.228,769.801"
               id="path10782"
               style="fill:url(#linearGradient11750);stroke:none" />
          </g>
        </g>
      </g>
    </g>
    <path
       d="M 481.43371,430.32666 C 481.43371,410.46822 472.40087,392.72944 458.24509,380.96147 C 454.68252,380.17234 450.96672,379.74075 447.16921,379.74075 C 443.73433,379.74075 440.38628,380.09062 437.16592,380.73418 C 456.82262,388.61524 470.70514,407.84801 470.70514,430.32666 C 470.70514,452.80532 456.82262,472.03553 437.16592,479.9166 C 440.38628,480.56271 443.73433,480.90492 447.16921,480.90492 C 450.96672,480.90492 454.68252,480.48099 458.24509,479.68164 C 472.40087,467.91623 481.43371,450.18256 481.43371,430.32666"
       id="path10784"
       style="fill:#ffd596;fill-opacity:1;fill-rule:nonzero;stroke:none" />
    <g
       transform="matrix(2.5538125,0,0,-2.5538125,-926.58783,2342.8462)"
       id="g10786">
      <g
         clip-path="url(#clipPath10790)"
         id="g10788">
        <g
           id="g10794">
          <g
             id="g10800">
            <path
               d="M 521.529,737.77 C 519.76,735.167 517.391,733.008 514.619,731.495 C 517.94,729.274 521.934,727.977 526.228,727.977 C 528.978,727.977 531.603,728.509 534.007,729.47 C 528.836,730.508 524.39,733.557 521.529,737.77"
               id="path10808"
               style="fill:url(#linearGradient11752);stroke:none" />
          </g>
        </g>
      </g>
    </g>
    <g
       transform="matrix(2.5538125,0,0,-2.5538125,-926.58783,2342.8462)"
       id="g10810">
      <g
         clip-path="url(#clipPath10814)"
         id="g10812">
        <g
           id="g10818">
          <g
             id="g10824">
            <path
               d="M 514.619,766.283 C 517.391,764.769 519.76,762.609 521.529,760.008 C 524.39,764.22 528.836,767.269 534.007,768.307 C 531.603,769.269 528.978,769.801 526.228,769.801 C 521.934,769.801 517.94,768.503 514.619,766.283"
               id="path10832"
               style="fill:url(#linearGradient11754);stroke:none" />
          </g>
        </g>
      </g>
    </g>
    <g
       transform="matrix(2.5538125,0,0,-2.5538125,-926.58783,2342.8462)"
       id="g10834">
      <g
         clip-path="url(#clipPath10838)"
         id="g10836">
        <g
           id="g10842">
          <g
             id="g10848">
            <path
               d="M 521.529,760.008 C 523.685,756.838 524.944,753.012 524.944,748.888 C 524.944,744.764 523.685,740.938 521.529,737.77 C 524.39,733.557 528.836,730.508 534.007,729.47 C 541.704,732.556 547.14,740.086 547.14,748.888 C 547.14,757.69 541.704,765.221 534.007,768.307 C 528.836,767.269 524.39,764.22 521.529,760.008"
               id="path10856"
               style="fill:url(#linearGradient11756);stroke:none" />
          </g>
        </g>
      </g>
    </g>
    <path
       d="M 353.17358,430.32666 C 353.17358,410.66486 362.0251,393.06909 375.9587,381.30623 C 371.95432,380.28982 367.76607,379.74075 363.44246,379.74075 C 335.50886,379.74075 312.86421,402.38796 312.86421,430.32666 C 312.86421,458.26282 335.50886,480.90492 363.44246,480.90492 C 367.76607,480.90492 371.95432,480.36096 375.9587,479.34454 C 362.0251,467.58168 353.17358,449.98591 353.17358,430.32666"
       id="path10858"
       style="fill:#ee3224;fill-opacity:1;fill-rule:nonzero;stroke:none" />
    <g
       transform="matrix(2.5538125,0,0,-2.5538125,-926.58783,2342.8462)"
       id="g10860">
      <g
         clip-path="url(#clipPath10864)"
         id="g10862">
        <g
           id="g10868">
          <g
             id="g10874">
            <path
               d="M 505.317,748.888 C 505.317,756.143 509.01,762.533 514.619,766.283 C 513.19,767.06 511.653,767.67 510.04,768.083 C 504.584,763.477 501.118,756.587 501.118,748.888 C 501.118,741.19 504.584,734.3 510.04,729.694 C 511.653,730.105 513.19,730.713 514.619,731.495 C 509.01,735.247 505.317,741.634 505.317,748.888"
               id="path10882"
               style="fill:url(#linearGradient11758);stroke:none" />
          </g>
        </g>
      </g>
    </g>
    <g
       transform="matrix(2.5538125,0,0,-2.5538125,-926.58783,2342.8462)"
       id="g10884">
      <g
         clip-path="url(#clipPath10888)"
         id="g10886">
        <g
           id="g10892">
          <g
             id="g10898">
            <path
               d="M 521.529,737.77 C 519.376,740.938 518.114,744.764 518.114,748.888 C 518.114,753.012 519.376,756.838 521.529,760.008 C 519.76,762.609 517.391,764.769 514.619,766.283 C 509.01,762.533 505.317,756.143 505.317,748.888 C 505.317,741.634 509.01,735.247 514.619,731.495 C 517.391,733.008 519.76,735.167 521.529,737.77"
               id="path10906"
               style="fill:url(#linearGradient11760);stroke:none" />
          </g>
        </g>
      </g>
    </g>
    <g
       transform="matrix(2.5538125,0,0,-2.5538125,-926.58783,2342.8462)"
       id="g10908">
      <g
         clip-path="url(#clipPath10912)"
         id="g10910">
        <g
           id="g10916">
          <g
             id="g10922">
            <path
               d="M 521.529,737.77 C 523.685,740.938 524.944,744.764 524.944,748.888 C 524.944,753.012 523.685,756.838 521.529,760.008 C 519.376,756.838 518.114,753.012 518.114,748.888 C 518.114,744.764 519.376,740.938 521.529,737.77"
               id="path10930"
               style="fill:url(#linearGradient11762);stroke:none" />
          </g>
        </g>
      </g>
    </g>
    <path
       d="M 461.24327,482.94797 L 461.89704,482.94797 L 462.49974,484.50835 L 463.09478,482.94797 L 463.746,482.94797 L 463.746,485.25662 L 463.32718,485.25662 L 463.32718,483.49449 L 463.31696,483.49449 L 462.66319,485.25662 L 462.32608,485.25662 L 461.67486,483.49449 L 461.66209,483.49449 L 461.66209,485.25662 L 461.24327,485.25662 L 461.24327,482.94797 z M 459.56796,483.34381 L 458.86567,483.34381 L 458.86567,482.94797 L 460.69675,482.94797 L 460.69675,483.34381 L 459.99445,483.34381 L 459.99445,485.25662 L 459.56796,485.25662"
       id="path10940"
       style="fill:#fcb131;fill-opacity:1;fill-rule:nonzero;stroke:none" />
    <path
       d="M 485.39978,559.93265 C 482.23305,559.93265 480.74418,563.319 480.74418,565.70682 L 489.56505,565.70682 C 489.56505,563.06618 488.5614,559.93265 485.39978,559.93265 M 480.77993,568.01547 C 480.77993,571.43757 482.9379,574.15228 486.55155,574.15228 C 488.22174,574.15228 490.45633,573.66705 491.94775,572.84983 L 492.16227,575.75096 C 490.30821,576.46348 487.96381,576.76227 485.9514,576.76227 C 479.8529,576.76227 476.94666,572.77577 476.94666,566.97351 C 476.94666,561.87355 480.18489,557.36862 485.35892,557.36862 C 490.91091,557.36862 493.13783,561.64626 493.13783,566.89179 L 493.13783,568.01547 L 480.77993,568.01547 z M 464.58876,560.234 C 460.7606,560.234 459.94082,563.89106 459.94082,567.00671 C 459.94082,570.06362 460.83976,573.89434 464.62707,573.89434 C 468.24071,573.89434 469.34907,569.9487 469.34907,567.00671 C 469.34907,564.02896 468.2024,560.234 464.58876,560.234 M 469.68872,576.34856 L 469.46654,573.2661 C 468.30711,575.60284 466.19255,576.76227 463.62597,576.76227 C 457.99992,576.76227 455.91857,571.88449 455.91857,566.97351 C 455.91857,562.01911 457.99992,557.36862 463.62597,557.36862 C 465.93207,557.36862 468.30711,558.63276 469.23925,560.82138 L 469.23925,549.5182 L 472.96271,549.5182 L 472.96271,570.77103 C 472.96271,572.81663 473.04188,574.59664 473.15425,576.34856 L 469.68872,576.34856 z M 448.7066,557.74148 L 452.43517,557.74148 L 452.43517,576.34856 L 448.7066,576.34856 L 448.7066,557.74148 z M 448.7066,550.30222 L 452.43517,550.30222 L 452.43517,553.91076 L 448.7066,553.91076 L 448.7066,550.30222 z M 439.6942,576.34856 L 435.07946,576.34856 L 430.76607,560.86224 L 426.3684,576.34856 L 421.746,576.34856 L 416.09186,557.74148 L 420.00686,557.74148 L 424.28194,573.18694 L 428.63874,557.74148 L 433.11047,557.74148 L 437.45961,573.18694 L 441.69894,557.74148 L 445.23342,557.74148 L 439.6942,576.34856 z M 404.77847,560.234 C 400.95031,560.234 400.12798,563.89106 400.12798,567.00671 C 400.12798,570.06362 401.02947,573.89434 404.81933,573.89434 C 408.42532,573.89434 409.55155,569.9487 409.55155,567.00671 C 409.55155,564.02896 408.39212,560.234 404.77847,560.234 M 409.87588,576.34856 L 409.66136,573.2661 C 408.50193,575.60284 406.37971,576.76227 403.81824,576.76227 C 398.19985,576.76227 396.10062,571.88449 396.10062,566.97351 C 396.10062,562.01911 398.19985,557.36862 403.81824,557.36862 C 406.12178,557.36862 408.50193,558.63276 409.44173,560.82138 L 409.44173,549.5182 L 413.16519,549.5182 L 413.16519,570.77103 C 413.16519,572.81663 413.23159,574.59664 413.3414,576.34856 L 409.87588,576.34856 z M 390.14257,576.34856 L 388.41109,576.34856 L 388.41109,549.5182 L 392.13455,549.5182 L 392.13455,576.34856 L 390.14257,576.34856 z M 384.18708,561.05377 C 383.69675,560.86224 383.17833,560.82138 382.65224,560.82138 C 379.0105,560.82138 378.05027,564.58825 378.05027,567.49193 L 378.05027,576.34856 L 374.31915,576.34856 L 374.31915,562.01911 C 374.31915,560.6043 374.28084,559.1614 374.13272,557.74148 L 377.62889,557.74148 L 377.74637,561.31426 C 378.53039,559.34783 380.42787,557.36862 382.80291,557.36862 C 383.32389,557.36862 383.85509,557.36862 384.37351,557.51419 L 384.18708,561.05377 z M 361.63436,560.16249 C 357.91601,560.16249 356.5012,563.70463 356.5012,566.97351 C 356.5012,570.319 357.91601,573.93265 361.63436,573.93265 C 365.36548,573.93265 366.77774,570.39817 366.77774,566.97351 C 366.77774,563.66122 365.47019,560.16249 361.63436,560.16249 M 361.63436,576.76227 C 355.68398,576.76227 352.4815,572.62765 352.4815,566.97351 C 352.4815,561.31426 356.05939,557.36862 361.63436,557.36862 C 367.51835,557.36862 370.78978,561.16103 370.78978,566.97351 C 370.78978,572.62765 367.51835,576.76227 361.63436,576.76227 M 345.49938,576.34856 L 340.87442,576.34856 L 335.06961,555.36132 L 329.22904,576.34856 L 324.57854,576.34856 L 317.66027,551.5255 L 321.67741,551.5255 L 327.15023,572.48464 L 332.9908,551.5255 L 337.3757,551.5255 L 343.15242,572.48464 L 348.65589,551.5255 L 352.37935,551.5255"
       id="path10942"
       style="fill:#000000;fill-opacity:1;fill-rule:nonzero;stroke:none" />
    <path
       d="M 516.2294,519.9425 C 511.99518,519.9425 511.18562,524.23035 511.18562,527.6116 C 511.18562,531.00561 512.0386,535.48245 516.27793,535.48245 C 520.32061,535.48245 521.36257,530.87026 521.36257,527.6116 C 521.36257,524.32229 520.32061,519.9425 516.2294,519.9425 M 521.86822,539.47916 L 521.63582,535.62546 C 520.18015,538.58788 517.40671,540.0078 514.15571,540.0078 C 506.91054,540.0078 504.22904,533.92462 504.22904,527.5784 C 504.22904,521.26282 507.00759,515.37628 514.11229,515.37628 C 517.07727,515.37628 520.03969,516.96731 521.217,519.75352 L 521.217,505.539 L 527.7139,505.539 L 527.7139,532.88777 C 527.7139,535.57439 527.74965,537.56636 527.89777,539.47916 L 521.86822,539.47916 z M 502.11193,521.40073 C 501.44794,521.17599 500.74308,521.07895 500.08675,521.07895 C 495.70697,521.07895 494.25385,525.2672 494.25385,528.93958 L 494.25385,539.47916 L 487.75439,539.47916 L 487.75439,521.12236 C 487.75439,519.37555 487.70842,517.64151 487.522,515.8896 L 493.64093,515.8896 L 493.78139,520.46092 C 494.86676,517.87391 497.21627,515.33031 500.41875,515.33031 C 501.07508,515.33031 501.67523,515.37628 502.2958,515.5576 L 502.11193,521.40073 z M 476.7066,528.22962 L 475.85363,528.22962 C 472.55921,528.22962 467.43626,528.61269 467.43626,532.70645 C 467.43626,535.00744 469.3695,535.95235 471.34359,535.95235 C 475.29434,535.95235 476.7066,532.88777 476.7066,529.41204 L 476.7066,528.22962 z M 476.89558,539.47916 L 476.75002,535.80423 C 475.15644,538.35549 472.22721,540.0078 469.22138,540.0078 C 464.89011,540.0078 461.22284,537.88303 461.22284,533.16614 C 461.22284,526.91185 467.24728,524.78708 473.88464,524.78708 C 474.72484,524.78708 475.81021,524.84327 476.7066,524.89434 L 476.7066,524.08478 C 476.7066,520.78526 474.6278,519.37555 471.19803,519.37555 C 468.79744,519.37555 466.25895,519.9425 464.0448,521.26282 L 463.76899,516.88559 C 466.21043,516.03517 469.46143,515.37628 472.03823,515.37628 C 478.39212,515.37628 482.95833,517.64151 482.95833,524.55724 L 482.95833,533.92462 C 482.95833,536.33287 483.00686,537.88303 483.19839,539.47916 L 476.89558,539.47916 z M 450.46873,540.0078 C 440.35563,540.0078 433.29945,534.21065 433.29945,523.80386 C 433.29945,513.96147 440.87917,507.60758 450.46873,507.60758 C 452.96381,507.60758 455.98241,508.03407 458.33192,508.74403 L 458.03568,513.96147 C 456.11521,513.15957 453.67377,512.68967 451.55155,512.68967 C 444.87077,512.68967 440.58803,517.25589 440.58803,523.80386 C 440.58803,530.53316 444.59496,534.91806 451.41875,534.91806 C 453.71718,534.91806 456.02327,534.53498 458.14038,533.60029 L 458.41875,538.68748 C 456.07435,539.62729 453.05574,540.0078 450.46873,540.0078 M 429.81094,521.40073 C 429.15461,521.17599 428.44976,521.07895 427.79088,521.07895 C 423.41109,521.07895 421.95797,525.2672 421.95797,528.93958 L 421.95797,539.47916 L 415.46618,539.47916 L 415.46618,521.12236 C 415.46618,519.37555 415.41765,517.64151 415.22612,515.8896 L 421.34761,515.8896 L 421.49062,520.46092 C 422.56322,517.87391 424.93316,515.33031 428.11776,515.33031 C 428.78431,515.33031 429.38701,515.37628 430.00503,515.5576 L 429.81094,521.40073 z M 400.86092,519.29128 C 397.24472,519.29128 395.73542,523.04793 395.73542,525.82393 L 405.47566,525.82393 C 405.47566,522.8564 404.44137,519.29128 400.86092,519.29128 M 395.73542,529.31244 C 395.78139,533.42408 398.78978,535.95235 402.79671,535.95235 C 405.05428,535.95235 407.92477,535.44159 409.89631,534.35111 L 410.18234,538.73601 C 407.5417,539.66559 404.29835,540.0078 401.48405,540.0078 C 393.56723,540.0078 389.28704,535.3854 389.28704,527.5784 C 389.28704,520.55031 393.99117,515.37628 400.81495,515.37628 C 408.39212,515.37628 411.40561,520.69587 411.40561,527.85676 L 411.40561,529.31244 L 395.73542,529.31244 z M 381.38555,540.0078 C 376.01488,540.0078 374.69456,536.56271 374.69456,531.62364 L 374.69456,520.13148 L 370.45779,520.13148 L 370.45779,515.84618 L 374.69456,515.84618 L 374.69456,511.03991 L 381.18891,508.93046 L 381.18891,515.84618 L 386.45742,515.84618 L 386.45742,520.13148 L 381.18891,520.13148 L 381.18891,531.70791 C 381.18891,533.69478 381.70478,535.29347 384.01598,535.29347 C 384.9047,535.29347 385.79854,535.10448 386.59277,534.77504 L 386.78942,539.10631 C 385.1039,539.66559 383.163,540.0078 381.38555,540.0078 M 358.32973,540.0078 C 355.65844,540.0078 352.97694,539.62729 350.441,538.82794 L 350.71426,534.30769 C 352.79051,535.3854 355.41838,535.95235 357.77044,535.95235 C 359.93863,535.95235 362.24472,535.20153 362.24472,532.94396 C 362.24472,528.13513 350.34396,530.0607 350.34396,522.38905 C 350.34396,517.06691 356.0313,515.33031 360.36001,515.33031 C 362.67121,515.33031 365.11521,515.7568 367.3166,516.40802 L 367.04078,520.59883 C 365.15607,519.85312 362.85764,519.37555 360.78905,519.37555 C 358.99627,519.37555 356.50886,519.85312 356.50886,522.20262 C 356.50886,525.97205 368.40963,524.41678 368.40963,532.4664 C 368.40963,537.97752 363.08748,540.0078 358.32973,540.0078 M 339.85545,528.22962 L 339.00248,528.22962 C 335.70806,528.22962 330.58,528.61269 330.58,532.70645 C 330.58,535.00744 332.50813,535.95235 334.48223,535.95235 C 338.43808,535.95235 339.85545,532.88777 339.85545,529.41204 L 339.85545,528.22962 z M 340.03422,539.47916 L 339.90397,535.80423 C 338.29507,538.35549 335.38117,540.0078 332.37278,540.0078 C 328.03385,540.0078 324.37935,537.88303 324.37935,533.16614 C 324.37935,526.91185 330.39613,524.78708 337.02583,524.78708 C 337.88135,524.78708 338.9514,524.84327 339.85545,524.89434 L 339.85545,524.08478 C 339.85545,520.78526 337.77665,519.37555 334.34177,519.37555 C 331.94119,519.37555 329.39759,519.9425 327.1962,521.26282 L 326.90507,516.88559 C 329.35928,516.03517 332.59752,515.37628 335.19985,515.37628 C 341.53841,515.37628 346.10718,517.64151 346.10718,524.55724 L 346.10718,533.92462 C 346.10718,536.33287 346.1506,537.88303 346.34724,539.47916 L 340.03422,539.47916 z M 313.66355,539.47916 L 313.61758,512.55177 L 304.40087,539.47916 L 298.28194,539.47916 L 289.06267,512.55177 L 289.06267,539.47916 L 282.89777,539.47916 L 282.89777,508.06472 L 293.29179,508.06472 L 301.53039,531.95308 L 309.67194,508.06472 L 320.07106,508.06472 L 320.07106,539.47916"
       id="path10944"
       style="fill:#000000;fill-opacity:1;fill-rule:nonzero;stroke:none" />
  </g>
</svg>
