<?xml version="1.0" encoding="utf-8"?>
<!-- Generator: Adobe Illustrator 14.0.0, SVG Export Plug-In . SVG Version: 6.00 Build 43363)  -->
<!DOCTYPE svg PUBLIC "-//W3C//DTD SVG 1.1//EN" "http://www.w3.org/Graphics/SVG/1.1/DTD/svg11.dtd">
<svg version="1.1" id="Layer_1" xmlns="http://www.w3.org/2000/svg" xmlns:xlink="http://www.w3.org/1999/xlink" x="0px" y="0px"
	 width="200px" height="45px" viewBox="0 0 200 45" enable-background="new 0 0 200 45" xml:space="preserve">
<g>
	<defs>
		<rect id="SVGID_1_" y="1.565" width="200" height="41.869"/>
	</defs>
	<clipPath id="SVGID_2_">
		<use xlink:href="#SVGID_1_"  overflow="visible"/>
	</clipPath>
	<path clip-path="url(#SVGID_2_)" fill-rule="evenodd" clip-rule="evenodd" fill="#F15A22" d="M57.007,43.01h1.34v-3.092h2.68
		v-0.825h-2.68v-2.474h2.68v-0.928h-4.02V43.01z M61.026,39.918h1.031c1.442,0,2.885-0.619,2.885-2.062
		c0-1.648-1.442-2.165-2.68-2.165h-1.236v0.928h0.721c1.34,0,1.855,0.413,1.855,1.237c0,0.825-0.824,1.236-2.061,1.236h-0.516
		V39.918z"/>
	<rect x="67.107" y="35.691" clip-path="url(#SVGID_2_)" fill="#F15A22" width="1.442" height="7.317"/>
	<polygon clip-path="url(#SVGID_2_)" fill-rule="evenodd" clip-rule="evenodd" fill="#F15A22" points="71.436,43.01 72.776,43.01 
		72.776,37.239 78.342,43.01 79.681,43.01 79.681,35.692 78.444,35.692 78.444,41.464 78.342,41.464 72.878,35.692 71.436,35.692 	
		"/>
	<path clip-path="url(#SVGID_2_)" fill-rule="evenodd" clip-rule="evenodd" fill="#F15A22" d="M91.121,43.112h1.236v-3.916h-4.844
		v0.824h3.607c0,1.547-1.546,2.371-3.709,2.371c-2.578,0-3.711-1.443-3.711-3.093c0-1.546,1.444-2.886,3.711-2.886
		c1.957,0,3.091,0.619,3.503,1.547l1.442-0.207c-0.824-1.442-2.679-2.164-4.946-2.164c-3.299,0-5.258,1.958-5.258,3.814
		c0,2.268,2.063,3.813,5.258,3.813c1.442,0,2.884-0.309,3.709-1.236V43.112z"/>
	<path clip-path="url(#SVGID_2_)" fill-rule="evenodd" clip-rule="evenodd" fill="#F15A22" d="M99.058,43.011h1.442l1.236-2.165
		h1.959v-0.928h-1.547c0,0,1.342-2.474,1.547-2.886v-1.341h-0.619L99.058,43.011z M103.695,40.846h1.959l1.133,2.165h1.547
		l-3.814-7.319h-0.824v1.341c0-0.103,0.104-0.103,0.104-0.103l1.441,2.988h-1.545V40.846z"/>
	<polygon clip-path="url(#SVGID_2_)" fill-rule="evenodd" clip-rule="evenodd" fill="#F15A22" points="110.189,43.01 111.527,43.01 
		111.527,37.239 116.99,43.01 118.432,43.01 118.432,35.692 117.094,35.692 117.094,41.464 111.631,35.692 110.189,35.692 	"/>
	<path clip-path="url(#SVGID_2_)" fill-rule="evenodd" clip-rule="evenodd" fill="#F15A22" d="M125.51,39.402
		c0,2.268,2.063,3.813,5.258,3.813v-0.825c-2.576,0-3.711-1.442-3.711-2.988c0-1.648,1.135-3.093,3.711-3.093v-0.721
		C127.572,35.589,125.51,37.136,125.51,39.402 M130.768,43.216L130.768,43.216c3.297,0,5.256-1.546,5.256-3.813
		c0-2.267-1.959-3.813-5.256-3.813v0.721c2.574,0,3.709,1.444,3.709,3.093c0,1.546-1.135,2.988-3.709,2.988V43.216z"/>
	<polygon clip-path="url(#SVGID_2_)" fill="#F15A22" points="138.496,43.01 139.838,43.01 139.838,39.609 144.783,39.609 
		144.783,38.784 139.838,38.784 139.838,36.62 145.195,36.62 145.195,35.692 138.496,35.692 	"/>
	<path clip-path="url(#SVGID_2_)" fill="#F15A22" d="M162.408,37.754c-0.723-1.442-2.576-2.165-4.742-2.165
		c-3.297,0-5.256,1.546-5.256,3.813c0,2.269,1.959,3.814,5.256,3.814c2.268,0,4.328-1.134,4.846-2.783l-1.445-0.205
		c-0.307,1.34-1.646,2.163-3.4,2.163c-2.576,0-3.814-1.442-3.814-2.989c0-1.647,1.238-3.09,3.814-3.09
		c1.547,0,2.887,0.721,3.299,1.648L162.408,37.754z"/>
	<polygon clip-path="url(#SVGID_2_)" fill="#F15A22" points="164.777,43.01 166.117,43.01 166.117,39.712 171.889,39.712 
		171.889,43.01 173.229,43.01 173.229,35.692 171.889,35.692 171.889,38.784 166.117,38.784 166.117,35.692 164.777,35.692 	"/>
	<rect x="176.219" y="35.691" clip-path="url(#SVGID_2_)" fill="#F15A22" width="1.34" height="7.317"/>
	<polygon clip-path="url(#SVGID_2_)" fill-rule="evenodd" clip-rule="evenodd" fill="#F15A22" points="180.547,43.01 181.785,43.01 
		181.785,37.239 181.887,37.239 187.35,43.01 188.791,43.01 188.791,35.692 187.453,35.692 187.453,41.464 181.887,35.692 
		180.547,35.692 	"/>
	<path clip-path="url(#SVGID_2_)" fill-rule="evenodd" clip-rule="evenodd" fill="#F15A22" d="M190.648,43.011h1.545l1.133-2.165
		h1.959v-0.928h-1.547c0,0,1.34-2.474,1.547-2.886v-1.341h-0.619L190.648,43.011z M195.285,40.846h2.061l1.031,2.165h1.545
		l-3.813-7.319h-0.824v1.341l0.104-0.103l1.443,2.988h-1.547V40.846z"/>
	<path clip-path="url(#SVGID_2_)" fill-rule="evenodd" clip-rule="evenodd" fill="#00664B" d="M182.773,22.762v3.83l-3.664,1.387
		c-1.486,0.495-2.377,0.792-3.566,0.792h-8.615l-1.287-2.871h7.131l4.258-1.486l-4.381-1.651H182.773v3.83l3.762,1.387
		c1.387,0.495,2.279,0.792,3.467,0.792h8.615l1.287-2.871h-7.129l-4.16-1.486l4.309-1.651H182.773z M137.121,22.762v0.464h6.436
		v6.04h5.943v-6.04h6.436v-0.464h7.527v0.464h-7.527v-0.464H137.121z M137.121,23.226h-7.822v-0.464h7.822V23.226z M121.572,22.762
		v3.435h-4.949v2.574h4.949h5.248v-2.574v-3.435H121.572z M99.94,22.762c-0.253,0.288-0.253,0.661-0.253,0.661v1.586h16.936v-2.247
		h3.797c0.201,0.288,0.164,0.661,0.164,0.661v1.586h-3.961v-2.247H99.94z M93.548,22.762v3.435v2.574h5.348h17.727v-2.574H98.896
		v-3.435H93.548z M90.379,22.762v0.562v1.586v1.287h-9.803v-2.873h3.862v-0.562H90.379z M76.615,22.762v0.562h3.961v2.873h-3.961
		v3.069h-5.943v-3.069h-3.862v-2.873h3.862v-0.562H76.615z M62.949,22.762v0.562h3.862v2.873h-9.804v-1.287v-1.586v-0.562H62.949z"
		/>
	<path clip-path="url(#SVGID_2_)" fill-rule="evenodd" clip-rule="evenodd" fill="#00664B" d="M116.621,22.036h-0.494
		c-0.297,0-0.496-0.196-0.693-0.494l-1.881-2.772h3.068V22.036z M116.621,12.53V9.956h2.477c0.99,0,0.891,1.09,0.891,1.09v1.484
		H116.621z M116.621,18.175v-2.574h2.18c0.891,0,0.791,0.891,0.791,0.891v1.684H116.621z M137.121,10.352v8.518
		c-0.496-0.396-0.893-0.893-1.189-1.387l-4.752-7.428h4.852C136.428,10.055,136.824,10.154,137.121,10.352 M137.121,6.193v2.871
		h-6.338V7.48c0,0,0.1-1.287,1.188-1.287H137.121z M117.908,19.165l1.883,2.871h-3.17V18.77h0.596
		C117.514,18.77,117.713,18.967,117.908,19.165 M137.121,18.869c0.396,0.196,0.793,0.396,1.09,0.396h4.752l-4.752-7.823
		c-0.297-0.495-0.596-0.891-1.09-1.09V18.869z M155.936,10.352c-0.494,0.199-0.891,0.694-1.088,1.09l-4.754,7.823h4.754
		c0.295,0,0.691-0.199,1.088-0.396V10.352z M155.936,9.064V6.193h5.15c1.088,0,1.189,1.188,1.189,1.188v1.683H155.936z
		 M155.936,18.869v-8.518c0.299-0.197,0.695-0.297,1.09-0.297h4.854l-4.654,7.428C156.926,17.977,156.432,18.473,155.936,18.869
		 M182.771,5.698v4.554h-10.297v1.783h-5.943V9.46c-0.098-2.277,2.279-2.078,2.279-2.078h10.893V5.698H182.771z M182.771,10.252
		V5.698h3.17v1.684h11.092c0,0,1.98,0.099,2.08,1.979v2.674h-5.941v-1.783H182.771z M172.648,22.762l-1.66-0.626
		c-1.188-0.396-1.783-1.287-1.783-2.771v-1.882h-3.465v-1.586c0,0,0.1-1.188,1.188-1.287h2.277v-1.484h5.844v1.484h7.723v2.873
		h-7.723v2.079l7.723,2.772v0.428h10.154l1.631-0.626c1.189-0.396,1.783-1.287,1.883-2.771v-1.882h3.465v-1.783
		c0,0-0.1-1.09-1.188-1.09h-2.277v-1.484h-5.941v1.484h-7.727v2.873h7.727v2.079l-7.727,2.772v0.428H172.648z M129.297,22.762
		v-1.121c0,0,0.1-1.288,1.188-1.288h6.637v2.409h18.814v-2.409h6.34c1.088,0,1.186,1.091,1.186,1.091v1.318h-7.525v-2.409h-6.438
		V9.064h6.438V6.193h-6.438h-5.939h-6.438v2.871h6.438v11.288h-6.438v2.409H129.297z M126.822,22.762V8.768V8.372v-1.09
		c0,0,0-1.089-1.09-1.089h-9.111v2.574h4.953v13.994H126.822z M116.621,22.762v-0.327h3.07c0.383,0,0.602,0.146,0.729,0.327H116.621
		v-0.327h-3.861v-4.26h3.861v-2.574h-3.861v-3.07h3.861V9.956h-15.15c-0.991,0-0.991,0.891-0.991,0.891v1.684h6.735v3.07h-5.447
		c-0.991,0-0.991,1.09-0.991,1.09v1.484h6.438v4.26h-6.438c-0.419,0-0.678,0.146-0.837,0.327H116.621z M98.896,22.762V8.768h17.725
		V6.193H94.736c-1.188,0-1.188,1.188-1.188,1.188V8.47v0.298v13.994H98.896z M84.437,22.762V11.243h-3.862V8.47h8.714
		c1.089,0,1.089,1.09,1.089,1.09v0.892v0.792v11.519H84.437z M70.673,22.762V11.243h-3.861V8.47h3.861V5.698h5.941V8.47h3.961v2.773
		h-3.961v11.519H70.673z M57.007,22.762V11.243v-0.792V9.659c0,0,0-1.189,1.188-1.189h8.617v2.773H62.95v11.519H57.007z"/>
	<path clip-path="url(#SVGID_2_)" fill="#00664B" d="M2.939,38.997c-0.079,0.197-0.171,0.371-0.275,0.523
		c-0.092,0.117-0.224,0.219-0.395,0.309c0.134,0.225,0.232,0.445,0.293,0.66c0.184-0.029,0.438-0.061,0.763-0.096l0.652-0.059
		c0.245,0,0.609-0.012,1.094-0.036l1.185-0.03l-1.708,1.133l-1.967-0.639c-0.166,0.234-0.334,0.449-0.506,0.646
		c0.118,0.02,0.243,0.044,0.378,0.074c0.649,0.132,1.307,0.332,1.976,0.603c0.862,0.366,1.417,0.611,1.662,0.734
		c0.165,0.104,0.278,0.17,0.34,0.199c0.098-0.118,0.201-0.231,0.312-0.34c0.092-0.092,0.151-0.148,0.174-0.169l0.192-0.183
		l-1.854-0.661c0.202-0.138,0.374-0.245,0.514-0.324c0.043-0.02,0.411-0.241,1.102-0.668c0.148-0.089,0.358-0.164,0.634-0.228
		c0.092-0.016,0.188-0.034,0.286-0.059c-0.019-0.168-0.031-0.303-0.037-0.405c0-0.087,0.012-0.218,0.037-0.39
		c-0.411,0.045-0.922,0.076-1.534,0.096l-2.801,0.088l0.303-0.779c2.718,0,4.179,0.008,4.381,0.023c0.204,0,0.441,0.01,0.718,0.028
		c-0.007-0.146-0.017-0.263-0.029-0.353c0-0.074,0.009-0.195,0.029-0.367l-1.223,0.043l-3.646,0.009l0.348-0.911
		c1.708,0,2.766,0.008,3.169,0.021c0.166,0,0.365,0.009,0.598,0.022c-0.006-0.152-0.015-0.27-0.027-0.352
		c0-0.074,0.009-0.189,0.027-0.346C7.515,36.845,7.03,36.86,6.651,36.86H4.538c0.092-0.3,0.165-0.499,0.22-0.597
		c0.056-0.146,0.116-0.289,0.184-0.426c-0.147-0.016-0.287-0.04-0.421-0.074c-0.112-0.015-0.283-0.056-0.516-0.125
		c-0.037,0.167-0.07,0.339-0.101,0.515c-0.038,0.133-0.079,0.262-0.129,0.391L3.683,36.86H2.682c-0.422,0-0.894-0.016-1.414-0.045
		c0.019,0.146,0.03,0.26,0.036,0.338c0,0.049-0.012,0.169-0.036,0.359l1.056-0.035l1.148-0.008L3.15,38.381l-2.277-0.028
		l-0.496-0.023c0.018,0.161,0.03,0.279,0.036,0.353c0,0.063-0.012,0.187-0.036,0.367l1.929-0.052H2.939z"/>
	<path clip-path="url(#SVGID_2_)" fill-rule="evenodd" clip-rule="evenodd" fill="#00664B" d="M16.696,40.497
		c0.221,0.029,0.408,0.061,0.56,0.095c0.111,0.03,0.233,0.082,0.368,0.155c0.043-0.123,0.096-0.242,0.157-0.359l1.276-2.721
		c-0.33-0.074-0.661-0.166-0.992-0.279c-0.036,0.107-0.071,0.219-0.101,0.332c-0.054,0.24-0.113,0.439-0.174,0.602
		c-0.055,0.162-0.134,0.368-0.238,0.618c-0.184,0.489-0.408,0.923-0.671,1.3C16.818,40.318,16.758,40.403,16.696,40.497
		 M11.432,37.99l0.211,0.434l0.293,0.743c0.166,0.44,0.292,0.838,0.378,1.19c0.018,0.073,0.04,0.152,0.063,0.234
		c0.313-0.087,0.644-0.161,0.993-0.22l-1.194-2.963c-0.166,0.064-0.315,0.118-0.45,0.163c-0.11,0.028-0.264,0.063-0.459,0.103
		L11.432,37.99z M17.312,42.459l0.743,0.008l1.286,0.044c-0.006-0.168-0.015-0.289-0.026-0.367c0-0.074,0.012-0.204,0.038-0.391
		l-2.325,0.053h-0.451c0-3.25,0.01-4.961,0.027-5.137c0-0.206,0.012-0.453,0.038-0.742c-0.239,0.014-0.411,0.023-0.515,0.029
		c-0.092,0-0.249-0.01-0.468-0.029l0.063,1.006l0.009,4.873h-1.175c0-3.293,0.006-4.976,0.019-5.05
		c0.007-0.22,0.024-0.487,0.054-0.8c-0.184,0.014-0.339,0.021-0.468,0.021c-0.115,0-0.284-0.008-0.504-0.021l0.054,0.882
		l0.018,0.602v4.366l-2.323-0.03l-0.57-0.022c0.006,0.147,0.017,0.253,0.029,0.316c0,0.133-0.009,0.279-0.029,0.441l2.719-0.052
		H17.312z"/>
	<path clip-path="url(#SVGID_2_)" fill-rule="evenodd" clip-rule="evenodd" fill="#00664B" d="M29.128,39.058
		c0.24,0.16,0.45,0.349,0.634,0.564c0.038-0.049,0.077-0.1,0.121-0.154c0.024-0.043,0.055-0.085,0.092-0.125
		c0.055-0.073,0.089-0.115,0.101-0.125c0.127-0.205,0.287-0.43,0.477-0.676l-0.027,3.888l-0.028,0.316
		c0.245-0.005,0.405-0.012,0.479-0.022c0.092,0,0.241,0.012,0.45,0.037c-0.038-0.721-0.059-1.171-0.064-1.352v-4.058
		c0.405-0.681,0.625-1.04,0.661-1.081c0.038-0.059,0.077-0.109,0.121-0.153c-0.295-0.093-0.606-0.211-0.938-0.353
		c-0.036,0.087-0.069,0.176-0.101,0.264c-0.146,0.447-0.401,0.959-0.762,1.537c-0.129,0.225-0.31,0.486-0.542,0.786
		c-0.221,0.278-0.39,0.47-0.506,0.573L29.128,39.058z M36.295,39.476c0-0.093,0.009-0.223,0.026-0.391
		c0.019-0.146,0.033-0.281,0.046-0.402c-0.208,0.014-0.368,0.023-0.477,0.028c-0.092,0-0.251-0.009-0.478-0.028
		c0.042,0.353,0.068,0.617,0.074,0.793l-0.01,2.661c-0.006,0.015-0.028,0.223-0.064,0.624c0.202-0.02,0.359-0.031,0.468-0.037
		c0.116,0,0.279,0.012,0.487,0.037c-0.043-0.543-0.066-0.854-0.072-0.926V39.476z M31.738,42.378
		c0.332,0.109,0.622,0.255,0.873,0.441c0.368-0.299,0.619-0.51,0.753-0.632c0.319-0.313,0.539-0.61,0.662-0.89
		c0.072-0.182,0.134-0.395,0.184-0.639c0.036-0.236,0.066-0.559,0.092-0.971c0.019-0.294,0.048-0.596,0.092-0.903
		c-0.295-0.016-0.601-0.049-0.919-0.103c0.006,0.18,0.019,0.369,0.037,0.566v0.146c0,0.372-0.018,0.69-0.056,0.956
		c-0.054,0.381-0.171,0.717-0.349,1.006c-0.238,0.344-0.619,0.646-1.138,0.912C31.888,42.302,31.812,42.339,31.738,42.378
		 M31.444,38.91c0.293,0.073,0.59,0.257,0.891,0.55c0.11-0.102,0.352-0.304,0.726-0.602c0.074-0.059,0.172-0.148,0.294-0.272
		c0.129-0.132,0.251-0.262,0.367-0.39c0.337-0.387,0.631-0.801,0.883-1.242l0.174-0.309c0.134,0.299,0.291,0.584,0.468,0.854
		c0.313,0.455,0.756,0.85,1.333,1.184c0.243,0.121,0.548,0.293,0.909,0.514c0.128-0.221,0.229-0.367,0.302-0.441
		c0.056-0.072,0.175-0.172,0.359-0.294c-0.074-0.019-0.146-0.039-0.22-0.06c-0.092-0.014-0.236-0.065-0.432-0.152
		c-0.189-0.078-0.374-0.168-0.551-0.266c-0.385-0.226-0.707-0.479-0.964-0.764c-0.3-0.357-0.524-0.743-0.67-1.154
		c0.006-0.043,0.021-0.086,0.045-0.125c-0.22-0.02-0.41-0.047-0.57-0.08c-0.135-0.021-0.316-0.059-0.542-0.118
		c-0.024,0.078-0.049,0.164-0.074,0.257c-0.074,0.234-0.202,0.508-0.385,0.816c-0.184,0.313-0.368,0.575-0.551,0.786
		c-0.497,0.573-1.024,0.979-1.581,1.22C31.583,38.851,31.512,38.88,31.444,38.91"/>
	<path clip-path="url(#SVGID_2_)" fill-rule="evenodd" clip-rule="evenodd" fill="#00664B" d="M39.312,38.799
		c0.209,0.132,0.405,0.307,0.588,0.522c0.074-0.108,0.178-0.238,0.312-0.391l0.542-0.734l-0.009,3.609
		c-0.006,0.027-0.027,0.359-0.063,0.992c0.184-0.021,0.332-0.032,0.448-0.038c0.099,0,0.249,0.012,0.45,0.038
		c-0.036-0.853-0.057-1.331-0.063-1.434V37.13c0.166-0.263,0.291-0.466,0.376-0.609c0.061-0.094,0.125-0.191,0.193-0.293
		c0.062-0.094,0.131-0.188,0.21-0.287c-0.293-0.088-0.59-0.193-0.89-0.316l-0.083,0.236c-0.056,0.165-0.163,0.398-0.322,0.697
		c-0.134,0.271-0.281,0.525-0.441,0.764c-0.404,0.589-0.759,1.023-1.066,1.309C39.436,38.68,39.374,38.735,39.312,38.799
		 M43.647,38.344h2.848v0.507h-2.848V38.344z M43.647,39.306h2.848v0.551h-2.848V39.306z M43.647,40.321h2.838v0.527h-2.838V40.321z
		 M43.647,41.327h2.838v0.574h-2.838V41.327z M47.057,42.474c0.128,0,0.281,0.005,0.459,0.016l0.808,0.043
		c-0.018-0.146-0.03-0.258-0.036-0.331c0-0.077,0.012-0.189,0.036-0.337c-0.331,0.02-0.582,0.031-0.752,0.035h-0.275v-3.556
		c0-0.176,0.015-0.37,0.045-0.581c-0.312,0.02-0.593,0.032-0.845,0.038h-1.25l0.064-0.691c1.42,0,2.275,0.008,2.563,0.021
		c0.092,0,0.205,0.008,0.34,0.023c-0.019-0.176-0.032-0.289-0.038-0.34c0-0.059,0.012-0.16,0.038-0.309
		c-0.257,0.016-0.481,0.027-0.671,0.039l-2.195,0.007c0-0.118,0.003-0.233,0.009-0.347l0.056-0.484
		c-0.189,0.016-0.34,0.022-0.451,0.022c-0.098,0-0.245-0.007-0.441-0.022c0.024,0.195,0.039,0.348,0.047,0.456
		c-0.008,0.122-0.011,0.247-0.011,0.375l-1.57-0.007l-0.763-0.052c0.02,0.22,0.029,0.384,0.029,0.492c0,0-0.009,0.056-0.029,0.169
		c0.589-0.03,1.045-0.044,1.37-0.044h0.927l-0.065,0.691h-0.809c-0.201,0-0.486-0.016-0.854-0.046
		c0.019,0.207,0.03,0.402,0.036,0.589v3.556h-0.385c-0.11,0-0.31-0.012-0.598-0.035c0.026,0.147,0.041,0.26,0.046,0.337
		c0,0.061-0.015,0.171-0.046,0.331c0.699-0.034,1.083-0.054,1.158-0.059H47.057z"/>
	<path clip-path="url(#SVGID_2_)" fill="#F15A22" d="M23.675,39.355c0-0.374,0.303-0.675,0.675-0.675
		c0.374,0,0.674,0.301,0.674,0.675s-0.301,0.675-0.674,0.675C23.978,40.03,23.675,39.729,23.675,39.355"/>
	<path clip-path="url(#SVGID_2_)" fill="#7FCBAE" d="M32.721,11.391l0.117-0.207l0.201,0.278l-0.183,0.3L32.721,11.391z
		 M33.853,9.038l0.479,0.39l-0.079,0.467l-0.399,0.313l-0.24,0.312v0.232l-0.399,0.312v-0.467l0.479-0.389l0.16-0.467l-0.08-0.313
		L33.853,9.038z M30.994,24.479h-2.652l-0.665-2.61h2.653L30.994,24.479z M32.074,13.308l0.207-0.121l0.035,0.342l-0.309,0.168
		L32.074,13.308z M32.269,15.164c0.08-0.077,0.159-0.233,0.159-0.233l0.32,0.391v0.701l-0.399,0.545h-0.08l-0.558,0.077h-0.32
		l-0.16-0.39h0.16l0.24-0.467l0.399-0.155v-0.391L32.269,15.164z M16.403,26.168l-0.643-0.817h3.944l1.438-5.645h5.421h0.913h3.202
		L27.481,7.155h-0.892h-2.811h-0.189h-3.277h-0.425l-3.363,13.2l-0.095-0.448l-0.08-0.624l0.08-0.935l-0.147-0.788h-0.595
		c0.023,1.332,0.217,2.622,0.569,3.846l-0.371,1.451c-1.116,0.253-1.968,0.513-2.526,0.729c-0.102-0.176-0.198-0.354-0.291-0.534
		c0.616-0.241,1.564-0.535,2.808-0.812c-0.462-1.354-0.764-2.909-0.792-4.681h-3.409l-0.002-0.301l0.002-0.301h3.409
		c0.009-0.419,0.036-0.829,0.078-1.228L14.45,15.27l-2.076,0.312l-0.452-0.836c0.334-1.663,0.993-3.21,1.909-4.567l0.938-0.595
		l0.399-0.778l-0.126-0.155c0.318-0.345,0.654-0.67,1.007-0.979l0.637,0.277l0.558-0.858l0.139-0.021
		c-0.11-0.06-0.22-0.121-0.332-0.185c0.185-0.131,0.375-0.256,0.567-0.378c0.256,0.139,0.527,0.271,0.806,0.398l0.816-0.126
		l0.718-1.324l0.799-0.078l0.691-0.472c0.445-0.105,0.899-0.187,1.36-0.242l0.024,0.039c0,0-0.25,0.15-0.656,0.449l0.736,0.382
		l0.32,0.545l0.687,0.055V4.575c0.149-0.004,0.297-0.007,0.446-0.007l0.158,0.001v1.609l0.705,0.055h0.081l0.08-0.467l0.16-0.157
		l0.08-0.388l0.421-0.266c-0.286-0.161-0.455-0.237-0.455-0.237l0.039-0.088c2.151,0.213,4.146,0.964,5.844,2.117
		c-0.092,0.057-0.198,0.12-0.319,0.191l0.771,0.13c0.376,0.277,0.736,0.577,1.078,0.896l-0.066,0.683L32.624,9.35l0.479,0.545
		l-0.159,0.157L32.465,9.74l-0.081-0.079l-0.159,0.233h-0.513c0.088,0.164,0.174,0.33,0.257,0.497l0.176-0.028l0.059,0.524
		l0.104,0.234c0.069,0.052,0.157,0.128,0.157,0.176v0.206c0.043,0.109,0.083,0.22,0.125,0.332c1.32-0.297,2.274-0.607,2.816-0.841
		c0.102,0.175,0.196,0.353,0.289,0.531c-0.573,0.253-1.559,0.577-2.908,0.883c0.458,1.434,0.704,2.961,0.727,4.55l-0.001,0.602
		c-0.038,1.671-0.337,3.273-0.876,4.766l0.187,0.046v-0.438h0.131l0.132-0.193l0.262,0.129l0.396-0.386l0.461-0.256l0.262-0.128
		l0.264-0.193l0.263-0.322l0.395,0.322l0.066,0.577l0.329,0.322l0.264-0.258v0.687c-0.438,1.026-1.009,1.985-1.689,2.853
		l-0.154-0.265l-0.066-0.706l-0.724-0.32l-0.592-0.13v-0.653l-0.414-0.1l-0.05,0.119l0.774,3.136h-2.606
		c-0.11,0.142-0.223,0.282-0.337,0.419c0.56,0.25,1.13,0.545,1.7,0.896c-0.176,0.132-0.356,0.258-0.541,0.378
		c-0.481-0.279-1.016-0.547-1.582-0.789c-0.406,0.445-0.843,0.866-1.309,1.264l0.045,0.021l0.559,0.235l0.22,0.375
		c-1.511,0.635-3.172,0.986-4.916,0.986c-1.276,0-2.508-0.189-3.671-0.538l0.183-0.356c-0.599-0.445-1.348-1.076-2.106-1.914
		c-0.48,0.225-0.938,0.472-1.354,0.738c-0.181-0.118-0.357-0.239-0.53-0.365c0.277-0.182,0.792-0.494,1.487-0.832
		c-0.137-0.166-0.273-0.338-0.41-0.517H16.403z M18.934,26.427c0.199-0.087,0.408-0.174,0.628-0.259H18.72
		C18.79,26.255,18.862,26.341,18.934,26.427 M20.551,25.827c1-0.307,2.144-0.537,3.369-0.568v-3.321
		c-0.852,0.02-1.664,0.061-2.431,0.117L20.551,25.827z M29.146,26.168c0.152,0.056,0.306,0.112,0.46,0.175l0.148-0.175H29.146z
		 M29.167,26.831c-1.509-0.576-3.18-0.961-4.644-0.976v2.152l0.705-0.276l0.241-0.388l0.398,0.233l0.24,0.154h0.559l0.319-0.311
		l0.479,0.468l0.39,0.163C28.323,27.669,28.76,27.261,29.167,26.831 M23.92,25.862c-1.439,0.047-3.089,0.425-4.572,1.03
		c0.61,0.653,1.291,1.254,2.042,1.792c0.113,0.08,0.22,0.153,0.318,0.219l0.328-0.469l0.16-0.234l0.479,0.155l0.321-0.467h0.239
		l0.24-0.39l0.447,0.125V25.862z M21.643,21.439c0.724-0.05,1.484-0.088,2.277-0.105v-0.809h-2.05L21.643,21.439z M28.452,25.938
		l-0.329-0.587h3.993l-0.995-3.903h0.846l0.14,0.565c0.491-1.396,0.765-2.892,0.801-4.452h-1.937l0.763,2.965h-7.212v0.798
		c0.683-0.004,1.398,0.021,2.132,0.073l0.156,0.616c-0.755-0.061-1.523-0.092-2.289-0.086v3.331
		C25.151,25.276,26.646,25.383,28.452,25.938 M30.817,16.959h2.093c-0.021-1.476-0.243-2.896-0.655-4.232l-0.03,0.05l-0.8,0.624
		l-1.006,0.077l-0.079,0.39l0.319,0.391l0.399,0.467l-0.159,0.545l-0.479,0.156L30.817,16.959z"/>
	<path clip-path="url(#SVGID_2_)" fill="#00664B" d="M33.872,16.982h5.941c0.001,0.092,0.001,0.186,0.001,0.277
		c0,8.532-6.917,15.448-15.448,15.448c-8.532,0-15.448-6.916-15.448-15.448S15.833,1.813,24.366,1.813
		c7.232,0,13.305,4.97,14.986,11.68h-2.336c-1.622-5.451-6.671-9.426-12.649-9.426c-7.288,0-13.194,5.906-13.194,13.193
		c0,7.288,5.906,13.194,13.194,13.194c6.604,0,12.075-4.852,13.042-11.185h-2.954L33.872,16.982z"/>
	<path clip-path="url(#SVGID_2_)" fill="#00664B" d="M30.667,21.434l0.887,3.48h-3.551l-0.887-3.48H30.667z M23.332,11.06h0.941
		l-1.15,4.674h-0.964L23.332,11.06z M21.593,16.172h4.182l-1.397-5.48h-1.389L21.593,16.172z M27.477,19.271h-0.912h-5.762
		l-1.437,5.644h-3.552l4.413-17.321h0.087h3.276h0.188h2.813h0.55l2.975,11.678H27.477z"/>
	<polygon clip-path="url(#SVGID_2_)" fill="#F15A22" points="23.331,11.061 24.273,11.061 23.123,15.734 22.159,15.734 	"/>
	<polygon clip-path="url(#SVGID_2_)" fill="#F15A22" points="16.401,26.169 15.757,25.351 19.703,25.351 21.138,19.706 
		30.682,19.706 27.481,7.155 28.444,7.775 31.728,20.528 21.867,20.528 20.463,26.169 	"/>
	<polygon clip-path="url(#SVGID_2_)" fill="#F15A22" points="28.582,26.169 28.122,25.347 32.117,25.351 31.122,21.444 
		31.968,21.449 33.133,26.169 	"/>
</g>
</svg>
