<?xml version="1.0" encoding="utf-8"?>
<!-- Generator: Adobe Illustrator 13.0.0, SVG Export Plug-In . SVG Version: 6.00 Build 14948)  -->
<!DOCTYPE svg PUBLIC "-//W3C//DTD SVG 1.1//EN" "http://www.w3.org/Graphics/SVG/1.1/DTD/svg11.dtd">
<svg version="1.1" id="Layer_1" xmlns="http://www.w3.org/2000/svg" xmlns:xlink="http://www.w3.org/1999/xlink" x="0px" y="0px"
	 width="235.49px" height="78.072px" viewBox="0 0 235.49 78.072" enable-background="new 0 0 235.49 78.072" xml:space="preserve">
<g>
	<g>
		<g>
			<path fill="#074CA1" d="M200.735,1.103C154.897-3.452,87.927,6.403,41.265,25.248l-2.789,1.196
				c0.856-0.045,1.44-0.006,1.44-0.006c7.767,0.213,7.292,5.043,7.292,5.043l0.012,2.949h-6.191v-2.003
				c0-1.421-1.728-1.516-1.728-1.516c-1.326,0-1.634,0.899-1.634,0.899c-0.734,1.373,0.521,2.557,0.521,2.557
				c0.64,0.71,3.86,2.204,3.86,2.204c1.042,0.401,2.723,1.442,2.723,1.442c3.149,1.894,2.865,5.491,2.865,5.491v2.369
				c-0.379,5.872-8.477,5.706-8.477,5.706c-8.477,0-8.291-5.563-8.291-5.563v-2.906h6.596v2c0,1.705,1.647,1.781,1.647,1.781
				c1.8,0.069,1.951-1.67,1.951-1.67c0.247-1.692-1.619-2.758-1.619-2.758c-1.847-0.947-4.925-2.605-4.925-2.605
				c-1.515-0.994-2.131-1.894-2.131-1.894c-1.089-1.374-1.018-3.504-1.018-3.504v-1.848c0-2.558,0.687-3.291,0.687-3.291
				c0.009-0.019,0.022-0.032,0.032-0.05c-45.662,21.351-40.453,43.545,2.094,47.662c46.508,4.5,116.743-4.444,163.938-25.541
				c-0.149,0.008-0.283,0.035-0.438,0.035c0,0-7.986,0.646-8.178-5.791V33.187c0,0-0.994-6.867,7.955-6.867
				c0,0,5.824-0.188,7.363,3.269c0,0,0.762,0.925,0.557,4.75h-6.203v-1.96c0,0-0.012-1.582-1.619-1.582c0,0-1.684,0.071-1.684,1.396
				v12.88c0,0-0.072,1.729,1.821,1.729c0,0,1.558-0.032,1.558-1.853v-3.725h-1.691v-3.47h7.973v7.317c0,0-0.021,1.541-0.66,2.438
				c0,0-0.474,0.706-0.763,1.022l2.595-1.299C248.51,25.808,243.278,5.327,200.735,1.103z M65.644,50.743L63.23,32.51h-0.542
				l-2.412,18.233h-6.589l4.071-23.516h10.403l4.071,23.516H65.644z M98.95,50.769l-0.148-17.717h-0.425l-3.206,17.713H88.73
				l-3.246-17.719h-0.481l-0.074,17.723h-6.122l0.516-23.521h10.341l1.981,12.873h0.485l2.073-12.872h10.239l0.663,23.521H98.95z
				 M128.757,43.507v2.369c-0.379,5.872-8.477,5.706-8.477,5.706c-8.476,0-8.292-5.563-8.292-5.563v-2.906h6.598v2.002
				c0,1.705,1.646,1.779,1.646,1.779c1.8,0.07,1.952-1.67,1.952-1.67c0.246-1.691-1.62-2.757-1.62-2.757
				c-1.847-0.946-4.925-2.606-4.925-2.606c-1.515-0.993-2.131-1.893-2.131-1.893c-1.089-1.374-1.018-3.504-1.018-3.504v-1.848
				c0-2.557,0.687-3.291,0.687-3.291c1.752-3.292,7.86-2.889,7.86-2.889c7.766,0.213,7.293,5.043,7.293,5.043l0.011,2.949h-6.191
				v-2.003c0-1.421-1.728-1.516-1.728-1.516c-1.326,0-1.634,0.899-1.634,0.899c-0.734,1.373,0.521,2.557,0.521,2.557
				c0.638,0.71,3.859,2.203,3.859,2.203c1.042,0.402,2.723,1.443,2.723,1.443C129.042,39.909,128.757,43.507,128.757,43.507z
				 M152.99,45.097c0,6.467-8.189,6.367-8.189,6.367c-9.423,0-8.732-6.677-8.732-6.677V27.149h6.725l0.022,17.781
				c0,1.994,1.891,1.894,1.891,1.894c1.8,0,1.71-1.94,1.71-1.94V27.151h6.574L152.99,45.097L152.99,45.097z M181.252,50.772h-7.309
				l-6.521-14.383h-0.275l0.368,14.383h-6.134V27.254h7.535l6.297,14.265h0.272l-0.444-14.268h6.209v23.521H181.252z"/>
		</g>
	</g>
</g>
</svg>
