<?xml version="1.0" encoding="utf-8"?>
<!-- Generator: Adobe Illustrator 15.0.0, SVG Export Plug-In . SVG Version: 6.00 Build 0)  -->
<!DOCTYPE svg PUBLIC "-//W3C//DTD SVG 1.0//EN" "http://www.w3.org/TR/2001/REC-SVG-20010904/DTD/svg10.dtd">
<svg version="1.0" id="Layer_1" xmlns="http://www.w3.org/2000/svg" xmlns:xlink="http://www.w3.org/1999/xlink" x="0px" y="0px"
	 width="222.902px" height="230px" viewBox="0 0 222.902 230" enable-background="new 0 0 222.902 230" xml:space="preserve">
<path d="M49.959,119.877c0,0-34.502,3.389-44.574,46.43c0,0-0.654,5.264-0.338,8.829c0.376,4.249,1.62,9.031,5.414,11.535
	c0,0,2.842,1.963,10.308,6.422c7.634,4.56,9.73,9.953,8.883,14.824c0,0-2.329,11.014-13.978,7.201L0,230h35.03
	c0,0,11.564-7.046,10.082-20.812s-11.407-19.536-15.672-22.026c-5.273-3.078-12.856-4.245-13.342-12.707
	c-0.48-8.354-0.118-14.035,4.671-22.781c1.518-2.772,2.986-6.13,5.706-9.622C30.823,136.469,36.349,128.353,49.959,119.877z"/>
<rect x="54.5" y="17.488" width="9.5" height="212.512"/>
<polygon points="69.5,230 69.5,12.5 79,12.5 87,96.5 87,7.5 96,7.5 96,230 88,230 79,147 78.5,230 "/>
<path fill="#E30613" d="M25.291,156.765L25.291,156.765l-4.522,9.544c7.429,12.072,17.13,22.595,28.522,30.954v-10.995
	C39.537,178.078,31.366,168.068,25.291,156.765z"/>
<path fill="#E30613" d="M113.768,0C53.494,0,4.633,48.88,4.633,109.177c0,12.253,2.024,24.031,5.746,35.026l6.517-8.497
	c-2.292-8.423-3.524-17.283-3.524-26.433c0-55.5,44.992-100.492,100.492-100.492c55.501,0,100.492,44.992,100.492,100.492
	c0,27.121-10.747,51.728-28.211,69.806l0.001,0.001l6.021,6.036c19.022-19.65,30.735-46.425,30.735-75.939
	C222.902,48.88,174.041,0,113.768,0z"/>
<path d="M113.768,177.014l-12.272,11.045v30.163L113.768,230l13.092-14.292v-27.649L113.768,177.014z M117.633,216.165h-7.682
	v-27.192h7.682V216.165z"/>
<path d="M145.825,177.014l-12.796,11.045V230h7.998l0.457-9.95l8.517,7.54l8.164-7.997v-31.991L145.825,177.014z M150,216.622
	h-7.831v-28.106H150V216.622z"/>
<polygon points="164.334,188.287 176.444,177.014 188.555,189.2 173.082,189.201 173.017,199.027 188.555,199.027 188.555,208.396 
	173.017,208.396 173.027,218.222 188.555,218.222 176.444,230 164.334,219.136 "/>
<polyline points="206.166,177.538 194.833,188.834 194.833,220.167 205.5,230 218.333,217.834 218.333,208.334 211.167,208.334 
	211,218.001 203.333,218.001 203.167,189.501 211,189.667 211.015,199.75 218.333,199.796 218.333,189.222 206.166,177.538 "/>
<path d="M119.137,106.902c0.1-0.015,0.236-0.077,0.236-0.077S119.282,106.854,119.137,106.902z"/>
<path d="M120.472,102.429c-0.393-0.471-0.864,0.078-1.335-0.079s-1.805-0.628-2.12-0.33s-2.198,0.487-3.689,0.487
	s-1.492-1.962-1.492-1.962l0.471-7.987c0,0-0.314-1.12-1.021-0.884s-1.413,1.334-1.491,1.806s0.314,8.95,0,9.578
	s-1.727,1.806-2.434,2.12s-1.57,1.256-2.198,1.492s-0.785,0.314-0.942,0s0.471-2.12-0.707-1.806s-1.806,0.549-2.434,1.962
	s-0.707,2.748-0.707,2.748l-0.864,2.826c0.146,0.964,0.942,2.041,0.942,2.041l0.471,0.56c0.471,0.56,1.177,0.068,1.57,0
	s0.157-0.717,0.314-1.423s1.021-2.041,1.649-3.062s3.14-2.591,3.14-2.591l1.962-0.314c0,0,0.471,2.041-0.157,2.669
	s0,1.57-1.256,2.041s-1.413,1.334-1.648,2.198s0.393,0.863,1.884,1.021s0.549,0.628,0.549,0.628s-0.235,15.309-0.079,16.8
	s0.707,1.648,1.335,1.491s0.763-1.491,0.763-1.491s0.256-17.521,0.549-18.384s4.183-1.164,4.183-1.164s0.236-1.178,0.393-1.021
	s-1.57-1.335-1.178-2.826c0.336-1.277,3.374-2.38,4.239-2.671c-0.174,0.026-0.24-0.093,0.707-0.94
	C121.335,104.627,120.864,102.9,120.472,102.429z M113,107.082c-0.583,0.668-0.417,1.501-1.25,1.335s-0.799-0.667-0.799-0.667
	s0.466-1.417,1.382-1.333S113.583,106.413,113,107.082z"/>
<path d="M123.417,106.902c0,0-1.333,0.515-1.417,4.181s0.083,4.167-0.667,4.917s-0.917,3.083-0.833,2.75s-0.019,2.666,0.366,2.833
	s-0.053,0.916,1.083,0s1.802-2.667,2.135-3.75s0-9.667,0-9.667S124.282,107.75,123.417,106.902z"/>
<path d="M135.806,117.017c-0.201-0.906-0.906-1.762-1.208-2.55s1.359-2.987,1.711-3.44s0.856-1.359,0-1.611
	s-0.705,0.251-1.611,1.359s-1.107-0.05-1.208-0.201s0.403-3.222,0.151-3.67s-1.359-0.81-1.359-0.81s-0.652-1.424-1.005-1.877
	s-0.707-0.993-1.263,0.115s1.006,1.079,0.455,2.165c-0.423,0.833-2.17,0.435-2.476,0.599c-3.394,1.83-2.477,2.412-1.3,2.673
	c0.968,0.214,1.208,0.453,0.806,1.058s-0.849,0.883-0.201,1.963c1.369,2.281,0.402,1.762-0.151,2.467s-2.567,2.215-2.467,3.121
	s1.561,0.353,2.819-0.101s3.524-1.964,3.675-2.618s-0.051-0.655-0.503-0.658s-0.504,0.355-1.108,0.557s-0.704,0.115-0.604-0.352
	c0.25-1.167,2.567-3.323,2.97-3.474s0.403,0.151,0.503,0.403s-0.453,0.604-0.654,0.941s0.513,0.59,0.604,0.72
	c0.171,0.244,0.496,0.395,0.403,0.672c-1.345,4-2.366,3.86-3.122,4.967s-2.92,1.711-3.121,2.597s0.503,1.279,0.503,1.279
	s3.474-0.302,4.38,0c0.44,0.146,1.35,0.74,2.199,0.706c0.9-0.036,1.728-0.706,1.728-0.706l0.705-1.279
	c0.101-0.776-0.458-2.01-1.259-1.993s-0.755-0.402-1.963,0.252s-1.41-0.353-1.309-0.503s1.833-3.364,2.014-2.971
	c0.358,0.777,1.46,2.014,1.863,2.92s1.662,0.402,1.712-0.353S136.007,117.923,135.806,117.017z M130.649,109.867
	c-0.142-0.034-0.294-0.199-0.276-0.345c0.028-0.232,0.27-0.21,0.455-0.21l-0.033,0.033
	C131.147,109.365,131.075,109.967,130.649,109.867z"/>
<path d="M133.531,103.92c0.072,0.418,0.461,0.919,0.738,1.134c0.3,0.233,0.609,0.476,0.913,0.691
	c0.216,0.154,0.627,0.497,0.875,0.243c0.173-0.178,0.136-0.57,0.113-0.805c-0.06-0.611-0.028-1.286-0.453-1.778
	c-0.253-0.292-0.645-0.336-1.037-0.36c-0.371-0.022-0.561-0.163-0.886,0.081c-0.146,0.109-0.242,0.243-0.312,0.419
	C133.421,103.701,133.516,103.768,133.531,103.92"/>
<path d="M127.042,103.184c0.798,0.16,1.944-0.075,2.644-0.386c0.728-0.324,1.549-0.753,2.313-0.937
	c1.06-0.255,2.098-0.472,3.214-0.472c1.026,0,2.028-0.231,2.771,0.573c0.551,0.595,0.437,1.796,0.63,2.572
	c0.264,1.053,0.447,1.795,0.38,2.859c-0.063,1.002,0.004,2.332,0.293,3.25c0.331,1.048,0.097,1.758,0.205,2.838
	c0.08,0.802,0.235,1.478,0.297,2.149c0.071,0.759,0.205,1.509,0.24,2.273c0.038,0.794-0.111,1.54-0.355,2.29
	c-0.062,0.19-0.152,0.43-0.24,0.577c-0.232,0.392-0.641,0.544-1.019,0.733c-0.377,0.189-0.85,0.261-1.267,0.35
	c-0.201,0.043-0.458,0.054-0.557,0.24c-0.135,0.252,0.047,0.456,0.142,0.646c0.37,0.736,0.705,1.474,1.053,2.255
	c0.128,0.286,0.176,0.282,0.504,0.313c0.294,0.029,0.564,0.06,0.843,0.007c0.588-0.109,0.77-0.168,1.095-0.647
	c0.089-0.132,0.193-0.278,0.313-0.359c-0.004-0.192,0.603-0.664,0.764-0.842c-0.055,0.092,0.104-0.372,0.1-0.462
	c-0.005-0.119,0.055-0.239,0.077-0.357c0.093-0.49,0.127-1.048,0.327-1.494c0.393-0.874,0.819-1.695,0.928-2.666
	c0.065-0.573,0.178-1.188,0.378-1.755c0.193-0.546,0.642-1.154,0.585-1.75c-0.564-0.559-0.324-1.796-0.551-2.522
	c-0.117-0.375-0.135-0.779-0.234-1.148c-0.079-0.295-0.185-0.669-0.147-1.019c0,0-0.527-7.494-0.644-8.635s-0.966-2.985-2.459-2.781
	s-5.299-0.381-5.299-0.381s-1.756,0.791-2.605,1.142s-3.455,1.639-3.923,1.581s-2.039,1.522-0.8,1.874"/>
<path d="M156.129,106.08c0,0-2.129,0.829-2.516,1.989c-0.156,0.468-0.768,2.601-1.55,5.12c-1.158,3.733-2.692,8.314-3.674,9.584
	c-0.499,0.646-1.255,2.348-2.437,4.165c-2.713,4.171-6.718,9.895-8.204,11.603c-0.632,0.727,0.29,1.936,0.871,1.161
	s7.2-8.028,10.448-14.359c0,0,2.642-5.551,2.866-5.596s0.313,0.09,0.402,1.072s-0.134,1.296,0.67,1.43s2.145,0.313,2.814-0.134
	s1.607-1.116,1.519-1.742s-0.447-1.743-0.357-2.368s0.09-0.849,1.653-0.982s1.295-0.446,2.188-0.491s1.206,0.356,1.563,0.625
	s-0.849,1.43-1.385,2.145s-1.475,1.787-0.045,2.636s1.608,0.045,2.859-0.357s1.072-0.582,2.412-0.85s1.742-0.58,1.742-0.938
	s-0.401-0.759-1.697-1.385s-0.715-1.073-0.179-2.101c0.536-1.027,2.234-2.458,2.278-3.083s-0.134-2.324-1.608-1.921
	s-3.307,1.832-3.753,1.966s-1.339,0.219-1.786,0.579c0,0-0.975,0.179-1.689,0.224s-2.11-0.28-2.424-0.101s-0.39,0.146-1.194-0.033
	s-0.938-0.759-1.072-1.385s0.849-2.055,1.027-2.591s0.179-1.385,0.313-1.742s0.671-0.67,0.76-1.027S157.101,106.04,156.129,106.08z"
	/>
<path d="M156.185,104.778c0,0,5.003,0,7.103-0.982s2.188-1.876,2.725-2.546s-0.268-2.01-1.295-1.742s-4.02,0.894-5.003,0.983
	s-1.965-0.224-2.591,0.134s-1.652,0.938-2.1,1.027s-2.1,0.402-1.117,1.295S155.381,104.555,156.185,104.778z"/>
<path d="M183.361,100.831c0,0-1.788-0.085-3.577,2.3c0,0-4.344,7.155-5.877,7.496s-3.492,1.874-2.896,2.215s2.727,0.766,3.748,0.681
	s1.107-1.022,1.618-1.533s1.107-1.533,1.533-1.192s0.422,3.63,0.252,4.538s-1.104,2.106-1.529,2.873s-1.055,0.387-1.148,1.043
	c-0.084,0.59-0.25,1.087,1.063,1.087c1.704,0,2.813-0.596,3.493-1.363c1.075-1.213,0.901-2.724,0.786-4.64
	c-0.111-1.852-0.373-4.021-0.373-4.021s-1.002-1.508-1.359-2.016c-0.12-0.17-0.162-0.567,0.094-1.248s1.533-2.641,1.789-2.726
	s1.583-0.898,2.18-1.495s0.844-1.328,0.802-1.571L183.361,100.831z"/>
<path d="M184.417,111.417h1.666c0,0,0.5,0.083,0.417,0.833s-0.313,5.75,0.01,6.5s0.906,1.918,3.573,2.084s6.694,0.247,8.527-0.086
	s4.057-1.248,6.14-2.831s2.416-2.583,3.583-3.75s1.418-1.167,1.834-1.75s0.334-1.417,0-2.5s-1.084-0.083-1.334-4.5
	s0.198-3.952-0.416-4.083c-0.553-0.119-1.667,0.75-1.417,1.5s0.166,4,0.083,4.917s-0.332,1.417-0.166,2.5s0.667,2.417,0,3.167
	s-2.094,2.658-5.834,4.75c-1.462,0.817-6.167,0.417-7.75,0s-3.38-2.25-3.38-3.167s-0.203-2.733,0.047-3.825s0.917-2.259,1.667-2.425
	s2.797-2.279,4.25-3.583c1.056-0.947,1.9-0.949,3.083-2.583c0.912-1.261-2.116-0.954-2.449-1.037s-0.863,0.211-2.773,2.059
	c-1.303,1.261-2.001,1.167-2.444,0.645c-0.726-0.854-0.917-1.583-2-1s-1.963,1.161-1.833,2.083c0.142,1.003,0.144,3.194-1.119,3.735
	c-1.146,0.49-2.038,0.933-2.418,1.516S184.417,111.417,184.417,111.417z"/>
</svg>
