<?xml version="1.0" encoding="utf-8"?>
<!-- Generator: Adobe Illustrator 16.0.1, SVG Export Plug-In . SVG Version: 6.00 Build 0)  -->
<!DOCTYPE svg PUBLIC "-//W3C//DTD SVG 1.0//EN" "http://www.w3.org/TR/2001/REC-SVG-20010904/DTD/svg10.dtd">
<svg version="1.0" id="Isolationsmodus" xmlns="http://www.w3.org/2000/svg" xmlns:xlink="http://www.w3.org/1999/xlink" x="0px"
	 y="0px" width="672.794px" height="108.449px" viewBox="0 0 672.794 108.449" enable-background="new 0 0 672.794 108.449"
	 xml:space="preserve">
<path d="M53.803,68.548c-0.9,3-1.9,7.2-2.8,10.801c-0.8-3.5-1.8-7.9-2.6-10.801l-8.9-32.802h-7.101l-8.9,32.802
	c-0.8,2.9-1.8,7.2-2.7,10.801c-0.8-3.5-1.9-7.9-2.7-10.801l-9.5-32.802H2.7L17.001,85.25h7.3l8.901-32.702c0.8-3,1.9-7.5,2.7-11.201
	c0.9,3.7,2,8.301,2.8,11.201l8.901,32.702h7.3l14.301-49.503h-5.9L53.803,68.548z M104.801,34.446c-8.201,0-14.001,3.5-17.401,9.901
	V11.145l-5.8,2.4V85.25h5.8V61.848c0-14.201,7.1-21.801,16.501-21.801c7.7,0,11.701,5.6,11.701,14.701V85.25h5.8V53.248
	C121.402,41.747,114.702,34.446,104.801,34.446z M174.302,43.647c-3.9-5.601-9.9-9.201-17.601-9.201
	c-13.601,0-23.401,11.701-23.401,26.001c0,14.401,9.5,26.102,23.401,26.102c8,0,14.201-3.9,18.101-10.101l1,8.801h4.3V36.747l-5.8-1
	V43.647z M156.701,80.95c-9.5,0-17.401-8.101-17.401-20.502c0-12.701,8.3-20.401,17.401-20.401c9.401,0,17.801,7.8,17.801,20.301
	C174.502,73.048,166.102,80.95,156.701,80.95z M213.099,80.95c-6.4,0-9.2-3.601-9.2-10.201V40.747h12.301v-5h-12.301V20.545
	l-5.8,2.6v12.601h-7.101v5h7.101v30.603c0,10.101,6.2,15.2,14.5,15.2c2.5,0,5-0.399,7.5-1.1l-1.2-5.4
	C216.999,80.649,214.999,80.95,213.099,80.95z M249.399,34.446c-13.601,0-23.001,11.701-23.001,26.102
	c0,14.301,9.401,26.001,24.702,26.001c5.4,0,10.5-0.8,15.801-3l-1.1-5.601c-4.9,1.9-9.7,3.001-14.701,3.001
	c-12.001,0-18.901-9.001-18.901-20.702h39.103C271.301,46.547,264.9,34.446,249.399,34.446z M249.399,40.047
	c8.4,0,14.401,4.7,15.801,15.201h-32.502C234.599,44.947,241.599,40.047,249.399,40.047z M303.398,68.548
	c-1.1,3-2.5,7.4-3.601,11.101c-1.1-3.6-2.5-8.101-3.6-11.101l-11.901-32.802h-6.1l17.901,49.503h7.4l17.901-49.503h-6.101
	L303.398,68.548z M350.298,34.446c-13.601,0-23.002,11.701-23.002,26.102c0,14.301,9.401,26.001,24.701,26.001
	c5.4,0,10.501-0.8,15.802-3l-1.101-5.601c-4.9,1.9-9.7,3.001-14.701,3.001c-12,0-18.901-9.001-18.901-20.702H372.2
	C372.2,46.547,365.799,34.446,350.298,34.446z M350.298,40.047c8.4,0,14.4,4.7,15.801,15.201h-32.502
	C335.497,44.947,342.498,40.047,350.298,40.047z M390.295,44.847l-0.899-9.101l-4.801,1V85.25h5.801V60.948
	c0-10.901,7.301-20.901,18.101-20.901v-5.601C399.396,34.446,393.696,38.947,390.295,44.847z M470.099,64.248
	c-0.9,3.3-1.9,7.701-2.7,11.801c-0.9-4.001-1.9-8.601-2.801-11.701l-7.9-29.102h-9.101l-7.9,29.102c-0.9,3.1-1.8,7.7-2.8,11.701
	c-0.8-4.001-1.801-8.601-2.7-11.801l-7.9-29.001h-8.701l14.001,50.003h9.701l8.101-29.402c0.8-3.1,1.899-7.5,2.699-11.5
	c0.9,4,2.001,8.5,2.801,11.5l8,29.402h9.701L486.7,35.247H478L470.099,64.248z M518.499,33.946
	c-15.001,0-25.401,12.001-25.401,26.302c0,14.301,10.301,26.301,25.401,26.301s25.401-12,25.401-26.301
	C543.9,45.947,533.5,33.946,518.499,33.946z M518.499,78.849c-9.701,0-16.602-8.101-16.602-18.601s7.001-18.601,16.602-18.601
	c9.7,0,16.601,8.101,16.601,18.601S528.199,78.849,518.499,78.849z M563.697,43.347l-1-8.101l-7.201,1V85.25h8.501V61.848
	c0-11.101,6.4-20.201,16.901-20.201v-7.701C572.498,33.946,566.997,37.847,563.697,43.347z M628.298,35.247h-10.201l-18.301,22.201
	V11.145l-8.501,2.3V85.25h8.501V68.949l6.801-8l16.001,24.301h9.7l-20.201-30.902L628.298,35.247z M647.395,48.147
	c0-3.701,2.601-6.5,7.4-6.5c3.801,0,6.9,0.9,10.301,2.4l2.601-6.9c-4.4-2-8.501-3.2-13.201-3.2c-8.101,0-15.901,4.9-15.901,14.201
	c0,16.401,21.802,14,21.802,23.801c0,3.9-3.601,6.9-8.601,6.9c-4.101,0-8.2-1.4-12.501-3.5l-2.3,7.3
	c5.2,2.601,10.101,3.9,15.101,3.9c9.701,0,17.102-5.8,17.102-14.601C669.197,56.048,647.395,57.548,647.395,48.147z"/>
</svg>
